%TF.GenerationSoftware,KiCad,Pcbnew,(5.1.7)-1*%
%TF.CreationDate,2021-01-12T02:59:51-08:00*%
%TF.ProjectId,froggy,66726f67-6779-42e6-9b69-6361645f7063,rev?*%
%TF.SameCoordinates,Original*%
%TF.FileFunction,Soldermask,Top*%
%TF.FilePolarity,Negative*%
%FSLAX46Y46*%
G04 Gerber Fmt 4.6, Leading zero omitted, Abs format (unit mm)*
G04 Created by KiCad (PCBNEW (5.1.7)-1) date 2021-01-12 02:59:51*
%MOMM*%
%LPD*%
G01*
G04 APERTURE LIST*
%ADD10R,0.900000X0.900000*%
%ADD11R,0.950000X1.200000*%
%ADD12R,1.200000X0.880000*%
%ADD13R,1.700000X1.030000*%
%ADD14R,0.880000X1.250000*%
%ADD15R,1.190000X2.300000*%
%ADD16R,0.950000X2.170000*%
%ADD17R,0.700000X0.950000*%
%ADD18R,1.000000X8.000000*%
%ADD19C,0.700000*%
%ADD20O,0.900000X2.400000*%
%ADD21O,0.900000X1.700000*%
%ADD22R,0.450000X1.750000*%
G04 APERTURE END LIST*
D10*
%TO.C,J2*%
X197822000Y-79452000D03*
D11*
X197822000Y-80862000D03*
D12*
X192247000Y-74462000D03*
D13*
X194647000Y-74537000D03*
X189847000Y-74537000D03*
D14*
X186637000Y-82647000D03*
D15*
X186802000Y-86922000D03*
D16*
X197822000Y-86987000D03*
D17*
X187747000Y-85087000D03*
X188847000Y-85087000D03*
X189947000Y-85087000D03*
X191047000Y-85087000D03*
X192147000Y-85087000D03*
X193247000Y-85087000D03*
X194347000Y-85087000D03*
X195447000Y-85087000D03*
%TD*%
D18*
%TO.C,U2*%
X197600000Y-39200000D03*
X196300000Y-39200000D03*
X195000000Y-39200000D03*
X193700000Y-39200000D03*
X192400000Y-39200000D03*
X191100000Y-39200000D03*
X189800000Y-39200000D03*
X188500000Y-39200000D03*
X187200000Y-39200000D03*
X185900000Y-39200000D03*
X184600000Y-39200000D03*
X183300000Y-39200000D03*
X182000000Y-39200000D03*
X180700000Y-39200000D03*
X179400000Y-39200000D03*
X178100000Y-39200000D03*
X176800000Y-39200000D03*
X175500000Y-39200000D03*
X174200000Y-39200000D03*
X172900000Y-39200000D03*
X171600000Y-39200000D03*
X170300000Y-39200000D03*
X169000000Y-39200000D03*
X167700000Y-39200000D03*
X166400000Y-39200000D03*
X165100000Y-39200000D03*
X163800000Y-39200000D03*
X162500000Y-39200000D03*
X161200000Y-39200000D03*
X159900000Y-39200000D03*
%TD*%
%TO.C,R1*%
G36*
G01*
X170950000Y-78275000D02*
X170950000Y-78825000D01*
G75*
G02*
X170750000Y-79025000I-200000J0D01*
G01*
X170350000Y-79025000D01*
G75*
G02*
X170150000Y-78825000I0J200000D01*
G01*
X170150000Y-78275000D01*
G75*
G02*
X170350000Y-78075000I200000J0D01*
G01*
X170750000Y-78075000D01*
G75*
G02*
X170950000Y-78275000I0J-200000D01*
G01*
G37*
G36*
G01*
X172600000Y-78275000D02*
X172600000Y-78825000D01*
G75*
G02*
X172400000Y-79025000I-200000J0D01*
G01*
X172000000Y-79025000D01*
G75*
G02*
X171800000Y-78825000I0J200000D01*
G01*
X171800000Y-78275000D01*
G75*
G02*
X172000000Y-78075000I200000J0D01*
G01*
X172400000Y-78075000D01*
G75*
G02*
X172600000Y-78275000I0J-200000D01*
G01*
G37*
%TD*%
%TO.C,C1*%
G36*
G01*
X167650000Y-79050000D02*
X168150000Y-79050000D01*
G75*
G02*
X168375000Y-79275000I0J-225000D01*
G01*
X168375000Y-79725000D01*
G75*
G02*
X168150000Y-79950000I-225000J0D01*
G01*
X167650000Y-79950000D01*
G75*
G02*
X167425000Y-79725000I0J225000D01*
G01*
X167425000Y-79275000D01*
G75*
G02*
X167650000Y-79050000I225000J0D01*
G01*
G37*
G36*
G01*
X167650000Y-77500000D02*
X168150000Y-77500000D01*
G75*
G02*
X168375000Y-77725000I0J-225000D01*
G01*
X168375000Y-78175000D01*
G75*
G02*
X168150000Y-78400000I-225000J0D01*
G01*
X167650000Y-78400000D01*
G75*
G02*
X167425000Y-78175000I0J225000D01*
G01*
X167425000Y-77725000D01*
G75*
G02*
X167650000Y-77500000I225000J0D01*
G01*
G37*
%TD*%
%TO.C,C2*%
G36*
G01*
X164350000Y-59150000D02*
X164350000Y-58650000D01*
G75*
G02*
X164575000Y-58425000I225000J0D01*
G01*
X165025000Y-58425000D01*
G75*
G02*
X165250000Y-58650000I0J-225000D01*
G01*
X165250000Y-59150000D01*
G75*
G02*
X165025000Y-59375000I-225000J0D01*
G01*
X164575000Y-59375000D01*
G75*
G02*
X164350000Y-59150000I0J225000D01*
G01*
G37*
G36*
G01*
X165900000Y-59150000D02*
X165900000Y-58650000D01*
G75*
G02*
X166125000Y-58425000I225000J0D01*
G01*
X166575000Y-58425000D01*
G75*
G02*
X166800000Y-58650000I0J-225000D01*
G01*
X166800000Y-59150000D01*
G75*
G02*
X166575000Y-59375000I-225000J0D01*
G01*
X166125000Y-59375000D01*
G75*
G02*
X165900000Y-59150000I0J225000D01*
G01*
G37*
%TD*%
%TO.C,C3*%
G36*
G01*
X167650000Y-74075000D02*
X168150000Y-74075000D01*
G75*
G02*
X168375000Y-74300000I0J-225000D01*
G01*
X168375000Y-74750000D01*
G75*
G02*
X168150000Y-74975000I-225000J0D01*
G01*
X167650000Y-74975000D01*
G75*
G02*
X167425000Y-74750000I0J225000D01*
G01*
X167425000Y-74300000D01*
G75*
G02*
X167650000Y-74075000I225000J0D01*
G01*
G37*
G36*
G01*
X167650000Y-75625000D02*
X168150000Y-75625000D01*
G75*
G02*
X168375000Y-75850000I0J-225000D01*
G01*
X168375000Y-76300000D01*
G75*
G02*
X168150000Y-76525000I-225000J0D01*
G01*
X167650000Y-76525000D01*
G75*
G02*
X167425000Y-76300000I0J225000D01*
G01*
X167425000Y-75850000D01*
G75*
G02*
X167650000Y-75625000I225000J0D01*
G01*
G37*
%TD*%
%TO.C,C4*%
G36*
G01*
X162890080Y-75185080D02*
X162890080Y-74685080D01*
G75*
G02*
X163115080Y-74460080I225000J0D01*
G01*
X163565080Y-74460080D01*
G75*
G02*
X163790080Y-74685080I0J-225000D01*
G01*
X163790080Y-75185080D01*
G75*
G02*
X163565080Y-75410080I-225000J0D01*
G01*
X163115080Y-75410080D01*
G75*
G02*
X162890080Y-75185080I0J225000D01*
G01*
G37*
G36*
G01*
X161340080Y-75185080D02*
X161340080Y-74685080D01*
G75*
G02*
X161565080Y-74460080I225000J0D01*
G01*
X162015080Y-74460080D01*
G75*
G02*
X162240080Y-74685080I0J-225000D01*
G01*
X162240080Y-75185080D01*
G75*
G02*
X162015080Y-75410080I-225000J0D01*
G01*
X161565080Y-75410080D01*
G75*
G02*
X161340080Y-75185080I0J225000D01*
G01*
G37*
%TD*%
%TO.C,D1*%
G36*
G01*
X178962500Y-84856250D02*
X178962500Y-84343750D01*
G75*
G02*
X179181250Y-84125000I218750J0D01*
G01*
X179618750Y-84125000D01*
G75*
G02*
X179837500Y-84343750I0J-218750D01*
G01*
X179837500Y-84856250D01*
G75*
G02*
X179618750Y-85075000I-218750J0D01*
G01*
X179181250Y-85075000D01*
G75*
G02*
X178962500Y-84856250I0J218750D01*
G01*
G37*
G36*
G01*
X177387500Y-84856250D02*
X177387500Y-84343750D01*
G75*
G02*
X177606250Y-84125000I218750J0D01*
G01*
X178043750Y-84125000D01*
G75*
G02*
X178262500Y-84343750I0J-218750D01*
G01*
X178262500Y-84856250D01*
G75*
G02*
X178043750Y-85075000I-218750J0D01*
G01*
X177606250Y-85075000D01*
G75*
G02*
X177387500Y-84856250I0J218750D01*
G01*
G37*
%TD*%
%TO.C,D2*%
G36*
G01*
X179837500Y-82143750D02*
X179837500Y-82656250D01*
G75*
G02*
X179618750Y-82875000I-218750J0D01*
G01*
X179181250Y-82875000D01*
G75*
G02*
X178962500Y-82656250I0J218750D01*
G01*
X178962500Y-82143750D01*
G75*
G02*
X179181250Y-81925000I218750J0D01*
G01*
X179618750Y-81925000D01*
G75*
G02*
X179837500Y-82143750I0J-218750D01*
G01*
G37*
G36*
G01*
X178262500Y-82143750D02*
X178262500Y-82656250D01*
G75*
G02*
X178043750Y-82875000I-218750J0D01*
G01*
X177606250Y-82875000D01*
G75*
G02*
X177387500Y-82656250I0J218750D01*
G01*
X177387500Y-82143750D01*
G75*
G02*
X177606250Y-81925000I218750J0D01*
G01*
X178043750Y-81925000D01*
G75*
G02*
X178262500Y-82143750I0J-218750D01*
G01*
G37*
%TD*%
D19*
%TO.C,J1*%
X163500000Y-82296000D03*
X164350000Y-82296000D03*
X165200000Y-82296000D03*
X166050000Y-82296000D03*
X166900000Y-82296000D03*
X167750000Y-82296000D03*
X168600000Y-82296000D03*
X169450000Y-82296000D03*
X164350000Y-83646000D03*
X166050000Y-83646000D03*
X165200000Y-83646000D03*
X163500000Y-83646000D03*
X167750000Y-83646000D03*
X168600000Y-83646000D03*
X169450000Y-83646000D03*
X166900000Y-83646000D03*
D20*
X162150000Y-83276000D03*
X170800000Y-83276000D03*
D21*
X162150000Y-86656000D03*
X170800000Y-86656000D03*
%TD*%
%TO.C,R2*%
G36*
G01*
X177625000Y-74075000D02*
X177625000Y-74625000D01*
G75*
G02*
X177425000Y-74825000I-200000J0D01*
G01*
X177025000Y-74825000D01*
G75*
G02*
X176825000Y-74625000I0J200000D01*
G01*
X176825000Y-74075000D01*
G75*
G02*
X177025000Y-73875000I200000J0D01*
G01*
X177425000Y-73875000D01*
G75*
G02*
X177625000Y-74075000I0J-200000D01*
G01*
G37*
G36*
G01*
X175975000Y-74075000D02*
X175975000Y-74625000D01*
G75*
G02*
X175775000Y-74825000I-200000J0D01*
G01*
X175375000Y-74825000D01*
G75*
G02*
X175175000Y-74625000I0J200000D01*
G01*
X175175000Y-74075000D01*
G75*
G02*
X175375000Y-73875000I200000J0D01*
G01*
X175775000Y-73875000D01*
G75*
G02*
X175975000Y-74075000I0J-200000D01*
G01*
G37*
%TD*%
%TO.C,R3*%
G36*
G01*
X172206240Y-57647620D02*
X172756240Y-57647620D01*
G75*
G02*
X172956240Y-57847620I0J-200000D01*
G01*
X172956240Y-58247620D01*
G75*
G02*
X172756240Y-58447620I-200000J0D01*
G01*
X172206240Y-58447620D01*
G75*
G02*
X172006240Y-58247620I0J200000D01*
G01*
X172006240Y-57847620D01*
G75*
G02*
X172206240Y-57647620I200000J0D01*
G01*
G37*
G36*
G01*
X172206240Y-59297620D02*
X172756240Y-59297620D01*
G75*
G02*
X172956240Y-59497620I0J-200000D01*
G01*
X172956240Y-59897620D01*
G75*
G02*
X172756240Y-60097620I-200000J0D01*
G01*
X172206240Y-60097620D01*
G75*
G02*
X172006240Y-59897620I0J200000D01*
G01*
X172006240Y-59497620D01*
G75*
G02*
X172206240Y-59297620I200000J0D01*
G01*
G37*
%TD*%
%TO.C,R4*%
G36*
G01*
X170188300Y-58426800D02*
X169638300Y-58426800D01*
G75*
G02*
X169438300Y-58226800I0J200000D01*
G01*
X169438300Y-57826800D01*
G75*
G02*
X169638300Y-57626800I200000J0D01*
G01*
X170188300Y-57626800D01*
G75*
G02*
X170388300Y-57826800I0J-200000D01*
G01*
X170388300Y-58226800D01*
G75*
G02*
X170188300Y-58426800I-200000J0D01*
G01*
G37*
G36*
G01*
X170188300Y-60076800D02*
X169638300Y-60076800D01*
G75*
G02*
X169438300Y-59876800I0J200000D01*
G01*
X169438300Y-59476800D01*
G75*
G02*
X169638300Y-59276800I200000J0D01*
G01*
X170188300Y-59276800D01*
G75*
G02*
X170388300Y-59476800I0J-200000D01*
G01*
X170388300Y-59876800D01*
G75*
G02*
X170188300Y-60076800I-200000J0D01*
G01*
G37*
%TD*%
D22*
%TO.C,U1*%
X172500000Y-64345000D03*
X171850000Y-64345000D03*
X171200000Y-64345000D03*
X170550000Y-64345000D03*
X169900000Y-64345000D03*
X169250000Y-64345000D03*
X168600000Y-64345000D03*
X167950000Y-64345000D03*
X167300000Y-64345000D03*
X166650000Y-64345000D03*
X166000000Y-64345000D03*
X165350000Y-64345000D03*
X164700000Y-64345000D03*
X164050000Y-64345000D03*
X164050000Y-71545000D03*
X164700000Y-71545000D03*
X165350000Y-71545000D03*
X166000000Y-71545000D03*
X166650000Y-71545000D03*
X167300000Y-71545000D03*
X167950000Y-71545000D03*
X168600000Y-71545000D03*
X169250000Y-71545000D03*
X169900000Y-71545000D03*
X170550000Y-71545000D03*
X171200000Y-71545000D03*
X171850000Y-71545000D03*
X172500000Y-71545000D03*
%TD*%
%TO.C,R5*%
G36*
G01*
X175675000Y-85800000D02*
X175125000Y-85800000D01*
G75*
G02*
X174925000Y-85600000I0J200000D01*
G01*
X174925000Y-85200000D01*
G75*
G02*
X175125000Y-85000000I200000J0D01*
G01*
X175675000Y-85000000D01*
G75*
G02*
X175875000Y-85200000I0J-200000D01*
G01*
X175875000Y-85600000D01*
G75*
G02*
X175675000Y-85800000I-200000J0D01*
G01*
G37*
G36*
G01*
X175675000Y-84150000D02*
X175125000Y-84150000D01*
G75*
G02*
X174925000Y-83950000I0J200000D01*
G01*
X174925000Y-83550000D01*
G75*
G02*
X175125000Y-83350000I200000J0D01*
G01*
X175675000Y-83350000D01*
G75*
G02*
X175875000Y-83550000I0J-200000D01*
G01*
X175875000Y-83950000D01*
G75*
G02*
X175675000Y-84150000I-200000J0D01*
G01*
G37*
%TD*%
%TO.C,R6*%
G36*
G01*
X175675000Y-80000000D02*
X175125000Y-80000000D01*
G75*
G02*
X174925000Y-79800000I0J200000D01*
G01*
X174925000Y-79400000D01*
G75*
G02*
X175125000Y-79200000I200000J0D01*
G01*
X175675000Y-79200000D01*
G75*
G02*
X175875000Y-79400000I0J-200000D01*
G01*
X175875000Y-79800000D01*
G75*
G02*
X175675000Y-80000000I-200000J0D01*
G01*
G37*
G36*
G01*
X175675000Y-81650000D02*
X175125000Y-81650000D01*
G75*
G02*
X174925000Y-81450000I0J200000D01*
G01*
X174925000Y-81050000D01*
G75*
G02*
X175125000Y-80850000I200000J0D01*
G01*
X175675000Y-80850000D01*
G75*
G02*
X175875000Y-81050000I0J-200000D01*
G01*
X175875000Y-81450000D01*
G75*
G02*
X175675000Y-81650000I-200000J0D01*
G01*
G37*
%TD*%
M02*
