M48
; DRILL file {KiCad (5.1.7)-1} date 01/12/21 02:59:53
; FORMAT={-:-/ absolute / inch / decimal}
; #@! TF.CreationDate,2021-01-12T02:59:53-08:00
; #@! TF.GenerationSoftware,Kicad,Pcbnew,(5.1.7)-1
; #@! TF.FileFunction,Plated,1,2,PTH
FMAT,2
INCH
T1C0.0157
T2C0.0236
%
G90
G05
T1
X6.3858Y-2.8366
X6.4803Y-2.8779
X6.5492Y-2.3189
X6.6102Y-2.9341
X6.6102Y-3.1299
X6.748Y-2.4252
X6.9124Y-2.9272
X7.063Y-3.3307
X7.1654Y-1.7402
X7.3551Y-3.4134
X7.4213Y-1.7402
X7.4724Y-2.8661
X7.4803Y-3.4173
X7.5197Y-3.2677
X7.5669Y-2.8661
X7.5669Y-3.0551
X7.5669Y-3.4488
X7.5748Y-1.7402
X7.6535Y-3.0079
X7.6772Y-2.7402
X7.8346Y-3.3071
X6.437Y-3.24
X6.437Y-3.2931
X6.4705Y-3.24
X6.4705Y-3.2931
X6.5039Y-3.24
X6.5039Y-3.2931
X6.5374Y-3.24
X6.5374Y-3.2931
X6.5709Y-3.24
X6.5709Y-3.2931
X6.6043Y-3.24
X6.6043Y-3.2931
X6.6378Y-3.24
X6.6378Y-3.2931
X6.6713Y-3.24
X6.6713Y-3.2931
T2
G00X6.3839Y-3.2491
M15
G01X6.3839Y-3.3081
M16
G05
G00X6.3839Y-3.3959
M15
G01X6.3839Y-3.4274
M16
G05
G00X6.7244Y-3.2491
M15
G01X6.7244Y-3.3081
M16
G05
G00X6.7244Y-3.3959
M15
G01X6.7244Y-3.4274
M16
G05
T0
M30
