%TF.GenerationSoftware,KiCad,Pcbnew,(5.1.7)-1*%
%TF.CreationDate,2021-01-12T02:59:51-08:00*%
%TF.ProjectId,froggy,66726f67-6779-42e6-9b69-6361645f7063,rev?*%
%TF.SameCoordinates,Original*%
%TF.FileFunction,Legend,Top*%
%TF.FilePolarity,Positive*%
%FSLAX46Y46*%
G04 Gerber Fmt 4.6, Leading zero omitted, Abs format (unit mm)*
G04 Created by KiCad (PCBNEW (5.1.7)-1) date 2021-01-12 02:59:51*
%MOMM*%
%LPD*%
G01*
G04 APERTURE LIST*
%ADD10C,0.200000*%
%ADD11C,0.100000*%
%ADD12C,0.010000*%
%ADD13C,0.120000*%
%ADD14C,0.150000*%
G04 APERTURE END LIST*
D10*
X172295362Y-55062200D02*
X172780235Y-55331574D01*
X172618611Y-54954451D01*
X172995734Y-55116075D01*
X172726360Y-54631202D01*
X172887985Y-54469578D02*
X173372858Y-54738952D01*
X173211234Y-54361828D01*
X173588357Y-54523452D01*
X173318983Y-54038579D01*
X173480608Y-53876955D02*
X173965481Y-54146329D01*
X173803856Y-53769205D01*
X174180980Y-53930830D01*
X173911606Y-53445956D01*
X174450354Y-53553706D02*
X174504229Y-53553706D01*
X174504229Y-53607581D01*
X174450354Y-53607581D01*
X174450354Y-53553706D01*
X174504229Y-53607581D01*
X174773603Y-53338207D02*
X174207917Y-52772521D01*
X174611978Y-53068833D02*
X174989102Y-53122708D01*
X174611978Y-52745584D02*
X174611978Y-53176582D01*
X175420101Y-52637834D02*
X175393163Y-52718647D01*
X175285414Y-52826396D01*
X175204601Y-52853334D01*
X175123789Y-52826396D01*
X174908290Y-52610897D01*
X174881352Y-52530085D01*
X174908290Y-52449272D01*
X175016039Y-52341523D01*
X175096852Y-52314585D01*
X175177664Y-52341523D01*
X175231539Y-52395398D01*
X175016039Y-52718647D01*
X175662537Y-52395398D02*
X175743349Y-52368460D01*
X175851099Y-52260711D01*
X175878036Y-52179898D01*
X175851099Y-52099086D01*
X175824162Y-52072149D01*
X175743349Y-52045211D01*
X175662537Y-52072149D01*
X175581725Y-52152961D01*
X175500913Y-52179898D01*
X175420101Y-52152961D01*
X175393163Y-52126024D01*
X175366226Y-52045211D01*
X175393163Y-51964399D01*
X175473975Y-51883587D01*
X175554788Y-51856650D01*
X176120473Y-51937462D02*
X176201285Y-51910524D01*
X176309035Y-51802775D01*
X176335972Y-51721963D01*
X176309035Y-51641150D01*
X176282097Y-51614213D01*
X176201285Y-51587276D01*
X176120473Y-51614213D01*
X176039661Y-51695025D01*
X175958849Y-51721963D01*
X175878036Y-51695025D01*
X175851099Y-51668088D01*
X175824162Y-51587276D01*
X175851099Y-51506463D01*
X175931911Y-51425651D01*
X176012723Y-51398714D01*
X176820845Y-51237089D02*
X176793908Y-51317902D01*
X176686158Y-51425651D01*
X176605346Y-51452589D01*
X176524534Y-51425651D01*
X176309035Y-51210152D01*
X176282097Y-51129340D01*
X176309035Y-51048528D01*
X176416784Y-50940778D01*
X176497597Y-50913841D01*
X176578409Y-50940778D01*
X176632284Y-50994653D01*
X176416784Y-51317902D01*
X177332656Y-50725279D02*
X177305719Y-50806091D01*
X177197969Y-50913841D01*
X177117157Y-50940778D01*
X177063282Y-50940778D01*
X176982470Y-50913841D01*
X176820845Y-50752216D01*
X176793908Y-50671404D01*
X176793908Y-50617529D01*
X176820845Y-50536717D01*
X176928595Y-50428967D01*
X177009407Y-50402030D01*
X177548155Y-50455905D02*
X177602030Y-50455905D01*
X177602030Y-50509780D01*
X177548155Y-50509780D01*
X177548155Y-50455905D01*
X177602030Y-50509780D01*
X178086903Y-49971032D02*
X178059966Y-50051844D01*
X177952216Y-50159593D01*
X177871404Y-50186531D01*
X177817529Y-50186531D01*
X177736717Y-50159593D01*
X177575093Y-49997969D01*
X177548155Y-49917157D01*
X177548155Y-49863282D01*
X177575093Y-49782470D01*
X177682842Y-49674720D01*
X177763654Y-49647783D01*
X178437089Y-49674720D02*
X178356277Y-49701658D01*
X178302402Y-49701658D01*
X178221590Y-49674720D01*
X178059966Y-49513096D01*
X178033028Y-49432284D01*
X178033028Y-49378409D01*
X178059966Y-49297597D01*
X178140778Y-49216784D01*
X178221590Y-49189847D01*
X178275465Y-49189847D01*
X178356277Y-49216784D01*
X178517902Y-49378409D01*
X178544839Y-49459221D01*
X178544839Y-49513096D01*
X178517902Y-49593908D01*
X178437089Y-49674720D01*
X178868088Y-49243722D02*
X178490964Y-48866598D01*
X178544839Y-48920473D02*
X178544839Y-48866598D01*
X178571776Y-48785786D01*
X178652589Y-48704974D01*
X178733401Y-48678036D01*
X178814213Y-48704974D01*
X179110524Y-49001285D01*
X178814213Y-48704974D02*
X178787276Y-48624162D01*
X178814213Y-48543349D01*
X178895025Y-48462537D01*
X178975837Y-48435600D01*
X179056650Y-48462537D01*
X179352961Y-48758849D01*
X179433773Y-47492791D02*
X179676210Y-48704974D01*
X179757022Y-47600540D02*
X179972521Y-47385041D01*
X180214958Y-47896852D02*
X179730085Y-47411978D01*
X179703147Y-47331166D01*
X179730085Y-47250354D01*
X179783960Y-47196479D01*
X180538207Y-47573603D02*
X180161083Y-47196479D01*
X180268833Y-47304229D02*
X180241895Y-47223417D01*
X180241895Y-47169542D01*
X180268833Y-47088730D01*
X180322708Y-47034855D01*
X180969205Y-47142604D02*
X180888393Y-47169542D01*
X180834518Y-47169542D01*
X180753706Y-47142604D01*
X180592082Y-46980980D01*
X180565144Y-46900168D01*
X180565144Y-46846293D01*
X180592082Y-46765481D01*
X180672894Y-46684669D01*
X180753706Y-46657731D01*
X180807581Y-46657731D01*
X180888393Y-46684669D01*
X181050017Y-46846293D01*
X181076955Y-46927105D01*
X181076955Y-46980980D01*
X181050017Y-47061792D01*
X180969205Y-47142604D01*
X181265517Y-46092046D02*
X181723452Y-46549982D01*
X181750390Y-46630794D01*
X181750390Y-46684669D01*
X181723452Y-46765481D01*
X181642640Y-46846293D01*
X181561828Y-46873230D01*
X181615703Y-46442232D02*
X181588765Y-46523044D01*
X181481016Y-46630794D01*
X181400204Y-46657731D01*
X181346329Y-46657731D01*
X181265517Y-46630794D01*
X181103892Y-46469169D01*
X181076955Y-46388357D01*
X181076955Y-46334482D01*
X181103892Y-46253670D01*
X181211642Y-46145921D01*
X181292454Y-46118983D01*
X181777327Y-45580235D02*
X182235263Y-46038171D01*
X182262200Y-46118983D01*
X182262200Y-46172858D01*
X182235263Y-46253670D01*
X182154451Y-46334482D01*
X182073639Y-46361420D01*
X182127513Y-45930421D02*
X182100576Y-46011234D01*
X181992826Y-46118983D01*
X181912014Y-46145921D01*
X181858139Y-46145921D01*
X181777327Y-46118983D01*
X181615703Y-45957359D01*
X181588765Y-45876547D01*
X181588765Y-45822672D01*
X181615703Y-45741860D01*
X181723452Y-45634110D01*
X181804265Y-45607173D01*
X181992826Y-45364736D02*
X182504637Y-45607173D01*
X182262200Y-45095362D02*
X182504637Y-45607173D01*
X182585449Y-45795734D01*
X182585449Y-45849609D01*
X182558512Y-45930421D01*
%TO.C,J2*%
X198530000Y-85238000D02*
X198530000Y-85238000D01*
X198530000Y-85038000D02*
X198530000Y-85038000D01*
D11*
X186570000Y-89938000D02*
X186570000Y-88538000D01*
X197890000Y-89938000D02*
X186570000Y-89938000D01*
X197890000Y-88538000D02*
X197890000Y-89938000D01*
X197890000Y-85538000D02*
X197890000Y-83538000D01*
X186570000Y-83538000D02*
X186570000Y-85538000D01*
X186570000Y-74538000D02*
X186570000Y-78538000D01*
X188230000Y-74537000D02*
X186570000Y-74538000D01*
X197890000Y-74538000D02*
X196230000Y-74537000D01*
X197890000Y-78538000D02*
X197890000Y-74538000D01*
D10*
X198530000Y-85038000D02*
G75*
G03*
X198530000Y-85238000I0J-100000D01*
G01*
X198530000Y-85238000D02*
G75*
G03*
X198530000Y-85038000I0J100000D01*
G01*
D12*
%TO.C,REF\u002A\u002A*%
G36*
X179799744Y-79119918D02*
G01*
X179855201Y-79147568D01*
X179904148Y-79198480D01*
X179917629Y-79217338D01*
X179932314Y-79242015D01*
X179941842Y-79268816D01*
X179947293Y-79304587D01*
X179949747Y-79356169D01*
X179950286Y-79424267D01*
X179947852Y-79517588D01*
X179939394Y-79587657D01*
X179923174Y-79639931D01*
X179897454Y-79679869D01*
X179860497Y-79712929D01*
X179857782Y-79714886D01*
X179821360Y-79734908D01*
X179777502Y-79744815D01*
X179721724Y-79747257D01*
X179631048Y-79747257D01*
X179631010Y-79835283D01*
X179630166Y-79884308D01*
X179625024Y-79913065D01*
X179611587Y-79930311D01*
X179585858Y-79944808D01*
X179579679Y-79947769D01*
X179550764Y-79961648D01*
X179528376Y-79970414D01*
X179511729Y-79971171D01*
X179500036Y-79961023D01*
X179492510Y-79937073D01*
X179488366Y-79896426D01*
X179486815Y-79836186D01*
X179487071Y-79753455D01*
X179488349Y-79645339D01*
X179488748Y-79613000D01*
X179490185Y-79501524D01*
X179491472Y-79428603D01*
X179630971Y-79428603D01*
X179631755Y-79490499D01*
X179635240Y-79530997D01*
X179643124Y-79557708D01*
X179657105Y-79578244D01*
X179666597Y-79588260D01*
X179705404Y-79617567D01*
X179739763Y-79619952D01*
X179775216Y-79595750D01*
X179776114Y-79594857D01*
X179790539Y-79576153D01*
X179799313Y-79550732D01*
X179803739Y-79511584D01*
X179805118Y-79451697D01*
X179805143Y-79438430D01*
X179801812Y-79355901D01*
X179790969Y-79298691D01*
X179771340Y-79263766D01*
X179741650Y-79248094D01*
X179724491Y-79246514D01*
X179683766Y-79253926D01*
X179655832Y-79278330D01*
X179639017Y-79322980D01*
X179631650Y-79391130D01*
X179630971Y-79428603D01*
X179491472Y-79428603D01*
X179491708Y-79415245D01*
X179493677Y-79350333D01*
X179496450Y-79302958D01*
X179500388Y-79269290D01*
X179505849Y-79245498D01*
X179513192Y-79227753D01*
X179522777Y-79212224D01*
X179526887Y-79206381D01*
X179581405Y-79151185D01*
X179650336Y-79119890D01*
X179730072Y-79111165D01*
X179799744Y-79119918D01*
G37*
X179799744Y-79119918D02*
X179855201Y-79147568D01*
X179904148Y-79198480D01*
X179917629Y-79217338D01*
X179932314Y-79242015D01*
X179941842Y-79268816D01*
X179947293Y-79304587D01*
X179949747Y-79356169D01*
X179950286Y-79424267D01*
X179947852Y-79517588D01*
X179939394Y-79587657D01*
X179923174Y-79639931D01*
X179897454Y-79679869D01*
X179860497Y-79712929D01*
X179857782Y-79714886D01*
X179821360Y-79734908D01*
X179777502Y-79744815D01*
X179721724Y-79747257D01*
X179631048Y-79747257D01*
X179631010Y-79835283D01*
X179630166Y-79884308D01*
X179625024Y-79913065D01*
X179611587Y-79930311D01*
X179585858Y-79944808D01*
X179579679Y-79947769D01*
X179550764Y-79961648D01*
X179528376Y-79970414D01*
X179511729Y-79971171D01*
X179500036Y-79961023D01*
X179492510Y-79937073D01*
X179488366Y-79896426D01*
X179486815Y-79836186D01*
X179487071Y-79753455D01*
X179488349Y-79645339D01*
X179488748Y-79613000D01*
X179490185Y-79501524D01*
X179491472Y-79428603D01*
X179630971Y-79428603D01*
X179631755Y-79490499D01*
X179635240Y-79530997D01*
X179643124Y-79557708D01*
X179657105Y-79578244D01*
X179666597Y-79588260D01*
X179705404Y-79617567D01*
X179739763Y-79619952D01*
X179775216Y-79595750D01*
X179776114Y-79594857D01*
X179790539Y-79576153D01*
X179799313Y-79550732D01*
X179803739Y-79511584D01*
X179805118Y-79451697D01*
X179805143Y-79438430D01*
X179801812Y-79355901D01*
X179790969Y-79298691D01*
X179771340Y-79263766D01*
X179741650Y-79248094D01*
X179724491Y-79246514D01*
X179683766Y-79253926D01*
X179655832Y-79278330D01*
X179639017Y-79322980D01*
X179631650Y-79391130D01*
X179630971Y-79428603D01*
X179491472Y-79428603D01*
X179491708Y-79415245D01*
X179493677Y-79350333D01*
X179496450Y-79302958D01*
X179500388Y-79269290D01*
X179505849Y-79245498D01*
X179513192Y-79227753D01*
X179522777Y-79212224D01*
X179526887Y-79206381D01*
X179581405Y-79151185D01*
X179650336Y-79119890D01*
X179730072Y-79111165D01*
X179799744Y-79119918D01*
G36*
X180916093Y-79127780D02*
G01*
X180962672Y-79154723D01*
X180995057Y-79181466D01*
X181018742Y-79209484D01*
X181035059Y-79243748D01*
X181045339Y-79289227D01*
X181050914Y-79350892D01*
X181053116Y-79433711D01*
X181053371Y-79493246D01*
X181053371Y-79712391D01*
X180991686Y-79740044D01*
X180930000Y-79767697D01*
X180922743Y-79527670D01*
X180919744Y-79438028D01*
X180916598Y-79372962D01*
X180912701Y-79328026D01*
X180907447Y-79298770D01*
X180900231Y-79280748D01*
X180890450Y-79269511D01*
X180887312Y-79267079D01*
X180839761Y-79248083D01*
X180791697Y-79255600D01*
X180763086Y-79275543D01*
X180751447Y-79289675D01*
X180743391Y-79308220D01*
X180738271Y-79336334D01*
X180735441Y-79379173D01*
X180734256Y-79441895D01*
X180734057Y-79507261D01*
X180734018Y-79589268D01*
X180732614Y-79647316D01*
X180727914Y-79686465D01*
X180717987Y-79711780D01*
X180700903Y-79728323D01*
X180674732Y-79741156D01*
X180639775Y-79754491D01*
X180601596Y-79769007D01*
X180606141Y-79511389D01*
X180607971Y-79418519D01*
X180610112Y-79349889D01*
X180613181Y-79300711D01*
X180617794Y-79266198D01*
X180624568Y-79241562D01*
X180634119Y-79222016D01*
X180645634Y-79204770D01*
X180701190Y-79149680D01*
X180768980Y-79117822D01*
X180842713Y-79110191D01*
X180916093Y-79127780D01*
G37*
X180916093Y-79127780D02*
X180962672Y-79154723D01*
X180995057Y-79181466D01*
X181018742Y-79209484D01*
X181035059Y-79243748D01*
X181045339Y-79289227D01*
X181050914Y-79350892D01*
X181053116Y-79433711D01*
X181053371Y-79493246D01*
X181053371Y-79712391D01*
X180991686Y-79740044D01*
X180930000Y-79767697D01*
X180922743Y-79527670D01*
X180919744Y-79438028D01*
X180916598Y-79372962D01*
X180912701Y-79328026D01*
X180907447Y-79298770D01*
X180900231Y-79280748D01*
X180890450Y-79269511D01*
X180887312Y-79267079D01*
X180839761Y-79248083D01*
X180791697Y-79255600D01*
X180763086Y-79275543D01*
X180751447Y-79289675D01*
X180743391Y-79308220D01*
X180738271Y-79336334D01*
X180735441Y-79379173D01*
X180734256Y-79441895D01*
X180734057Y-79507261D01*
X180734018Y-79589268D01*
X180732614Y-79647316D01*
X180727914Y-79686465D01*
X180717987Y-79711780D01*
X180700903Y-79728323D01*
X180674732Y-79741156D01*
X180639775Y-79754491D01*
X180601596Y-79769007D01*
X180606141Y-79511389D01*
X180607971Y-79418519D01*
X180610112Y-79349889D01*
X180613181Y-79300711D01*
X180617794Y-79266198D01*
X180624568Y-79241562D01*
X180634119Y-79222016D01*
X180645634Y-79204770D01*
X180701190Y-79149680D01*
X180768980Y-79117822D01*
X180842713Y-79110191D01*
X180916093Y-79127780D01*
G36*
X179241115Y-79121962D02*
G01*
X179309145Y-79157733D01*
X179359351Y-79215301D01*
X179377185Y-79252312D01*
X179391063Y-79307882D01*
X179398167Y-79378096D01*
X179398840Y-79454727D01*
X179393427Y-79529552D01*
X179382270Y-79594342D01*
X179365714Y-79640873D01*
X179360626Y-79648887D01*
X179300355Y-79708707D01*
X179228769Y-79744535D01*
X179151092Y-79755020D01*
X179072548Y-79738810D01*
X179050689Y-79729092D01*
X179008122Y-79699143D01*
X178970763Y-79659433D01*
X178967232Y-79654397D01*
X178952881Y-79630124D01*
X178943394Y-79604178D01*
X178937790Y-79570022D01*
X178935086Y-79521119D01*
X178934299Y-79450935D01*
X178934286Y-79435200D01*
X178934322Y-79430192D01*
X179079429Y-79430192D01*
X179080273Y-79496430D01*
X179083596Y-79540386D01*
X179090583Y-79568779D01*
X179102416Y-79588325D01*
X179108457Y-79594857D01*
X179143186Y-79619680D01*
X179176903Y-79618548D01*
X179210995Y-79597016D01*
X179231329Y-79574029D01*
X179243371Y-79540478D01*
X179250134Y-79487569D01*
X179250598Y-79481399D01*
X179251752Y-79385513D01*
X179239688Y-79314299D01*
X179214570Y-79268194D01*
X179176560Y-79247635D01*
X179162992Y-79246514D01*
X179127364Y-79252152D01*
X179102994Y-79271686D01*
X179088093Y-79309042D01*
X179080875Y-79368150D01*
X179079429Y-79430192D01*
X178934322Y-79430192D01*
X178934826Y-79360413D01*
X178937096Y-79308159D01*
X178942068Y-79271949D01*
X178950713Y-79245299D01*
X178964005Y-79221722D01*
X178966943Y-79217338D01*
X179016313Y-79158249D01*
X179070109Y-79123947D01*
X179135602Y-79110331D01*
X179157842Y-79109665D01*
X179241115Y-79121962D01*
G37*
X179241115Y-79121962D02*
X179309145Y-79157733D01*
X179359351Y-79215301D01*
X179377185Y-79252312D01*
X179391063Y-79307882D01*
X179398167Y-79378096D01*
X179398840Y-79454727D01*
X179393427Y-79529552D01*
X179382270Y-79594342D01*
X179365714Y-79640873D01*
X179360626Y-79648887D01*
X179300355Y-79708707D01*
X179228769Y-79744535D01*
X179151092Y-79755020D01*
X179072548Y-79738810D01*
X179050689Y-79729092D01*
X179008122Y-79699143D01*
X178970763Y-79659433D01*
X178967232Y-79654397D01*
X178952881Y-79630124D01*
X178943394Y-79604178D01*
X178937790Y-79570022D01*
X178935086Y-79521119D01*
X178934299Y-79450935D01*
X178934286Y-79435200D01*
X178934322Y-79430192D01*
X179079429Y-79430192D01*
X179080273Y-79496430D01*
X179083596Y-79540386D01*
X179090583Y-79568779D01*
X179102416Y-79588325D01*
X179108457Y-79594857D01*
X179143186Y-79619680D01*
X179176903Y-79618548D01*
X179210995Y-79597016D01*
X179231329Y-79574029D01*
X179243371Y-79540478D01*
X179250134Y-79487569D01*
X179250598Y-79481399D01*
X179251752Y-79385513D01*
X179239688Y-79314299D01*
X179214570Y-79268194D01*
X179176560Y-79247635D01*
X179162992Y-79246514D01*
X179127364Y-79252152D01*
X179102994Y-79271686D01*
X179088093Y-79309042D01*
X179080875Y-79368150D01*
X179079429Y-79430192D01*
X178934322Y-79430192D01*
X178934826Y-79360413D01*
X178937096Y-79308159D01*
X178942068Y-79271949D01*
X178950713Y-79245299D01*
X178964005Y-79221722D01*
X178966943Y-79217338D01*
X179016313Y-79158249D01*
X179070109Y-79123947D01*
X179135602Y-79110331D01*
X179157842Y-79109665D01*
X179241115Y-79121962D01*
G36*
X180368303Y-79131239D02*
G01*
X180425527Y-79169735D01*
X180469749Y-79225335D01*
X180496167Y-79296086D01*
X180501510Y-79348162D01*
X180500903Y-79369893D01*
X180495822Y-79386531D01*
X180481855Y-79401437D01*
X180454589Y-79417973D01*
X180409612Y-79439498D01*
X180342511Y-79469374D01*
X180342171Y-79469524D01*
X180280407Y-79497813D01*
X180229759Y-79522933D01*
X180195404Y-79542179D01*
X180182518Y-79552848D01*
X180182514Y-79552934D01*
X180193872Y-79576166D01*
X180220431Y-79601774D01*
X180250923Y-79620221D01*
X180266370Y-79623886D01*
X180308515Y-79611212D01*
X180344808Y-79579471D01*
X180362517Y-79544572D01*
X180379552Y-79518845D01*
X180412922Y-79489546D01*
X180452149Y-79464235D01*
X180486756Y-79450471D01*
X180493993Y-79449714D01*
X180502139Y-79462160D01*
X180502630Y-79493972D01*
X180496643Y-79536866D01*
X180485357Y-79582558D01*
X180469950Y-79622761D01*
X180469171Y-79624322D01*
X180422804Y-79689062D01*
X180362711Y-79733097D01*
X180294465Y-79754711D01*
X180223638Y-79752185D01*
X180155804Y-79723804D01*
X180152788Y-79721808D01*
X180099427Y-79673448D01*
X180064340Y-79610352D01*
X180044922Y-79527387D01*
X180042316Y-79504078D01*
X180037701Y-79394055D01*
X180043233Y-79342748D01*
X180182514Y-79342748D01*
X180184324Y-79374753D01*
X180194222Y-79384093D01*
X180218898Y-79377105D01*
X180257795Y-79360587D01*
X180301275Y-79339881D01*
X180302356Y-79339333D01*
X180339209Y-79319949D01*
X180354000Y-79307013D01*
X180350353Y-79293451D01*
X180334995Y-79275632D01*
X180295923Y-79249845D01*
X180253846Y-79247950D01*
X180216103Y-79266717D01*
X180190034Y-79302915D01*
X180182514Y-79342748D01*
X180043233Y-79342748D01*
X180047194Y-79306027D01*
X180071550Y-79236212D01*
X180105456Y-79187302D01*
X180166653Y-79137878D01*
X180234063Y-79113359D01*
X180302880Y-79111797D01*
X180368303Y-79131239D01*
G37*
X180368303Y-79131239D02*
X180425527Y-79169735D01*
X180469749Y-79225335D01*
X180496167Y-79296086D01*
X180501510Y-79348162D01*
X180500903Y-79369893D01*
X180495822Y-79386531D01*
X180481855Y-79401437D01*
X180454589Y-79417973D01*
X180409612Y-79439498D01*
X180342511Y-79469374D01*
X180342171Y-79469524D01*
X180280407Y-79497813D01*
X180229759Y-79522933D01*
X180195404Y-79542179D01*
X180182518Y-79552848D01*
X180182514Y-79552934D01*
X180193872Y-79576166D01*
X180220431Y-79601774D01*
X180250923Y-79620221D01*
X180266370Y-79623886D01*
X180308515Y-79611212D01*
X180344808Y-79579471D01*
X180362517Y-79544572D01*
X180379552Y-79518845D01*
X180412922Y-79489546D01*
X180452149Y-79464235D01*
X180486756Y-79450471D01*
X180493993Y-79449714D01*
X180502139Y-79462160D01*
X180502630Y-79493972D01*
X180496643Y-79536866D01*
X180485357Y-79582558D01*
X180469950Y-79622761D01*
X180469171Y-79624322D01*
X180422804Y-79689062D01*
X180362711Y-79733097D01*
X180294465Y-79754711D01*
X180223638Y-79752185D01*
X180155804Y-79723804D01*
X180152788Y-79721808D01*
X180099427Y-79673448D01*
X180064340Y-79610352D01*
X180044922Y-79527387D01*
X180042316Y-79504078D01*
X180037701Y-79394055D01*
X180043233Y-79342748D01*
X180182514Y-79342748D01*
X180184324Y-79374753D01*
X180194222Y-79384093D01*
X180218898Y-79377105D01*
X180257795Y-79360587D01*
X180301275Y-79339881D01*
X180302356Y-79339333D01*
X180339209Y-79319949D01*
X180354000Y-79307013D01*
X180350353Y-79293451D01*
X180334995Y-79275632D01*
X180295923Y-79249845D01*
X180253846Y-79247950D01*
X180216103Y-79266717D01*
X180190034Y-79302915D01*
X180182514Y-79342748D01*
X180043233Y-79342748D01*
X180047194Y-79306027D01*
X180071550Y-79236212D01*
X180105456Y-79187302D01*
X180166653Y-79137878D01*
X180234063Y-79113359D01*
X180302880Y-79111797D01*
X180368303Y-79131239D01*
G36*
X181575886Y-79051289D02*
G01*
X181580139Y-79110613D01*
X181585025Y-79145572D01*
X181591795Y-79160820D01*
X181601702Y-79161015D01*
X181604914Y-79159195D01*
X181647644Y-79146015D01*
X181703227Y-79146785D01*
X181759737Y-79160333D01*
X181795082Y-79177861D01*
X181831321Y-79205861D01*
X181857813Y-79237549D01*
X181875999Y-79277813D01*
X181887322Y-79331543D01*
X181893222Y-79403626D01*
X181895143Y-79498951D01*
X181895177Y-79517237D01*
X181895200Y-79722646D01*
X181849491Y-79738580D01*
X181817027Y-79749420D01*
X181799215Y-79754468D01*
X181798691Y-79754514D01*
X181796937Y-79740828D01*
X181795444Y-79703076D01*
X181794326Y-79646224D01*
X181793697Y-79575234D01*
X181793600Y-79532073D01*
X181793398Y-79446973D01*
X181792358Y-79385981D01*
X181789831Y-79344177D01*
X181785164Y-79316642D01*
X181777707Y-79298456D01*
X181766811Y-79284698D01*
X181760007Y-79278073D01*
X181713272Y-79251375D01*
X181662272Y-79249375D01*
X181616001Y-79271955D01*
X181607444Y-79280107D01*
X181594893Y-79295436D01*
X181586188Y-79313618D01*
X181580631Y-79339909D01*
X181577526Y-79379562D01*
X181576176Y-79437832D01*
X181575886Y-79518173D01*
X181575886Y-79722646D01*
X181530177Y-79738580D01*
X181497713Y-79749420D01*
X181479901Y-79754468D01*
X181479377Y-79754514D01*
X181478037Y-79740623D01*
X181476828Y-79701439D01*
X181475801Y-79640700D01*
X181475002Y-79562141D01*
X181474481Y-79469498D01*
X181474286Y-79366509D01*
X181474286Y-78969342D01*
X181521457Y-78949444D01*
X181568629Y-78929547D01*
X181575886Y-79051289D01*
G37*
X181575886Y-79051289D02*
X181580139Y-79110613D01*
X181585025Y-79145572D01*
X181591795Y-79160820D01*
X181601702Y-79161015D01*
X181604914Y-79159195D01*
X181647644Y-79146015D01*
X181703227Y-79146785D01*
X181759737Y-79160333D01*
X181795082Y-79177861D01*
X181831321Y-79205861D01*
X181857813Y-79237549D01*
X181875999Y-79277813D01*
X181887322Y-79331543D01*
X181893222Y-79403626D01*
X181895143Y-79498951D01*
X181895177Y-79517237D01*
X181895200Y-79722646D01*
X181849491Y-79738580D01*
X181817027Y-79749420D01*
X181799215Y-79754468D01*
X181798691Y-79754514D01*
X181796937Y-79740828D01*
X181795444Y-79703076D01*
X181794326Y-79646224D01*
X181793697Y-79575234D01*
X181793600Y-79532073D01*
X181793398Y-79446973D01*
X181792358Y-79385981D01*
X181789831Y-79344177D01*
X181785164Y-79316642D01*
X181777707Y-79298456D01*
X181766811Y-79284698D01*
X181760007Y-79278073D01*
X181713272Y-79251375D01*
X181662272Y-79249375D01*
X181616001Y-79271955D01*
X181607444Y-79280107D01*
X181594893Y-79295436D01*
X181586188Y-79313618D01*
X181580631Y-79339909D01*
X181577526Y-79379562D01*
X181576176Y-79437832D01*
X181575886Y-79518173D01*
X181575886Y-79722646D01*
X181530177Y-79738580D01*
X181497713Y-79749420D01*
X181479901Y-79754468D01*
X181479377Y-79754514D01*
X181478037Y-79740623D01*
X181476828Y-79701439D01*
X181475801Y-79640700D01*
X181475002Y-79562141D01*
X181474481Y-79469498D01*
X181474286Y-79366509D01*
X181474286Y-78969342D01*
X181521457Y-78949444D01*
X181568629Y-78929547D01*
X181575886Y-79051289D01*
G36*
X182239744Y-79150968D02*
G01*
X182296616Y-79172087D01*
X182297267Y-79172493D01*
X182332440Y-79198380D01*
X182358407Y-79228633D01*
X182376670Y-79268058D01*
X182388732Y-79321462D01*
X182396096Y-79393651D01*
X182400264Y-79489432D01*
X182400629Y-79503078D01*
X182405876Y-79708842D01*
X182361716Y-79731678D01*
X182329763Y-79747110D01*
X182310470Y-79754423D01*
X182309578Y-79754514D01*
X182306239Y-79741022D01*
X182303587Y-79704626D01*
X182301956Y-79651452D01*
X182301600Y-79608393D01*
X182301592Y-79538641D01*
X182298403Y-79494837D01*
X182287288Y-79473944D01*
X182263501Y-79472925D01*
X182222296Y-79488741D01*
X182160086Y-79517815D01*
X182114341Y-79541963D01*
X182090813Y-79562913D01*
X182083896Y-79585747D01*
X182083886Y-79586877D01*
X182095299Y-79626212D01*
X182129092Y-79647462D01*
X182180809Y-79650539D01*
X182218061Y-79650006D01*
X182237703Y-79660735D01*
X182249952Y-79686505D01*
X182257002Y-79719337D01*
X182246842Y-79737966D01*
X182243017Y-79740632D01*
X182207001Y-79751340D01*
X182156566Y-79752856D01*
X182104626Y-79745759D01*
X182067822Y-79732788D01*
X182016938Y-79689585D01*
X181988014Y-79629446D01*
X181982286Y-79582462D01*
X181986657Y-79540082D01*
X182002475Y-79505488D01*
X182033797Y-79474763D01*
X182084678Y-79443990D01*
X182159176Y-79409252D01*
X182163714Y-79407288D01*
X182230821Y-79376287D01*
X182272232Y-79350862D01*
X182289981Y-79328014D01*
X182286107Y-79304745D01*
X182262643Y-79278056D01*
X182255627Y-79271914D01*
X182208630Y-79248100D01*
X182159933Y-79249103D01*
X182117522Y-79272451D01*
X182089384Y-79315675D01*
X182086769Y-79324160D01*
X182061308Y-79365308D01*
X182029001Y-79385128D01*
X181982286Y-79404770D01*
X181982286Y-79353950D01*
X181996496Y-79280082D01*
X182038675Y-79212327D01*
X182060624Y-79189661D01*
X182110517Y-79160569D01*
X182173967Y-79147400D01*
X182239744Y-79150968D01*
G37*
X182239744Y-79150968D02*
X182296616Y-79172087D01*
X182297267Y-79172493D01*
X182332440Y-79198380D01*
X182358407Y-79228633D01*
X182376670Y-79268058D01*
X182388732Y-79321462D01*
X182396096Y-79393651D01*
X182400264Y-79489432D01*
X182400629Y-79503078D01*
X182405876Y-79708842D01*
X182361716Y-79731678D01*
X182329763Y-79747110D01*
X182310470Y-79754423D01*
X182309578Y-79754514D01*
X182306239Y-79741022D01*
X182303587Y-79704626D01*
X182301956Y-79651452D01*
X182301600Y-79608393D01*
X182301592Y-79538641D01*
X182298403Y-79494837D01*
X182287288Y-79473944D01*
X182263501Y-79472925D01*
X182222296Y-79488741D01*
X182160086Y-79517815D01*
X182114341Y-79541963D01*
X182090813Y-79562913D01*
X182083896Y-79585747D01*
X182083886Y-79586877D01*
X182095299Y-79626212D01*
X182129092Y-79647462D01*
X182180809Y-79650539D01*
X182218061Y-79650006D01*
X182237703Y-79660735D01*
X182249952Y-79686505D01*
X182257002Y-79719337D01*
X182246842Y-79737966D01*
X182243017Y-79740632D01*
X182207001Y-79751340D01*
X182156566Y-79752856D01*
X182104626Y-79745759D01*
X182067822Y-79732788D01*
X182016938Y-79689585D01*
X181988014Y-79629446D01*
X181982286Y-79582462D01*
X181986657Y-79540082D01*
X182002475Y-79505488D01*
X182033797Y-79474763D01*
X182084678Y-79443990D01*
X182159176Y-79409252D01*
X182163714Y-79407288D01*
X182230821Y-79376287D01*
X182272232Y-79350862D01*
X182289981Y-79328014D01*
X182286107Y-79304745D01*
X182262643Y-79278056D01*
X182255627Y-79271914D01*
X182208630Y-79248100D01*
X182159933Y-79249103D01*
X182117522Y-79272451D01*
X182089384Y-79315675D01*
X182086769Y-79324160D01*
X182061308Y-79365308D01*
X182029001Y-79385128D01*
X181982286Y-79404770D01*
X181982286Y-79353950D01*
X181996496Y-79280082D01*
X182038675Y-79212327D01*
X182060624Y-79189661D01*
X182110517Y-79160569D01*
X182173967Y-79147400D01*
X182239744Y-79150968D01*
G36*
X182729926Y-79149755D02*
G01*
X182795858Y-79174084D01*
X182849273Y-79217117D01*
X182870164Y-79247409D01*
X182892939Y-79302994D01*
X182892466Y-79343186D01*
X182868562Y-79370217D01*
X182859717Y-79374813D01*
X182821530Y-79389144D01*
X182802028Y-79385472D01*
X182795422Y-79361407D01*
X182795086Y-79348114D01*
X182782992Y-79299210D01*
X182751471Y-79264999D01*
X182707659Y-79248476D01*
X182658695Y-79252634D01*
X182618894Y-79274227D01*
X182605450Y-79286544D01*
X182595921Y-79301487D01*
X182589485Y-79324075D01*
X182585317Y-79359328D01*
X182582597Y-79412266D01*
X182580502Y-79487907D01*
X182579960Y-79511857D01*
X182577981Y-79593790D01*
X182575731Y-79651455D01*
X182572357Y-79689608D01*
X182567006Y-79713004D01*
X182558824Y-79726398D01*
X182546959Y-79734545D01*
X182539362Y-79738144D01*
X182507102Y-79750452D01*
X182488111Y-79754514D01*
X182481836Y-79740948D01*
X182478006Y-79699934D01*
X182476600Y-79630999D01*
X182477598Y-79533669D01*
X182477908Y-79518657D01*
X182480101Y-79429859D01*
X182482693Y-79365019D01*
X182486382Y-79319067D01*
X182491864Y-79286935D01*
X182499835Y-79263553D01*
X182510993Y-79243852D01*
X182516830Y-79235410D01*
X182550296Y-79198057D01*
X182587727Y-79169003D01*
X182592309Y-79166467D01*
X182659426Y-79146443D01*
X182729926Y-79149755D01*
G37*
X182729926Y-79149755D02*
X182795858Y-79174084D01*
X182849273Y-79217117D01*
X182870164Y-79247409D01*
X182892939Y-79302994D01*
X182892466Y-79343186D01*
X182868562Y-79370217D01*
X182859717Y-79374813D01*
X182821530Y-79389144D01*
X182802028Y-79385472D01*
X182795422Y-79361407D01*
X182795086Y-79348114D01*
X182782992Y-79299210D01*
X182751471Y-79264999D01*
X182707659Y-79248476D01*
X182658695Y-79252634D01*
X182618894Y-79274227D01*
X182605450Y-79286544D01*
X182595921Y-79301487D01*
X182589485Y-79324075D01*
X182585317Y-79359328D01*
X182582597Y-79412266D01*
X182580502Y-79487907D01*
X182579960Y-79511857D01*
X182577981Y-79593790D01*
X182575731Y-79651455D01*
X182572357Y-79689608D01*
X182567006Y-79713004D01*
X182558824Y-79726398D01*
X182546959Y-79734545D01*
X182539362Y-79738144D01*
X182507102Y-79750452D01*
X182488111Y-79754514D01*
X182481836Y-79740948D01*
X182478006Y-79699934D01*
X182476600Y-79630999D01*
X182477598Y-79533669D01*
X182477908Y-79518657D01*
X182480101Y-79429859D01*
X182482693Y-79365019D01*
X182486382Y-79319067D01*
X182491864Y-79286935D01*
X182499835Y-79263553D01*
X182510993Y-79243852D01*
X182516830Y-79235410D01*
X182550296Y-79198057D01*
X182587727Y-79169003D01*
X182592309Y-79166467D01*
X182659426Y-79146443D01*
X182729926Y-79149755D01*
G36*
X183390117Y-79265358D02*
G01*
X183389933Y-79373837D01*
X183389219Y-79457287D01*
X183387675Y-79519704D01*
X183385001Y-79565085D01*
X183380894Y-79597429D01*
X183375055Y-79620733D01*
X183367182Y-79638995D01*
X183361221Y-79649418D01*
X183311855Y-79705945D01*
X183249264Y-79741377D01*
X183180013Y-79754090D01*
X183110668Y-79742463D01*
X183069375Y-79721568D01*
X183026025Y-79685422D01*
X182996481Y-79641276D01*
X182978655Y-79583462D01*
X182970463Y-79506313D01*
X182969302Y-79449714D01*
X182969458Y-79445647D01*
X183070857Y-79445647D01*
X183071476Y-79510550D01*
X183074314Y-79553514D01*
X183080840Y-79581622D01*
X183092523Y-79601953D01*
X183106483Y-79617288D01*
X183153365Y-79646890D01*
X183203701Y-79649419D01*
X183251276Y-79624705D01*
X183254979Y-79621356D01*
X183270783Y-79603935D01*
X183280693Y-79583209D01*
X183286058Y-79552362D01*
X183288228Y-79504577D01*
X183288571Y-79451748D01*
X183287827Y-79385381D01*
X183284748Y-79341106D01*
X183278061Y-79312009D01*
X183266496Y-79291173D01*
X183257013Y-79280107D01*
X183212960Y-79252198D01*
X183162224Y-79248843D01*
X183113796Y-79270159D01*
X183104450Y-79278073D01*
X183088540Y-79295647D01*
X183078610Y-79316587D01*
X183073278Y-79347782D01*
X183071163Y-79396122D01*
X183070857Y-79445647D01*
X182969458Y-79445647D01*
X182972810Y-79358568D01*
X182984726Y-79290086D01*
X183007135Y-79238600D01*
X183042124Y-79198443D01*
X183069375Y-79177861D01*
X183118907Y-79155625D01*
X183176316Y-79145304D01*
X183229682Y-79148067D01*
X183259543Y-79159212D01*
X183271261Y-79162383D01*
X183279037Y-79150557D01*
X183284465Y-79118866D01*
X183288571Y-79070593D01*
X183293067Y-79016829D01*
X183299313Y-78984482D01*
X183310676Y-78965985D01*
X183330528Y-78953770D01*
X183343000Y-78948362D01*
X183390171Y-78928601D01*
X183390117Y-79265358D01*
G37*
X183390117Y-79265358D02*
X183389933Y-79373837D01*
X183389219Y-79457287D01*
X183387675Y-79519704D01*
X183385001Y-79565085D01*
X183380894Y-79597429D01*
X183375055Y-79620733D01*
X183367182Y-79638995D01*
X183361221Y-79649418D01*
X183311855Y-79705945D01*
X183249264Y-79741377D01*
X183180013Y-79754090D01*
X183110668Y-79742463D01*
X183069375Y-79721568D01*
X183026025Y-79685422D01*
X182996481Y-79641276D01*
X182978655Y-79583462D01*
X182970463Y-79506313D01*
X182969302Y-79449714D01*
X182969458Y-79445647D01*
X183070857Y-79445647D01*
X183071476Y-79510550D01*
X183074314Y-79553514D01*
X183080840Y-79581622D01*
X183092523Y-79601953D01*
X183106483Y-79617288D01*
X183153365Y-79646890D01*
X183203701Y-79649419D01*
X183251276Y-79624705D01*
X183254979Y-79621356D01*
X183270783Y-79603935D01*
X183280693Y-79583209D01*
X183286058Y-79552362D01*
X183288228Y-79504577D01*
X183288571Y-79451748D01*
X183287827Y-79385381D01*
X183284748Y-79341106D01*
X183278061Y-79312009D01*
X183266496Y-79291173D01*
X183257013Y-79280107D01*
X183212960Y-79252198D01*
X183162224Y-79248843D01*
X183113796Y-79270159D01*
X183104450Y-79278073D01*
X183088540Y-79295647D01*
X183078610Y-79316587D01*
X183073278Y-79347782D01*
X183071163Y-79396122D01*
X183070857Y-79445647D01*
X182969458Y-79445647D01*
X182972810Y-79358568D01*
X182984726Y-79290086D01*
X183007135Y-79238600D01*
X183042124Y-79198443D01*
X183069375Y-79177861D01*
X183118907Y-79155625D01*
X183176316Y-79145304D01*
X183229682Y-79148067D01*
X183259543Y-79159212D01*
X183271261Y-79162383D01*
X183279037Y-79150557D01*
X183284465Y-79118866D01*
X183288571Y-79070593D01*
X183293067Y-79016829D01*
X183299313Y-78984482D01*
X183310676Y-78965985D01*
X183330528Y-78953770D01*
X183343000Y-78948362D01*
X183390171Y-78928601D01*
X183390117Y-79265358D01*
G36*
X183979833Y-79158663D02*
G01*
X183982048Y-79196850D01*
X183983784Y-79254886D01*
X183984899Y-79328180D01*
X183985257Y-79405055D01*
X183985257Y-79665196D01*
X183939326Y-79711127D01*
X183907675Y-79739429D01*
X183879890Y-79750893D01*
X183841915Y-79750168D01*
X183826840Y-79748321D01*
X183779726Y-79742948D01*
X183740756Y-79739869D01*
X183731257Y-79739585D01*
X183699233Y-79741445D01*
X183653432Y-79746114D01*
X183635674Y-79748321D01*
X183592057Y-79751735D01*
X183562745Y-79744320D01*
X183533680Y-79721427D01*
X183523188Y-79711127D01*
X183477257Y-79665196D01*
X183477257Y-79178602D01*
X183514226Y-79161758D01*
X183546059Y-79149282D01*
X183564683Y-79144914D01*
X183569458Y-79158718D01*
X183573921Y-79197286D01*
X183577775Y-79256356D01*
X183580722Y-79331663D01*
X183582143Y-79395286D01*
X183586114Y-79645657D01*
X183620759Y-79650556D01*
X183652268Y-79647131D01*
X183667708Y-79636041D01*
X183672023Y-79615308D01*
X183675708Y-79571145D01*
X183678469Y-79509146D01*
X183680012Y-79434909D01*
X183680235Y-79396706D01*
X183680457Y-79176783D01*
X183726166Y-79160849D01*
X183758518Y-79150015D01*
X183776115Y-79144962D01*
X183776623Y-79144914D01*
X183778388Y-79158648D01*
X183780329Y-79196730D01*
X183782282Y-79254482D01*
X183784084Y-79327227D01*
X183785343Y-79395286D01*
X183789314Y-79645657D01*
X183876400Y-79645657D01*
X183880396Y-79417240D01*
X183884392Y-79188822D01*
X183926847Y-79166868D01*
X183958192Y-79151793D01*
X183976744Y-79144951D01*
X183977279Y-79144914D01*
X183979833Y-79158663D01*
G37*
X183979833Y-79158663D02*
X183982048Y-79196850D01*
X183983784Y-79254886D01*
X183984899Y-79328180D01*
X183985257Y-79405055D01*
X183985257Y-79665196D01*
X183939326Y-79711127D01*
X183907675Y-79739429D01*
X183879890Y-79750893D01*
X183841915Y-79750168D01*
X183826840Y-79748321D01*
X183779726Y-79742948D01*
X183740756Y-79739869D01*
X183731257Y-79739585D01*
X183699233Y-79741445D01*
X183653432Y-79746114D01*
X183635674Y-79748321D01*
X183592057Y-79751735D01*
X183562745Y-79744320D01*
X183533680Y-79721427D01*
X183523188Y-79711127D01*
X183477257Y-79665196D01*
X183477257Y-79178602D01*
X183514226Y-79161758D01*
X183546059Y-79149282D01*
X183564683Y-79144914D01*
X183569458Y-79158718D01*
X183573921Y-79197286D01*
X183577775Y-79256356D01*
X183580722Y-79331663D01*
X183582143Y-79395286D01*
X183586114Y-79645657D01*
X183620759Y-79650556D01*
X183652268Y-79647131D01*
X183667708Y-79636041D01*
X183672023Y-79615308D01*
X183675708Y-79571145D01*
X183678469Y-79509146D01*
X183680012Y-79434909D01*
X183680235Y-79396706D01*
X183680457Y-79176783D01*
X183726166Y-79160849D01*
X183758518Y-79150015D01*
X183776115Y-79144962D01*
X183776623Y-79144914D01*
X183778388Y-79158648D01*
X183780329Y-79196730D01*
X183782282Y-79254482D01*
X183784084Y-79327227D01*
X183785343Y-79395286D01*
X183789314Y-79645657D01*
X183876400Y-79645657D01*
X183880396Y-79417240D01*
X183884392Y-79188822D01*
X183926847Y-79166868D01*
X183958192Y-79151793D01*
X183976744Y-79144951D01*
X183977279Y-79144914D01*
X183979833Y-79158663D01*
G36*
X184344876Y-79156335D02*
G01*
X184386667Y-79175344D01*
X184419469Y-79198378D01*
X184443503Y-79224133D01*
X184460097Y-79257358D01*
X184470577Y-79302800D01*
X184476271Y-79365207D01*
X184478507Y-79449327D01*
X184478743Y-79504721D01*
X184478743Y-79720826D01*
X184441774Y-79737670D01*
X184412656Y-79749981D01*
X184398231Y-79754514D01*
X184395472Y-79741025D01*
X184393282Y-79704653D01*
X184391942Y-79651542D01*
X184391657Y-79609372D01*
X184390434Y-79548447D01*
X184387136Y-79500115D01*
X184382321Y-79470518D01*
X184378496Y-79464229D01*
X184352783Y-79470652D01*
X184312418Y-79487125D01*
X184265679Y-79509458D01*
X184220845Y-79533457D01*
X184186193Y-79554930D01*
X184170002Y-79569685D01*
X184169938Y-79569845D01*
X184171330Y-79597152D01*
X184183818Y-79623219D01*
X184205743Y-79644392D01*
X184237743Y-79651474D01*
X184265092Y-79650649D01*
X184303826Y-79650042D01*
X184324158Y-79659116D01*
X184336369Y-79683092D01*
X184337909Y-79687613D01*
X184343203Y-79721806D01*
X184329047Y-79742568D01*
X184292148Y-79752462D01*
X184252289Y-79754292D01*
X184180562Y-79740727D01*
X184143432Y-79721355D01*
X184097576Y-79675845D01*
X184073256Y-79619983D01*
X184071073Y-79560957D01*
X184091629Y-79505953D01*
X184122549Y-79471486D01*
X184153420Y-79452189D01*
X184201942Y-79427759D01*
X184258485Y-79402985D01*
X184267910Y-79399199D01*
X184330019Y-79371791D01*
X184365822Y-79347634D01*
X184377337Y-79323619D01*
X184366580Y-79296635D01*
X184348114Y-79275543D01*
X184304469Y-79249572D01*
X184256446Y-79247624D01*
X184212406Y-79267637D01*
X184180709Y-79307551D01*
X184176549Y-79317848D01*
X184152327Y-79355724D01*
X184116965Y-79383842D01*
X184072343Y-79406917D01*
X184072343Y-79341485D01*
X184074969Y-79301506D01*
X184086230Y-79269997D01*
X184111199Y-79236378D01*
X184135169Y-79210484D01*
X184172441Y-79173817D01*
X184201401Y-79154121D01*
X184232505Y-79146220D01*
X184267713Y-79144914D01*
X184344876Y-79156335D01*
G37*
X184344876Y-79156335D02*
X184386667Y-79175344D01*
X184419469Y-79198378D01*
X184443503Y-79224133D01*
X184460097Y-79257358D01*
X184470577Y-79302800D01*
X184476271Y-79365207D01*
X184478507Y-79449327D01*
X184478743Y-79504721D01*
X184478743Y-79720826D01*
X184441774Y-79737670D01*
X184412656Y-79749981D01*
X184398231Y-79754514D01*
X184395472Y-79741025D01*
X184393282Y-79704653D01*
X184391942Y-79651542D01*
X184391657Y-79609372D01*
X184390434Y-79548447D01*
X184387136Y-79500115D01*
X184382321Y-79470518D01*
X184378496Y-79464229D01*
X184352783Y-79470652D01*
X184312418Y-79487125D01*
X184265679Y-79509458D01*
X184220845Y-79533457D01*
X184186193Y-79554930D01*
X184170002Y-79569685D01*
X184169938Y-79569845D01*
X184171330Y-79597152D01*
X184183818Y-79623219D01*
X184205743Y-79644392D01*
X184237743Y-79651474D01*
X184265092Y-79650649D01*
X184303826Y-79650042D01*
X184324158Y-79659116D01*
X184336369Y-79683092D01*
X184337909Y-79687613D01*
X184343203Y-79721806D01*
X184329047Y-79742568D01*
X184292148Y-79752462D01*
X184252289Y-79754292D01*
X184180562Y-79740727D01*
X184143432Y-79721355D01*
X184097576Y-79675845D01*
X184073256Y-79619983D01*
X184071073Y-79560957D01*
X184091629Y-79505953D01*
X184122549Y-79471486D01*
X184153420Y-79452189D01*
X184201942Y-79427759D01*
X184258485Y-79402985D01*
X184267910Y-79399199D01*
X184330019Y-79371791D01*
X184365822Y-79347634D01*
X184377337Y-79323619D01*
X184366580Y-79296635D01*
X184348114Y-79275543D01*
X184304469Y-79249572D01*
X184256446Y-79247624D01*
X184212406Y-79267637D01*
X184180709Y-79307551D01*
X184176549Y-79317848D01*
X184152327Y-79355724D01*
X184116965Y-79383842D01*
X184072343Y-79406917D01*
X184072343Y-79341485D01*
X184074969Y-79301506D01*
X184086230Y-79269997D01*
X184111199Y-79236378D01*
X184135169Y-79210484D01*
X184172441Y-79173817D01*
X184201401Y-79154121D01*
X184232505Y-79146220D01*
X184267713Y-79144914D01*
X184344876Y-79156335D01*
G36*
X184852600Y-79158752D02*
G01*
X184869948Y-79166334D01*
X184911356Y-79199128D01*
X184946765Y-79246547D01*
X184968664Y-79297151D01*
X184972229Y-79322098D01*
X184960279Y-79356927D01*
X184934067Y-79375357D01*
X184905964Y-79386516D01*
X184893095Y-79388572D01*
X184886829Y-79373649D01*
X184874456Y-79341175D01*
X184869028Y-79326502D01*
X184838590Y-79275744D01*
X184794520Y-79250427D01*
X184738010Y-79251206D01*
X184733825Y-79252203D01*
X184703655Y-79266507D01*
X184681476Y-79294393D01*
X184666327Y-79339287D01*
X184657250Y-79404615D01*
X184653286Y-79493804D01*
X184652914Y-79541261D01*
X184652730Y-79616071D01*
X184651522Y-79667069D01*
X184648309Y-79699471D01*
X184642109Y-79718495D01*
X184631940Y-79729356D01*
X184616819Y-79737272D01*
X184615946Y-79737670D01*
X184586828Y-79749981D01*
X184572403Y-79754514D01*
X184570186Y-79740809D01*
X184568289Y-79702925D01*
X184566847Y-79645715D01*
X184565998Y-79574027D01*
X184565829Y-79521565D01*
X184566692Y-79420047D01*
X184570070Y-79343032D01*
X184577142Y-79286023D01*
X184589088Y-79244526D01*
X184607090Y-79214043D01*
X184632327Y-79190080D01*
X184657247Y-79173355D01*
X184717171Y-79151097D01*
X184786911Y-79146076D01*
X184852600Y-79158752D01*
G37*
X184852600Y-79158752D02*
X184869948Y-79166334D01*
X184911356Y-79199128D01*
X184946765Y-79246547D01*
X184968664Y-79297151D01*
X184972229Y-79322098D01*
X184960279Y-79356927D01*
X184934067Y-79375357D01*
X184905964Y-79386516D01*
X184893095Y-79388572D01*
X184886829Y-79373649D01*
X184874456Y-79341175D01*
X184869028Y-79326502D01*
X184838590Y-79275744D01*
X184794520Y-79250427D01*
X184738010Y-79251206D01*
X184733825Y-79252203D01*
X184703655Y-79266507D01*
X184681476Y-79294393D01*
X184666327Y-79339287D01*
X184657250Y-79404615D01*
X184653286Y-79493804D01*
X184652914Y-79541261D01*
X184652730Y-79616071D01*
X184651522Y-79667069D01*
X184648309Y-79699471D01*
X184642109Y-79718495D01*
X184631940Y-79729356D01*
X184616819Y-79737272D01*
X184615946Y-79737670D01*
X184586828Y-79749981D01*
X184572403Y-79754514D01*
X184570186Y-79740809D01*
X184568289Y-79702925D01*
X184566847Y-79645715D01*
X184565998Y-79574027D01*
X184565829Y-79521565D01*
X184566692Y-79420047D01*
X184570070Y-79343032D01*
X184577142Y-79286023D01*
X184589088Y-79244526D01*
X184607090Y-79214043D01*
X184632327Y-79190080D01*
X184657247Y-79173355D01*
X184717171Y-79151097D01*
X184786911Y-79146076D01*
X184852600Y-79158752D01*
G36*
X185353595Y-79166966D02*
G01*
X185411021Y-79204497D01*
X185438719Y-79238096D01*
X185460662Y-79299064D01*
X185462405Y-79347308D01*
X185458457Y-79411816D01*
X185309686Y-79476934D01*
X185237349Y-79510202D01*
X185190084Y-79536964D01*
X185165507Y-79560144D01*
X185161237Y-79582667D01*
X185174889Y-79607455D01*
X185189943Y-79623886D01*
X185233746Y-79650235D01*
X185281389Y-79652081D01*
X185325145Y-79631546D01*
X185357289Y-79590752D01*
X185363038Y-79576347D01*
X185390576Y-79531356D01*
X185422258Y-79512182D01*
X185465714Y-79495779D01*
X185465714Y-79557966D01*
X185461872Y-79600283D01*
X185446823Y-79635969D01*
X185415280Y-79676943D01*
X185410592Y-79682267D01*
X185375506Y-79718720D01*
X185345347Y-79738283D01*
X185307615Y-79747283D01*
X185276335Y-79750230D01*
X185220385Y-79750965D01*
X185180555Y-79741660D01*
X185155708Y-79727846D01*
X185116656Y-79697467D01*
X185089625Y-79664613D01*
X185072517Y-79623294D01*
X185063238Y-79567521D01*
X185059693Y-79491305D01*
X185059410Y-79452622D01*
X185060372Y-79406247D01*
X185148007Y-79406247D01*
X185149023Y-79431126D01*
X185151556Y-79435200D01*
X185168274Y-79429665D01*
X185204249Y-79415017D01*
X185252331Y-79394190D01*
X185262386Y-79389714D01*
X185323152Y-79358814D01*
X185356632Y-79331657D01*
X185363990Y-79306220D01*
X185346391Y-79280481D01*
X185331856Y-79269109D01*
X185279410Y-79246364D01*
X185230322Y-79250122D01*
X185189227Y-79277884D01*
X185160758Y-79327152D01*
X185151631Y-79366257D01*
X185148007Y-79406247D01*
X185060372Y-79406247D01*
X185061285Y-79362249D01*
X185068196Y-79295384D01*
X185081884Y-79246695D01*
X185104096Y-79210849D01*
X185136574Y-79182513D01*
X185150733Y-79173355D01*
X185215053Y-79149507D01*
X185285473Y-79148006D01*
X185353595Y-79166966D01*
G37*
X185353595Y-79166966D02*
X185411021Y-79204497D01*
X185438719Y-79238096D01*
X185460662Y-79299064D01*
X185462405Y-79347308D01*
X185458457Y-79411816D01*
X185309686Y-79476934D01*
X185237349Y-79510202D01*
X185190084Y-79536964D01*
X185165507Y-79560144D01*
X185161237Y-79582667D01*
X185174889Y-79607455D01*
X185189943Y-79623886D01*
X185233746Y-79650235D01*
X185281389Y-79652081D01*
X185325145Y-79631546D01*
X185357289Y-79590752D01*
X185363038Y-79576347D01*
X185390576Y-79531356D01*
X185422258Y-79512182D01*
X185465714Y-79495779D01*
X185465714Y-79557966D01*
X185461872Y-79600283D01*
X185446823Y-79635969D01*
X185415280Y-79676943D01*
X185410592Y-79682267D01*
X185375506Y-79718720D01*
X185345347Y-79738283D01*
X185307615Y-79747283D01*
X185276335Y-79750230D01*
X185220385Y-79750965D01*
X185180555Y-79741660D01*
X185155708Y-79727846D01*
X185116656Y-79697467D01*
X185089625Y-79664613D01*
X185072517Y-79623294D01*
X185063238Y-79567521D01*
X185059693Y-79491305D01*
X185059410Y-79452622D01*
X185060372Y-79406247D01*
X185148007Y-79406247D01*
X185149023Y-79431126D01*
X185151556Y-79435200D01*
X185168274Y-79429665D01*
X185204249Y-79415017D01*
X185252331Y-79394190D01*
X185262386Y-79389714D01*
X185323152Y-79358814D01*
X185356632Y-79331657D01*
X185363990Y-79306220D01*
X185346391Y-79280481D01*
X185331856Y-79269109D01*
X185279410Y-79246364D01*
X185230322Y-79250122D01*
X185189227Y-79277884D01*
X185160758Y-79327152D01*
X185151631Y-79366257D01*
X185148007Y-79406247D01*
X185060372Y-79406247D01*
X185061285Y-79362249D01*
X185068196Y-79295384D01*
X185081884Y-79246695D01*
X185104096Y-79210849D01*
X185136574Y-79182513D01*
X185150733Y-79173355D01*
X185215053Y-79149507D01*
X185285473Y-79148006D01*
X185353595Y-79166966D01*
G36*
X182303910Y-74442348D02*
G01*
X182382454Y-74442778D01*
X182439298Y-74443942D01*
X182478105Y-74446207D01*
X182502538Y-74449940D01*
X182516262Y-74455506D01*
X182522940Y-74463273D01*
X182526236Y-74473605D01*
X182526556Y-74474943D01*
X182531562Y-74499079D01*
X182540829Y-74546701D01*
X182553392Y-74612741D01*
X182568287Y-74692128D01*
X182584551Y-74779796D01*
X182585119Y-74782875D01*
X182601410Y-74868789D01*
X182616652Y-74944696D01*
X182629861Y-75006045D01*
X182640054Y-75048282D01*
X182646248Y-75066855D01*
X182646543Y-75067184D01*
X182664788Y-75076253D01*
X182702405Y-75091367D01*
X182751271Y-75109262D01*
X182751543Y-75109358D01*
X182813093Y-75132493D01*
X182885657Y-75161965D01*
X182954057Y-75191597D01*
X182957294Y-75193062D01*
X183068702Y-75243626D01*
X183315399Y-75075160D01*
X183391077Y-75023803D01*
X183459631Y-74977889D01*
X183517088Y-74940030D01*
X183559476Y-74912837D01*
X183582825Y-74898921D01*
X183585042Y-74897889D01*
X183602010Y-74902484D01*
X183633701Y-74924655D01*
X183681352Y-74965447D01*
X183746198Y-75025905D01*
X183812397Y-75090227D01*
X183876214Y-75153612D01*
X183933329Y-75211451D01*
X183980305Y-75260175D01*
X184013703Y-75296210D01*
X184030085Y-75315984D01*
X184030694Y-75317002D01*
X184032505Y-75330572D01*
X184025683Y-75352733D01*
X184008540Y-75386478D01*
X183979393Y-75434800D01*
X183936555Y-75500692D01*
X183879448Y-75585517D01*
X183828766Y-75660177D01*
X183783461Y-75727140D01*
X183746150Y-75782516D01*
X183719452Y-75822420D01*
X183705985Y-75842962D01*
X183705137Y-75844356D01*
X183706781Y-75864038D01*
X183719245Y-75902293D01*
X183740048Y-75951889D01*
X183747462Y-75967728D01*
X183779814Y-76038290D01*
X183814328Y-76118353D01*
X183842365Y-76187629D01*
X183862568Y-76239045D01*
X183878615Y-76278119D01*
X183887888Y-76298541D01*
X183889041Y-76300114D01*
X183906096Y-76302721D01*
X183946298Y-76309863D01*
X184004302Y-76320523D01*
X184074763Y-76333685D01*
X184152335Y-76348333D01*
X184231672Y-76363449D01*
X184307431Y-76378018D01*
X184374264Y-76391022D01*
X184426828Y-76401445D01*
X184459776Y-76408270D01*
X184467857Y-76410199D01*
X184476205Y-76414962D01*
X184482506Y-76425718D01*
X184487045Y-76446098D01*
X184490104Y-76479734D01*
X184491967Y-76530255D01*
X184492918Y-76601292D01*
X184493240Y-76696476D01*
X184493257Y-76735492D01*
X184493257Y-77052799D01*
X184417057Y-77067839D01*
X184374663Y-77075995D01*
X184311400Y-77087899D01*
X184234962Y-77102116D01*
X184153043Y-77117210D01*
X184130400Y-77121355D01*
X184054806Y-77136053D01*
X183988953Y-77150505D01*
X183938366Y-77163375D01*
X183908574Y-77173322D01*
X183903612Y-77176287D01*
X183891426Y-77197283D01*
X183873953Y-77237967D01*
X183854577Y-77290322D01*
X183850734Y-77301600D01*
X183825339Y-77371523D01*
X183793817Y-77450418D01*
X183762969Y-77521266D01*
X183762817Y-77521595D01*
X183711447Y-77632733D01*
X183880399Y-77881253D01*
X184049352Y-78129772D01*
X183832429Y-78347058D01*
X183766819Y-78411726D01*
X183706979Y-78468733D01*
X183656267Y-78515033D01*
X183618046Y-78547584D01*
X183595675Y-78563343D01*
X183592466Y-78564343D01*
X183573626Y-78556469D01*
X183535180Y-78534578D01*
X183481330Y-78501267D01*
X183416276Y-78459131D01*
X183345940Y-78411943D01*
X183274555Y-78363810D01*
X183210908Y-78321928D01*
X183159041Y-78288871D01*
X183122995Y-78267218D01*
X183106867Y-78259543D01*
X183087189Y-78266037D01*
X183049875Y-78283150D01*
X183002621Y-78307326D01*
X182997612Y-78310013D01*
X182933977Y-78341927D01*
X182890341Y-78357579D01*
X182863202Y-78357745D01*
X182849057Y-78343204D01*
X182848975Y-78343000D01*
X182841905Y-78325779D01*
X182825042Y-78284899D01*
X182799695Y-78223525D01*
X182767171Y-78144819D01*
X182728778Y-78051947D01*
X182685822Y-77948072D01*
X182644222Y-77847502D01*
X182598504Y-77736516D01*
X182556526Y-77633703D01*
X182519548Y-77542215D01*
X182488827Y-77465201D01*
X182465622Y-77405815D01*
X182451190Y-77367209D01*
X182446743Y-77352800D01*
X182457896Y-77336272D01*
X182487069Y-77309930D01*
X182525971Y-77280887D01*
X182636757Y-77189039D01*
X182723351Y-77083759D01*
X182784716Y-76967266D01*
X182819815Y-76841776D01*
X182827608Y-76709507D01*
X182821943Y-76648457D01*
X182791078Y-76521795D01*
X182737920Y-76409941D01*
X182665767Y-76314001D01*
X182577917Y-76235076D01*
X182477665Y-76174270D01*
X182368310Y-76132687D01*
X182253147Y-76111428D01*
X182135475Y-76111599D01*
X182018590Y-76134301D01*
X181905789Y-76180638D01*
X181800369Y-76251713D01*
X181756368Y-76291911D01*
X181671979Y-76395129D01*
X181613222Y-76507925D01*
X181579704Y-76627010D01*
X181571035Y-76749095D01*
X181586823Y-76870893D01*
X181626678Y-76989116D01*
X181690207Y-77100475D01*
X181777021Y-77201684D01*
X181874029Y-77280887D01*
X181914437Y-77311162D01*
X181942982Y-77337219D01*
X181953257Y-77352825D01*
X181947877Y-77369843D01*
X181932575Y-77410500D01*
X181908612Y-77471642D01*
X181877244Y-77550119D01*
X181839732Y-77642780D01*
X181797333Y-77746472D01*
X181755663Y-77847526D01*
X181709690Y-77958607D01*
X181667107Y-78061541D01*
X181629221Y-78153165D01*
X181597340Y-78230316D01*
X181572771Y-78289831D01*
X181556820Y-78328544D01*
X181550910Y-78343000D01*
X181536948Y-78357685D01*
X181509940Y-78357642D01*
X181466413Y-78342099D01*
X181402890Y-78310284D01*
X181402388Y-78310013D01*
X181354560Y-78285323D01*
X181315897Y-78267338D01*
X181294095Y-78259614D01*
X181293133Y-78259543D01*
X181276721Y-78267378D01*
X181240487Y-78289165D01*
X181188474Y-78322328D01*
X181124725Y-78364291D01*
X181054060Y-78411943D01*
X180982116Y-78460191D01*
X180917274Y-78502151D01*
X180863735Y-78535227D01*
X180825697Y-78556821D01*
X180807533Y-78564343D01*
X180790808Y-78554457D01*
X180757180Y-78526826D01*
X180710010Y-78484495D01*
X180652658Y-78430505D01*
X180588484Y-78367899D01*
X180567497Y-78346983D01*
X180350499Y-78129623D01*
X180515668Y-77887220D01*
X180565864Y-77812781D01*
X180609919Y-77745972D01*
X180645362Y-77690665D01*
X180669719Y-77650729D01*
X180680522Y-77630036D01*
X180680838Y-77628563D01*
X180675143Y-77609058D01*
X180659826Y-77569822D01*
X180637537Y-77517430D01*
X180621893Y-77482355D01*
X180592641Y-77415201D01*
X180565094Y-77347358D01*
X180543737Y-77290034D01*
X180537935Y-77272572D01*
X180521452Y-77225938D01*
X180505340Y-77189905D01*
X180496490Y-77176287D01*
X180476960Y-77167952D01*
X180434334Y-77156137D01*
X180374145Y-77142181D01*
X180301922Y-77127422D01*
X180269600Y-77121355D01*
X180187522Y-77106273D01*
X180108795Y-77091669D01*
X180041109Y-77078980D01*
X179992160Y-77069642D01*
X179982943Y-77067839D01*
X179906743Y-77052799D01*
X179906743Y-76735492D01*
X179906914Y-76631154D01*
X179907616Y-76552213D01*
X179909134Y-76495038D01*
X179911749Y-76455999D01*
X179915746Y-76431465D01*
X179921409Y-76417805D01*
X179929020Y-76411389D01*
X179932143Y-76410199D01*
X179950978Y-76405980D01*
X179992588Y-76397562D01*
X180051630Y-76385961D01*
X180122757Y-76372195D01*
X180200625Y-76357280D01*
X180279887Y-76342232D01*
X180355198Y-76328069D01*
X180421213Y-76315806D01*
X180472587Y-76306461D01*
X180503975Y-76301050D01*
X180510959Y-76300114D01*
X180517285Y-76287596D01*
X180531290Y-76254246D01*
X180550355Y-76206377D01*
X180557634Y-76187629D01*
X180586996Y-76115195D01*
X180621571Y-76035170D01*
X180652537Y-75967728D01*
X180675323Y-75916159D01*
X180690482Y-75873785D01*
X180695542Y-75847834D01*
X180694736Y-75844356D01*
X180684041Y-75827936D01*
X180659620Y-75791417D01*
X180624095Y-75738687D01*
X180580087Y-75673635D01*
X180530217Y-75600151D01*
X180520356Y-75585645D01*
X180462492Y-75499704D01*
X180419956Y-75434261D01*
X180391054Y-75386304D01*
X180374090Y-75352820D01*
X180367367Y-75330795D01*
X180369190Y-75317217D01*
X180369236Y-75317131D01*
X180383586Y-75299297D01*
X180415323Y-75264817D01*
X180461010Y-75217268D01*
X180517204Y-75160222D01*
X180580468Y-75097255D01*
X180587602Y-75090227D01*
X180667330Y-75013020D01*
X180728857Y-74956330D01*
X180773421Y-74919110D01*
X180802257Y-74900315D01*
X180814958Y-74897889D01*
X180833494Y-74908471D01*
X180871961Y-74932916D01*
X180926386Y-74968612D01*
X180992798Y-75012947D01*
X181067225Y-75063311D01*
X181084601Y-75075160D01*
X181331297Y-75243626D01*
X181442706Y-75193062D01*
X181510457Y-75163595D01*
X181583183Y-75133959D01*
X181645703Y-75110330D01*
X181648457Y-75109358D01*
X181697360Y-75091457D01*
X181735057Y-75076320D01*
X181753425Y-75067210D01*
X181753456Y-75067184D01*
X181759285Y-75050717D01*
X181769192Y-75010219D01*
X181782195Y-74950242D01*
X181797309Y-74875340D01*
X181813552Y-74790064D01*
X181814881Y-74782875D01*
X181831175Y-74695014D01*
X181846133Y-74615260D01*
X181858791Y-74548681D01*
X181868186Y-74500347D01*
X181873354Y-74475325D01*
X181873444Y-74474943D01*
X181876589Y-74464299D01*
X181882704Y-74456262D01*
X181895453Y-74450467D01*
X181918500Y-74446547D01*
X181955509Y-74444135D01*
X182010144Y-74442865D01*
X182086067Y-74442371D01*
X182186944Y-74442286D01*
X182200000Y-74442286D01*
X182303910Y-74442348D01*
G37*
X182303910Y-74442348D02*
X182382454Y-74442778D01*
X182439298Y-74443942D01*
X182478105Y-74446207D01*
X182502538Y-74449940D01*
X182516262Y-74455506D01*
X182522940Y-74463273D01*
X182526236Y-74473605D01*
X182526556Y-74474943D01*
X182531562Y-74499079D01*
X182540829Y-74546701D01*
X182553392Y-74612741D01*
X182568287Y-74692128D01*
X182584551Y-74779796D01*
X182585119Y-74782875D01*
X182601410Y-74868789D01*
X182616652Y-74944696D01*
X182629861Y-75006045D01*
X182640054Y-75048282D01*
X182646248Y-75066855D01*
X182646543Y-75067184D01*
X182664788Y-75076253D01*
X182702405Y-75091367D01*
X182751271Y-75109262D01*
X182751543Y-75109358D01*
X182813093Y-75132493D01*
X182885657Y-75161965D01*
X182954057Y-75191597D01*
X182957294Y-75193062D01*
X183068702Y-75243626D01*
X183315399Y-75075160D01*
X183391077Y-75023803D01*
X183459631Y-74977889D01*
X183517088Y-74940030D01*
X183559476Y-74912837D01*
X183582825Y-74898921D01*
X183585042Y-74897889D01*
X183602010Y-74902484D01*
X183633701Y-74924655D01*
X183681352Y-74965447D01*
X183746198Y-75025905D01*
X183812397Y-75090227D01*
X183876214Y-75153612D01*
X183933329Y-75211451D01*
X183980305Y-75260175D01*
X184013703Y-75296210D01*
X184030085Y-75315984D01*
X184030694Y-75317002D01*
X184032505Y-75330572D01*
X184025683Y-75352733D01*
X184008540Y-75386478D01*
X183979393Y-75434800D01*
X183936555Y-75500692D01*
X183879448Y-75585517D01*
X183828766Y-75660177D01*
X183783461Y-75727140D01*
X183746150Y-75782516D01*
X183719452Y-75822420D01*
X183705985Y-75842962D01*
X183705137Y-75844356D01*
X183706781Y-75864038D01*
X183719245Y-75902293D01*
X183740048Y-75951889D01*
X183747462Y-75967728D01*
X183779814Y-76038290D01*
X183814328Y-76118353D01*
X183842365Y-76187629D01*
X183862568Y-76239045D01*
X183878615Y-76278119D01*
X183887888Y-76298541D01*
X183889041Y-76300114D01*
X183906096Y-76302721D01*
X183946298Y-76309863D01*
X184004302Y-76320523D01*
X184074763Y-76333685D01*
X184152335Y-76348333D01*
X184231672Y-76363449D01*
X184307431Y-76378018D01*
X184374264Y-76391022D01*
X184426828Y-76401445D01*
X184459776Y-76408270D01*
X184467857Y-76410199D01*
X184476205Y-76414962D01*
X184482506Y-76425718D01*
X184487045Y-76446098D01*
X184490104Y-76479734D01*
X184491967Y-76530255D01*
X184492918Y-76601292D01*
X184493240Y-76696476D01*
X184493257Y-76735492D01*
X184493257Y-77052799D01*
X184417057Y-77067839D01*
X184374663Y-77075995D01*
X184311400Y-77087899D01*
X184234962Y-77102116D01*
X184153043Y-77117210D01*
X184130400Y-77121355D01*
X184054806Y-77136053D01*
X183988953Y-77150505D01*
X183938366Y-77163375D01*
X183908574Y-77173322D01*
X183903612Y-77176287D01*
X183891426Y-77197283D01*
X183873953Y-77237967D01*
X183854577Y-77290322D01*
X183850734Y-77301600D01*
X183825339Y-77371523D01*
X183793817Y-77450418D01*
X183762969Y-77521266D01*
X183762817Y-77521595D01*
X183711447Y-77632733D01*
X183880399Y-77881253D01*
X184049352Y-78129772D01*
X183832429Y-78347058D01*
X183766819Y-78411726D01*
X183706979Y-78468733D01*
X183656267Y-78515033D01*
X183618046Y-78547584D01*
X183595675Y-78563343D01*
X183592466Y-78564343D01*
X183573626Y-78556469D01*
X183535180Y-78534578D01*
X183481330Y-78501267D01*
X183416276Y-78459131D01*
X183345940Y-78411943D01*
X183274555Y-78363810D01*
X183210908Y-78321928D01*
X183159041Y-78288871D01*
X183122995Y-78267218D01*
X183106867Y-78259543D01*
X183087189Y-78266037D01*
X183049875Y-78283150D01*
X183002621Y-78307326D01*
X182997612Y-78310013D01*
X182933977Y-78341927D01*
X182890341Y-78357579D01*
X182863202Y-78357745D01*
X182849057Y-78343204D01*
X182848975Y-78343000D01*
X182841905Y-78325779D01*
X182825042Y-78284899D01*
X182799695Y-78223525D01*
X182767171Y-78144819D01*
X182728778Y-78051947D01*
X182685822Y-77948072D01*
X182644222Y-77847502D01*
X182598504Y-77736516D01*
X182556526Y-77633703D01*
X182519548Y-77542215D01*
X182488827Y-77465201D01*
X182465622Y-77405815D01*
X182451190Y-77367209D01*
X182446743Y-77352800D01*
X182457896Y-77336272D01*
X182487069Y-77309930D01*
X182525971Y-77280887D01*
X182636757Y-77189039D01*
X182723351Y-77083759D01*
X182784716Y-76967266D01*
X182819815Y-76841776D01*
X182827608Y-76709507D01*
X182821943Y-76648457D01*
X182791078Y-76521795D01*
X182737920Y-76409941D01*
X182665767Y-76314001D01*
X182577917Y-76235076D01*
X182477665Y-76174270D01*
X182368310Y-76132687D01*
X182253147Y-76111428D01*
X182135475Y-76111599D01*
X182018590Y-76134301D01*
X181905789Y-76180638D01*
X181800369Y-76251713D01*
X181756368Y-76291911D01*
X181671979Y-76395129D01*
X181613222Y-76507925D01*
X181579704Y-76627010D01*
X181571035Y-76749095D01*
X181586823Y-76870893D01*
X181626678Y-76989116D01*
X181690207Y-77100475D01*
X181777021Y-77201684D01*
X181874029Y-77280887D01*
X181914437Y-77311162D01*
X181942982Y-77337219D01*
X181953257Y-77352825D01*
X181947877Y-77369843D01*
X181932575Y-77410500D01*
X181908612Y-77471642D01*
X181877244Y-77550119D01*
X181839732Y-77642780D01*
X181797333Y-77746472D01*
X181755663Y-77847526D01*
X181709690Y-77958607D01*
X181667107Y-78061541D01*
X181629221Y-78153165D01*
X181597340Y-78230316D01*
X181572771Y-78289831D01*
X181556820Y-78328544D01*
X181550910Y-78343000D01*
X181536948Y-78357685D01*
X181509940Y-78357642D01*
X181466413Y-78342099D01*
X181402890Y-78310284D01*
X181402388Y-78310013D01*
X181354560Y-78285323D01*
X181315897Y-78267338D01*
X181294095Y-78259614D01*
X181293133Y-78259543D01*
X181276721Y-78267378D01*
X181240487Y-78289165D01*
X181188474Y-78322328D01*
X181124725Y-78364291D01*
X181054060Y-78411943D01*
X180982116Y-78460191D01*
X180917274Y-78502151D01*
X180863735Y-78535227D01*
X180825697Y-78556821D01*
X180807533Y-78564343D01*
X180790808Y-78554457D01*
X180757180Y-78526826D01*
X180710010Y-78484495D01*
X180652658Y-78430505D01*
X180588484Y-78367899D01*
X180567497Y-78346983D01*
X180350499Y-78129623D01*
X180515668Y-77887220D01*
X180565864Y-77812781D01*
X180609919Y-77745972D01*
X180645362Y-77690665D01*
X180669719Y-77650729D01*
X180680522Y-77630036D01*
X180680838Y-77628563D01*
X180675143Y-77609058D01*
X180659826Y-77569822D01*
X180637537Y-77517430D01*
X180621893Y-77482355D01*
X180592641Y-77415201D01*
X180565094Y-77347358D01*
X180543737Y-77290034D01*
X180537935Y-77272572D01*
X180521452Y-77225938D01*
X180505340Y-77189905D01*
X180496490Y-77176287D01*
X180476960Y-77167952D01*
X180434334Y-77156137D01*
X180374145Y-77142181D01*
X180301922Y-77127422D01*
X180269600Y-77121355D01*
X180187522Y-77106273D01*
X180108795Y-77091669D01*
X180041109Y-77078980D01*
X179992160Y-77069642D01*
X179982943Y-77067839D01*
X179906743Y-77052799D01*
X179906743Y-76735492D01*
X179906914Y-76631154D01*
X179907616Y-76552213D01*
X179909134Y-76495038D01*
X179911749Y-76455999D01*
X179915746Y-76431465D01*
X179921409Y-76417805D01*
X179929020Y-76411389D01*
X179932143Y-76410199D01*
X179950978Y-76405980D01*
X179992588Y-76397562D01*
X180051630Y-76385961D01*
X180122757Y-76372195D01*
X180200625Y-76357280D01*
X180279887Y-76342232D01*
X180355198Y-76328069D01*
X180421213Y-76315806D01*
X180472587Y-76306461D01*
X180503975Y-76301050D01*
X180510959Y-76300114D01*
X180517285Y-76287596D01*
X180531290Y-76254246D01*
X180550355Y-76206377D01*
X180557634Y-76187629D01*
X180586996Y-76115195D01*
X180621571Y-76035170D01*
X180652537Y-75967728D01*
X180675323Y-75916159D01*
X180690482Y-75873785D01*
X180695542Y-75847834D01*
X180694736Y-75844356D01*
X180684041Y-75827936D01*
X180659620Y-75791417D01*
X180624095Y-75738687D01*
X180580087Y-75673635D01*
X180530217Y-75600151D01*
X180520356Y-75585645D01*
X180462492Y-75499704D01*
X180419956Y-75434261D01*
X180391054Y-75386304D01*
X180374090Y-75352820D01*
X180367367Y-75330795D01*
X180369190Y-75317217D01*
X180369236Y-75317131D01*
X180383586Y-75299297D01*
X180415323Y-75264817D01*
X180461010Y-75217268D01*
X180517204Y-75160222D01*
X180580468Y-75097255D01*
X180587602Y-75090227D01*
X180667330Y-75013020D01*
X180728857Y-74956330D01*
X180773421Y-74919110D01*
X180802257Y-74900315D01*
X180814958Y-74897889D01*
X180833494Y-74908471D01*
X180871961Y-74932916D01*
X180926386Y-74968612D01*
X180992798Y-75012947D01*
X181067225Y-75063311D01*
X181084601Y-75075160D01*
X181331297Y-75243626D01*
X181442706Y-75193062D01*
X181510457Y-75163595D01*
X181583183Y-75133959D01*
X181645703Y-75110330D01*
X181648457Y-75109358D01*
X181697360Y-75091457D01*
X181735057Y-75076320D01*
X181753425Y-75067210D01*
X181753456Y-75067184D01*
X181759285Y-75050717D01*
X181769192Y-75010219D01*
X181782195Y-74950242D01*
X181797309Y-74875340D01*
X181813552Y-74790064D01*
X181814881Y-74782875D01*
X181831175Y-74695014D01*
X181846133Y-74615260D01*
X181858791Y-74548681D01*
X181868186Y-74500347D01*
X181873354Y-74475325D01*
X181873444Y-74474943D01*
X181876589Y-74464299D01*
X181882704Y-74456262D01*
X181895453Y-74450467D01*
X181918500Y-74446547D01*
X181955509Y-74444135D01*
X182010144Y-74442865D01*
X182086067Y-74442371D01*
X182186944Y-74442286D01*
X182200000Y-74442286D01*
X182303910Y-74442348D01*
G36*
X178522094Y-68891158D02*
G01*
X178554619Y-68903736D01*
X178604193Y-68928712D01*
X178675374Y-68967876D01*
X178680916Y-68970988D01*
X178746474Y-69008476D01*
X178801798Y-69041319D01*
X178841455Y-69066205D01*
X178860012Y-69079820D01*
X178860531Y-69080487D01*
X178856048Y-69099390D01*
X178835486Y-69141605D01*
X178800183Y-69204832D01*
X178751480Y-69286772D01*
X178690718Y-69385122D01*
X178619236Y-69497585D01*
X178601445Y-69525165D01*
X178555093Y-69601699D01*
X178521342Y-69667556D01*
X178503153Y-69716782D01*
X178501286Y-69726507D01*
X178502115Y-69769312D01*
X178511394Y-69837209D01*
X178527968Y-69925843D01*
X178550680Y-70030859D01*
X178578373Y-70147902D01*
X178609890Y-70272616D01*
X178644075Y-70400645D01*
X178679771Y-70527634D01*
X178715821Y-70649228D01*
X178751068Y-70761072D01*
X178784356Y-70858810D01*
X178814528Y-70938087D01*
X178835561Y-70985122D01*
X178860337Y-71035225D01*
X178883730Y-71083168D01*
X178884997Y-71085793D01*
X178923699Y-71134220D01*
X178980184Y-71166828D01*
X179045939Y-71182454D01*
X179112451Y-71179937D01*
X179171205Y-71158114D01*
X179204258Y-71129382D01*
X179251859Y-71050583D01*
X179286739Y-70952378D01*
X179305877Y-70844779D01*
X179308588Y-70783780D01*
X179297670Y-70669935D01*
X179265624Y-70575660D01*
X179210726Y-70496379D01*
X179193607Y-70478733D01*
X179142661Y-70429235D01*
X179139163Y-70079362D01*
X179135664Y-69729489D01*
X179224818Y-69594531D01*
X179266654Y-69533445D01*
X179306945Y-69478493D01*
X179339943Y-69437336D01*
X179354126Y-69422192D01*
X179394281Y-69384810D01*
X179448665Y-69414098D01*
X179483039Y-69435084D01*
X179501846Y-69451378D01*
X179503049Y-69454307D01*
X179515903Y-69466728D01*
X179537896Y-69475977D01*
X179559150Y-69484313D01*
X179591694Y-69500149D01*
X179638322Y-69525033D01*
X179701829Y-69560509D01*
X179785008Y-69608123D01*
X179890653Y-69669422D01*
X179948062Y-69702932D01*
X180015594Y-69743071D01*
X180059885Y-69771659D01*
X180084855Y-69792039D01*
X180094423Y-69807553D01*
X180092508Y-69821546D01*
X180090911Y-69824796D01*
X180075376Y-69845266D01*
X180042136Y-69883665D01*
X179995062Y-69935696D01*
X179938028Y-69997066D01*
X179888700Y-70049090D01*
X179775030Y-70172567D01*
X179686105Y-70279591D01*
X179621134Y-70371240D01*
X179579321Y-70448588D01*
X179565217Y-70487866D01*
X179559392Y-70522249D01*
X179553375Y-70580899D01*
X179547696Y-70657117D01*
X179542884Y-70744202D01*
X179540619Y-70799268D01*
X179537459Y-70894464D01*
X179536069Y-70964062D01*
X179536858Y-71013409D01*
X179540235Y-71047854D01*
X179546608Y-71072743D01*
X179556387Y-71093425D01*
X179564067Y-71106053D01*
X179608421Y-71154726D01*
X179665574Y-71188645D01*
X179725708Y-71203438D01*
X179770773Y-71198086D01*
X179811576Y-71174930D01*
X179862724Y-71133462D01*
X179917042Y-71080912D01*
X179967357Y-71024516D01*
X180006494Y-70971505D01*
X180020905Y-70945889D01*
X180042491Y-70910814D01*
X180081753Y-70857389D01*
X180135102Y-70789789D01*
X180198952Y-70712190D01*
X180269715Y-70628768D01*
X180343804Y-70543698D01*
X180417632Y-70461155D01*
X180487611Y-70385316D01*
X180550155Y-70320356D01*
X180599260Y-70272669D01*
X180653779Y-70225032D01*
X180699642Y-70189908D01*
X180731811Y-70170949D01*
X180742489Y-70168864D01*
X180758853Y-70177274D01*
X180799671Y-70199846D01*
X180862586Y-70235224D01*
X180945244Y-70282054D01*
X181045289Y-70338981D01*
X181160366Y-70404649D01*
X181288119Y-70477703D01*
X181426194Y-70556788D01*
X181572234Y-70640548D01*
X181723884Y-70727629D01*
X181878790Y-70816676D01*
X182034595Y-70906332D01*
X182188944Y-70995243D01*
X182339482Y-71082054D01*
X182483854Y-71165409D01*
X182619704Y-71243954D01*
X182744677Y-71316333D01*
X182856417Y-71381190D01*
X182952570Y-71437171D01*
X183030779Y-71482920D01*
X183088689Y-71517083D01*
X183123946Y-71538304D01*
X183134165Y-71544963D01*
X183120402Y-71546280D01*
X183077104Y-71547559D01*
X183005714Y-71548796D01*
X182907673Y-71549983D01*
X182784422Y-71551115D01*
X182637403Y-71552186D01*
X182468057Y-71553189D01*
X182277826Y-71554119D01*
X182068151Y-71554968D01*
X181840473Y-71555732D01*
X181596235Y-71556403D01*
X181336877Y-71556976D01*
X181063841Y-71557444D01*
X180778568Y-71557802D01*
X180482500Y-71558042D01*
X180177079Y-71558159D01*
X180048924Y-71558171D01*
X176948970Y-71558171D01*
X177170053Y-71174847D01*
X177216856Y-71093680D01*
X177277102Y-70989166D01*
X177348778Y-70864801D01*
X177429869Y-70724082D01*
X177518362Y-70570503D01*
X177612240Y-70407562D01*
X177709491Y-70238754D01*
X177808100Y-70067575D01*
X177906053Y-69897521D01*
X177930825Y-69854512D01*
X178021152Y-69697857D01*
X178107289Y-69548803D01*
X178187942Y-69409568D01*
X178261816Y-69282371D01*
X178327617Y-69169432D01*
X178384050Y-69072968D01*
X178429821Y-68995200D01*
X178463635Y-68938346D01*
X178484198Y-68904625D01*
X178489953Y-68896040D01*
X178502058Y-68889189D01*
X178522094Y-68891158D01*
G37*
X178522094Y-68891158D02*
X178554619Y-68903736D01*
X178604193Y-68928712D01*
X178675374Y-68967876D01*
X178680916Y-68970988D01*
X178746474Y-69008476D01*
X178801798Y-69041319D01*
X178841455Y-69066205D01*
X178860012Y-69079820D01*
X178860531Y-69080487D01*
X178856048Y-69099390D01*
X178835486Y-69141605D01*
X178800183Y-69204832D01*
X178751480Y-69286772D01*
X178690718Y-69385122D01*
X178619236Y-69497585D01*
X178601445Y-69525165D01*
X178555093Y-69601699D01*
X178521342Y-69667556D01*
X178503153Y-69716782D01*
X178501286Y-69726507D01*
X178502115Y-69769312D01*
X178511394Y-69837209D01*
X178527968Y-69925843D01*
X178550680Y-70030859D01*
X178578373Y-70147902D01*
X178609890Y-70272616D01*
X178644075Y-70400645D01*
X178679771Y-70527634D01*
X178715821Y-70649228D01*
X178751068Y-70761072D01*
X178784356Y-70858810D01*
X178814528Y-70938087D01*
X178835561Y-70985122D01*
X178860337Y-71035225D01*
X178883730Y-71083168D01*
X178884997Y-71085793D01*
X178923699Y-71134220D01*
X178980184Y-71166828D01*
X179045939Y-71182454D01*
X179112451Y-71179937D01*
X179171205Y-71158114D01*
X179204258Y-71129382D01*
X179251859Y-71050583D01*
X179286739Y-70952378D01*
X179305877Y-70844779D01*
X179308588Y-70783780D01*
X179297670Y-70669935D01*
X179265624Y-70575660D01*
X179210726Y-70496379D01*
X179193607Y-70478733D01*
X179142661Y-70429235D01*
X179139163Y-70079362D01*
X179135664Y-69729489D01*
X179224818Y-69594531D01*
X179266654Y-69533445D01*
X179306945Y-69478493D01*
X179339943Y-69437336D01*
X179354126Y-69422192D01*
X179394281Y-69384810D01*
X179448665Y-69414098D01*
X179483039Y-69435084D01*
X179501846Y-69451378D01*
X179503049Y-69454307D01*
X179515903Y-69466728D01*
X179537896Y-69475977D01*
X179559150Y-69484313D01*
X179591694Y-69500149D01*
X179638322Y-69525033D01*
X179701829Y-69560509D01*
X179785008Y-69608123D01*
X179890653Y-69669422D01*
X179948062Y-69702932D01*
X180015594Y-69743071D01*
X180059885Y-69771659D01*
X180084855Y-69792039D01*
X180094423Y-69807553D01*
X180092508Y-69821546D01*
X180090911Y-69824796D01*
X180075376Y-69845266D01*
X180042136Y-69883665D01*
X179995062Y-69935696D01*
X179938028Y-69997066D01*
X179888700Y-70049090D01*
X179775030Y-70172567D01*
X179686105Y-70279591D01*
X179621134Y-70371240D01*
X179579321Y-70448588D01*
X179565217Y-70487866D01*
X179559392Y-70522249D01*
X179553375Y-70580899D01*
X179547696Y-70657117D01*
X179542884Y-70744202D01*
X179540619Y-70799268D01*
X179537459Y-70894464D01*
X179536069Y-70964062D01*
X179536858Y-71013409D01*
X179540235Y-71047854D01*
X179546608Y-71072743D01*
X179556387Y-71093425D01*
X179564067Y-71106053D01*
X179608421Y-71154726D01*
X179665574Y-71188645D01*
X179725708Y-71203438D01*
X179770773Y-71198086D01*
X179811576Y-71174930D01*
X179862724Y-71133462D01*
X179917042Y-71080912D01*
X179967357Y-71024516D01*
X180006494Y-70971505D01*
X180020905Y-70945889D01*
X180042491Y-70910814D01*
X180081753Y-70857389D01*
X180135102Y-70789789D01*
X180198952Y-70712190D01*
X180269715Y-70628768D01*
X180343804Y-70543698D01*
X180417632Y-70461155D01*
X180487611Y-70385316D01*
X180550155Y-70320356D01*
X180599260Y-70272669D01*
X180653779Y-70225032D01*
X180699642Y-70189908D01*
X180731811Y-70170949D01*
X180742489Y-70168864D01*
X180758853Y-70177274D01*
X180799671Y-70199846D01*
X180862586Y-70235224D01*
X180945244Y-70282054D01*
X181045289Y-70338981D01*
X181160366Y-70404649D01*
X181288119Y-70477703D01*
X181426194Y-70556788D01*
X181572234Y-70640548D01*
X181723884Y-70727629D01*
X181878790Y-70816676D01*
X182034595Y-70906332D01*
X182188944Y-70995243D01*
X182339482Y-71082054D01*
X182483854Y-71165409D01*
X182619704Y-71243954D01*
X182744677Y-71316333D01*
X182856417Y-71381190D01*
X182952570Y-71437171D01*
X183030779Y-71482920D01*
X183088689Y-71517083D01*
X183123946Y-71538304D01*
X183134165Y-71544963D01*
X183120402Y-71546280D01*
X183077104Y-71547559D01*
X183005714Y-71548796D01*
X182907673Y-71549983D01*
X182784422Y-71551115D01*
X182637403Y-71552186D01*
X182468057Y-71553189D01*
X182277826Y-71554119D01*
X182068151Y-71554968D01*
X181840473Y-71555732D01*
X181596235Y-71556403D01*
X181336877Y-71556976D01*
X181063841Y-71557444D01*
X180778568Y-71557802D01*
X180482500Y-71558042D01*
X180177079Y-71558159D01*
X180048924Y-71558171D01*
X176948970Y-71558171D01*
X177170053Y-71174847D01*
X177216856Y-71093680D01*
X177277102Y-70989166D01*
X177348778Y-70864801D01*
X177429869Y-70724082D01*
X177518362Y-70570503D01*
X177612240Y-70407562D01*
X177709491Y-70238754D01*
X177808100Y-70067575D01*
X177906053Y-69897521D01*
X177930825Y-69854512D01*
X178021152Y-69697857D01*
X178107289Y-69548803D01*
X178187942Y-69409568D01*
X178261816Y-69282371D01*
X178327617Y-69169432D01*
X178384050Y-69072968D01*
X178429821Y-68995200D01*
X178463635Y-68938346D01*
X178484198Y-68904625D01*
X178489953Y-68896040D01*
X178502058Y-68889189D01*
X178522094Y-68891158D01*
G36*
X182187528Y-68834619D02*
G01*
X182198908Y-68853693D01*
X182224488Y-68897421D01*
X182263002Y-68963619D01*
X182313186Y-69050102D01*
X182373775Y-69154685D01*
X182443503Y-69275183D01*
X182521107Y-69409412D01*
X182605320Y-69555187D01*
X182694879Y-69710323D01*
X182786998Y-69870000D01*
X182881076Y-70033117D01*
X182971402Y-70189709D01*
X183056665Y-70337506D01*
X183135557Y-70474240D01*
X183206769Y-70597642D01*
X183268991Y-70705444D01*
X183320913Y-70795377D01*
X183361228Y-70865173D01*
X183388624Y-70912564D01*
X183401507Y-70934786D01*
X183422507Y-70972330D01*
X183433925Y-70995831D01*
X183434551Y-70999920D01*
X183420636Y-70992242D01*
X183381941Y-70970203D01*
X183320487Y-70934971D01*
X183238298Y-70887711D01*
X183137396Y-70829589D01*
X183019805Y-70761771D01*
X182887546Y-70685424D01*
X182742642Y-70601714D01*
X182587117Y-70511806D01*
X182422992Y-70416867D01*
X182360549Y-70380732D01*
X182193487Y-70284083D01*
X182034074Y-70191938D01*
X181884355Y-70105475D01*
X181746376Y-70025871D01*
X181622185Y-69954305D01*
X181513827Y-69891955D01*
X181423348Y-69839998D01*
X181352796Y-69799613D01*
X181304215Y-69771978D01*
X181279654Y-69758272D01*
X181277085Y-69756974D01*
X181284569Y-69745220D01*
X181310614Y-69713795D01*
X181352559Y-69665594D01*
X181407746Y-69603510D01*
X181473517Y-69530439D01*
X181547212Y-69449276D01*
X181626173Y-69362916D01*
X181707740Y-69274253D01*
X181789254Y-69186182D01*
X181868057Y-69101599D01*
X181941490Y-69023397D01*
X182006893Y-68954472D01*
X182061608Y-68897719D01*
X182102977Y-68856032D01*
X182117164Y-68842363D01*
X182164180Y-68798201D01*
X182187528Y-68834619D01*
G37*
X182187528Y-68834619D02*
X182198908Y-68853693D01*
X182224488Y-68897421D01*
X182263002Y-68963619D01*
X182313186Y-69050102D01*
X182373775Y-69154685D01*
X182443503Y-69275183D01*
X182521107Y-69409412D01*
X182605320Y-69555187D01*
X182694879Y-69710323D01*
X182786998Y-69870000D01*
X182881076Y-70033117D01*
X182971402Y-70189709D01*
X183056665Y-70337506D01*
X183135557Y-70474240D01*
X183206769Y-70597642D01*
X183268991Y-70705444D01*
X183320913Y-70795377D01*
X183361228Y-70865173D01*
X183388624Y-70912564D01*
X183401507Y-70934786D01*
X183422507Y-70972330D01*
X183433925Y-70995831D01*
X183434551Y-70999920D01*
X183420636Y-70992242D01*
X183381941Y-70970203D01*
X183320487Y-70934971D01*
X183238298Y-70887711D01*
X183137396Y-70829589D01*
X183019805Y-70761771D01*
X182887546Y-70685424D01*
X182742642Y-70601714D01*
X182587117Y-70511806D01*
X182422992Y-70416867D01*
X182360549Y-70380732D01*
X182193487Y-70284083D01*
X182034074Y-70191938D01*
X181884355Y-70105475D01*
X181746376Y-70025871D01*
X181622185Y-69954305D01*
X181513827Y-69891955D01*
X181423348Y-69839998D01*
X181352796Y-69799613D01*
X181304215Y-69771978D01*
X181279654Y-69758272D01*
X181277085Y-69756974D01*
X181284569Y-69745220D01*
X181310614Y-69713795D01*
X181352559Y-69665594D01*
X181407746Y-69603510D01*
X181473517Y-69530439D01*
X181547212Y-69449276D01*
X181626173Y-69362916D01*
X181707740Y-69274253D01*
X181789254Y-69186182D01*
X181868057Y-69101599D01*
X181941490Y-69023397D01*
X182006893Y-68954472D01*
X182061608Y-68897719D01*
X182102977Y-68856032D01*
X182117164Y-68842363D01*
X182164180Y-68798201D01*
X182187528Y-68834619D01*
G36*
X180364043Y-65685835D02*
G01*
X180387065Y-65723245D01*
X180422534Y-65782514D01*
X180468996Y-65861118D01*
X180524996Y-65956538D01*
X180589081Y-66066250D01*
X180659796Y-66187734D01*
X180735687Y-66318468D01*
X180815299Y-66455930D01*
X180897178Y-66597598D01*
X180979870Y-66740951D01*
X181061921Y-66883467D01*
X181141876Y-67022624D01*
X181218281Y-67155901D01*
X181289682Y-67280776D01*
X181354624Y-67394727D01*
X181411653Y-67495233D01*
X181459315Y-67579772D01*
X181496155Y-67645822D01*
X181520720Y-67690862D01*
X181531554Y-67712370D01*
X181531951Y-67713714D01*
X181518501Y-67731965D01*
X181481114Y-67759882D01*
X181424235Y-67794725D01*
X181352312Y-67833754D01*
X181277015Y-67870843D01*
X181174560Y-67915817D01*
X181066817Y-67956226D01*
X180950073Y-67992969D01*
X180820618Y-68026942D01*
X180674740Y-68059044D01*
X180508726Y-68090173D01*
X180318866Y-68121227D01*
X180122469Y-68150145D01*
X179951834Y-68175800D01*
X179808545Y-68201198D01*
X179689008Y-68227602D01*
X179589630Y-68256273D01*
X179506818Y-68288473D01*
X179436978Y-68325465D01*
X179376518Y-68368512D01*
X179321845Y-68418875D01*
X179304214Y-68437583D01*
X179266000Y-68481139D01*
X179237732Y-68516682D01*
X179224618Y-68537583D01*
X179224268Y-68539297D01*
X179219680Y-68549806D01*
X179203758Y-68549924D01*
X179173266Y-68538254D01*
X179124968Y-68513396D01*
X179055627Y-68473952D01*
X179007439Y-68445587D01*
X178935583Y-68401247D01*
X178879742Y-68363279D01*
X178843667Y-68334416D01*
X178831113Y-68317388D01*
X178831121Y-68317264D01*
X178838906Y-68301037D01*
X178860892Y-68260400D01*
X178895803Y-68197567D01*
X178942363Y-68114752D01*
X178999295Y-68014172D01*
X179065323Y-67898040D01*
X179139172Y-67768571D01*
X179219564Y-67627980D01*
X179305224Y-67478482D01*
X179394876Y-67322292D01*
X179487243Y-67161624D01*
X179581049Y-66998693D01*
X179675018Y-66835713D01*
X179767874Y-66674900D01*
X179858340Y-66518468D01*
X179945141Y-66368633D01*
X180027000Y-66227608D01*
X180102641Y-66097609D01*
X180170787Y-65980849D01*
X180230163Y-65879545D01*
X180279493Y-65795911D01*
X180317500Y-65732162D01*
X180342907Y-65690511D01*
X180354440Y-65673175D01*
X180354923Y-65672805D01*
X180364043Y-65685835D01*
G37*
X180364043Y-65685835D02*
X180387065Y-65723245D01*
X180422534Y-65782514D01*
X180468996Y-65861118D01*
X180524996Y-65956538D01*
X180589081Y-66066250D01*
X180659796Y-66187734D01*
X180735687Y-66318468D01*
X180815299Y-66455930D01*
X180897178Y-66597598D01*
X180979870Y-66740951D01*
X181061921Y-66883467D01*
X181141876Y-67022624D01*
X181218281Y-67155901D01*
X181289682Y-67280776D01*
X181354624Y-67394727D01*
X181411653Y-67495233D01*
X181459315Y-67579772D01*
X181496155Y-67645822D01*
X181520720Y-67690862D01*
X181531554Y-67712370D01*
X181531951Y-67713714D01*
X181518501Y-67731965D01*
X181481114Y-67759882D01*
X181424235Y-67794725D01*
X181352312Y-67833754D01*
X181277015Y-67870843D01*
X181174560Y-67915817D01*
X181066817Y-67956226D01*
X180950073Y-67992969D01*
X180820618Y-68026942D01*
X180674740Y-68059044D01*
X180508726Y-68090173D01*
X180318866Y-68121227D01*
X180122469Y-68150145D01*
X179951834Y-68175800D01*
X179808545Y-68201198D01*
X179689008Y-68227602D01*
X179589630Y-68256273D01*
X179506818Y-68288473D01*
X179436978Y-68325465D01*
X179376518Y-68368512D01*
X179321845Y-68418875D01*
X179304214Y-68437583D01*
X179266000Y-68481139D01*
X179237732Y-68516682D01*
X179224618Y-68537583D01*
X179224268Y-68539297D01*
X179219680Y-68549806D01*
X179203758Y-68549924D01*
X179173266Y-68538254D01*
X179124968Y-68513396D01*
X179055627Y-68473952D01*
X179007439Y-68445587D01*
X178935583Y-68401247D01*
X178879742Y-68363279D01*
X178843667Y-68334416D01*
X178831113Y-68317388D01*
X178831121Y-68317264D01*
X178838906Y-68301037D01*
X178860892Y-68260400D01*
X178895803Y-68197567D01*
X178942363Y-68114752D01*
X178999295Y-68014172D01*
X179065323Y-67898040D01*
X179139172Y-67768571D01*
X179219564Y-67627980D01*
X179305224Y-67478482D01*
X179394876Y-67322292D01*
X179487243Y-67161624D01*
X179581049Y-66998693D01*
X179675018Y-66835713D01*
X179767874Y-66674900D01*
X179858340Y-66518468D01*
X179945141Y-66368633D01*
X180027000Y-66227608D01*
X180102641Y-66097609D01*
X180170787Y-65980849D01*
X180230163Y-65879545D01*
X180279493Y-65795911D01*
X180317500Y-65732162D01*
X180342907Y-65690511D01*
X180354440Y-65673175D01*
X180354923Y-65672805D01*
X180364043Y-65685835D01*
D13*
%TO.C,R1*%
X171612258Y-78027500D02*
X171137742Y-78027500D01*
X171612258Y-79072500D02*
X171137742Y-79072500D01*
%TO.C,C1*%
X167390000Y-78584420D02*
X167390000Y-78865580D01*
X168410000Y-78584420D02*
X168410000Y-78865580D01*
%TO.C,C2*%
X165434420Y-58390000D02*
X165715580Y-58390000D01*
X165434420Y-59410000D02*
X165715580Y-59410000D01*
%TO.C,C3*%
X168410000Y-75159420D02*
X168410000Y-75440580D01*
X167390000Y-75159420D02*
X167390000Y-75440580D01*
%TO.C,C4*%
X162424500Y-75445080D02*
X162705660Y-75445080D01*
X162424500Y-74425080D02*
X162705660Y-74425080D01*
%TO.C,D1*%
X177127500Y-85335000D02*
X179412500Y-85335000D01*
X177127500Y-83865000D02*
X177127500Y-85335000D01*
X179412500Y-83865000D02*
X177127500Y-83865000D01*
%TO.C,D2*%
X177812500Y-83135000D02*
X180097500Y-83135000D01*
X180097500Y-83135000D02*
X180097500Y-81665000D01*
X180097500Y-81665000D02*
X177812500Y-81665000D01*
%TO.C,J1*%
X161880000Y-91026000D02*
X171070000Y-91026000D01*
X162000000Y-81616000D02*
X170950000Y-81616000D01*
X171070000Y-88296000D02*
X171070000Y-91026000D01*
X161880000Y-88296000D02*
X161880000Y-91026000D01*
X171070000Y-84696000D02*
X171070000Y-85596000D01*
X161880000Y-84696000D02*
X161880000Y-85596000D01*
%TO.C,R2*%
X176637258Y-74872500D02*
X176162742Y-74872500D01*
X176637258Y-73827500D02*
X176162742Y-73827500D01*
%TO.C,R3*%
X173003740Y-58635362D02*
X173003740Y-59109878D01*
X171958740Y-58635362D02*
X171958740Y-59109878D01*
%TO.C,R4*%
X170435800Y-59089058D02*
X170435800Y-58614542D01*
X169390800Y-59089058D02*
X169390800Y-58614542D01*
D14*
%TO.C,U1*%
X173600000Y-65070000D02*
X173025000Y-65070000D01*
X173600000Y-70820000D02*
X172950000Y-70820000D01*
X162950000Y-70820000D02*
X163600000Y-70820000D01*
X162950000Y-65070000D02*
X163600000Y-65070000D01*
X173600000Y-65070000D02*
X173600000Y-70820000D01*
X162950000Y-65070000D02*
X162950000Y-70820000D01*
X173025000Y-65070000D02*
X173025000Y-63470000D01*
D13*
%TO.C,R5*%
X175922500Y-84812258D02*
X175922500Y-84337742D01*
X174877500Y-84812258D02*
X174877500Y-84337742D01*
%TO.C,R6*%
X174877500Y-80662258D02*
X174877500Y-80187742D01*
X175922500Y-80662258D02*
X175922500Y-80187742D01*
%TO.C,J2*%
D14*
X192341666Y-91177380D02*
X192341666Y-91891666D01*
X192294047Y-92034523D01*
X192198809Y-92129761D01*
X192055952Y-92177380D01*
X191960714Y-92177380D01*
X192770238Y-91272619D02*
X192817857Y-91225000D01*
X192913095Y-91177380D01*
X193151190Y-91177380D01*
X193246428Y-91225000D01*
X193294047Y-91272619D01*
X193341666Y-91367857D01*
X193341666Y-91463095D01*
X193294047Y-91605952D01*
X192722619Y-92177380D01*
X193341666Y-92177380D01*
%TO.C,U2*%
X198638095Y-38852380D02*
X198638095Y-39661904D01*
X198685714Y-39757142D01*
X198733333Y-39804761D01*
X198828571Y-39852380D01*
X199019047Y-39852380D01*
X199114285Y-39804761D01*
X199161904Y-39757142D01*
X199209523Y-39661904D01*
X199209523Y-38852380D01*
X199638095Y-38947619D02*
X199685714Y-38900000D01*
X199780952Y-38852380D01*
X200019047Y-38852380D01*
X200114285Y-38900000D01*
X200161904Y-38947619D01*
X200209523Y-39042857D01*
X200209523Y-39138095D01*
X200161904Y-39280952D01*
X199590476Y-39852380D01*
X200209523Y-39852380D01*
X196790476Y-44052380D02*
X197409523Y-44052380D01*
X197076190Y-44433333D01*
X197219047Y-44433333D01*
X197314285Y-44480952D01*
X197361904Y-44528571D01*
X197409523Y-44623809D01*
X197409523Y-44861904D01*
X197361904Y-44957142D01*
X197314285Y-45004761D01*
X197219047Y-45052380D01*
X196933333Y-45052380D01*
X196838095Y-45004761D01*
X196790476Y-44957142D01*
X198028571Y-44052380D02*
X198123809Y-44052380D01*
X198219047Y-44100000D01*
X198266666Y-44147619D01*
X198314285Y-44242857D01*
X198361904Y-44433333D01*
X198361904Y-44671428D01*
X198314285Y-44861904D01*
X198266666Y-44957142D01*
X198219047Y-45004761D01*
X198123809Y-45052380D01*
X198028571Y-45052380D01*
X197933333Y-45004761D01*
X197885714Y-44957142D01*
X197838095Y-44861904D01*
X197790476Y-44671428D01*
X197790476Y-44433333D01*
X197838095Y-44242857D01*
X197885714Y-44147619D01*
X197933333Y-44100000D01*
X198028571Y-44052380D01*
%TO.C,R1*%
X171208333Y-80432380D02*
X170875000Y-79956190D01*
X170636904Y-80432380D02*
X170636904Y-79432380D01*
X171017857Y-79432380D01*
X171113095Y-79480000D01*
X171160714Y-79527619D01*
X171208333Y-79622857D01*
X171208333Y-79765714D01*
X171160714Y-79860952D01*
X171113095Y-79908571D01*
X171017857Y-79956190D01*
X170636904Y-79956190D01*
X172160714Y-80432380D02*
X171589285Y-80432380D01*
X171875000Y-80432380D02*
X171875000Y-79432380D01*
X171779761Y-79575238D01*
X171684523Y-79670476D01*
X171589285Y-79718095D01*
%TO.C,C1*%
X169687142Y-78891666D02*
X169734761Y-78939285D01*
X169782380Y-79082142D01*
X169782380Y-79177380D01*
X169734761Y-79320238D01*
X169639523Y-79415476D01*
X169544285Y-79463095D01*
X169353809Y-79510714D01*
X169210952Y-79510714D01*
X169020476Y-79463095D01*
X168925238Y-79415476D01*
X168830000Y-79320238D01*
X168782380Y-79177380D01*
X168782380Y-79082142D01*
X168830000Y-78939285D01*
X168877619Y-78891666D01*
X169782380Y-77939285D02*
X169782380Y-78510714D01*
X169782380Y-78225000D02*
X168782380Y-78225000D01*
X168925238Y-78320238D01*
X169020476Y-78415476D01*
X169068095Y-78510714D01*
%TO.C,C2*%
X165408333Y-57827142D02*
X165360714Y-57874761D01*
X165217857Y-57922380D01*
X165122619Y-57922380D01*
X164979761Y-57874761D01*
X164884523Y-57779523D01*
X164836904Y-57684285D01*
X164789285Y-57493809D01*
X164789285Y-57350952D01*
X164836904Y-57160476D01*
X164884523Y-57065238D01*
X164979761Y-56970000D01*
X165122619Y-56922380D01*
X165217857Y-56922380D01*
X165360714Y-56970000D01*
X165408333Y-57017619D01*
X165789285Y-57017619D02*
X165836904Y-56970000D01*
X165932142Y-56922380D01*
X166170238Y-56922380D01*
X166265476Y-56970000D01*
X166313095Y-57017619D01*
X166360714Y-57112857D01*
X166360714Y-57208095D01*
X166313095Y-57350952D01*
X165741666Y-57922380D01*
X166360714Y-57922380D01*
%TO.C,C3*%
X169687142Y-75466666D02*
X169734761Y-75514285D01*
X169782380Y-75657142D01*
X169782380Y-75752380D01*
X169734761Y-75895238D01*
X169639523Y-75990476D01*
X169544285Y-76038095D01*
X169353809Y-76085714D01*
X169210952Y-76085714D01*
X169020476Y-76038095D01*
X168925238Y-75990476D01*
X168830000Y-75895238D01*
X168782380Y-75752380D01*
X168782380Y-75657142D01*
X168830000Y-75514285D01*
X168877619Y-75466666D01*
X168782380Y-75133333D02*
X168782380Y-74514285D01*
X169163333Y-74847619D01*
X169163333Y-74704761D01*
X169210952Y-74609523D01*
X169258571Y-74561904D01*
X169353809Y-74514285D01*
X169591904Y-74514285D01*
X169687142Y-74561904D01*
X169734761Y-74609523D01*
X169782380Y-74704761D01*
X169782380Y-74990476D01*
X169734761Y-75085714D01*
X169687142Y-75133333D01*
%TO.C,C4*%
X162398413Y-73862222D02*
X162350794Y-73909841D01*
X162207937Y-73957460D01*
X162112699Y-73957460D01*
X161969841Y-73909841D01*
X161874603Y-73814603D01*
X161826984Y-73719365D01*
X161779365Y-73528889D01*
X161779365Y-73386032D01*
X161826984Y-73195556D01*
X161874603Y-73100318D01*
X161969841Y-73005080D01*
X162112699Y-72957460D01*
X162207937Y-72957460D01*
X162350794Y-73005080D01*
X162398413Y-73052699D01*
X163255556Y-73290794D02*
X163255556Y-73957460D01*
X163017460Y-72909841D02*
X162779365Y-73624127D01*
X163398413Y-73624127D01*
%TO.C,D1*%
X177874404Y-86852380D02*
X177874404Y-85852380D01*
X178112500Y-85852380D01*
X178255357Y-85900000D01*
X178350595Y-85995238D01*
X178398214Y-86090476D01*
X178445833Y-86280952D01*
X178445833Y-86423809D01*
X178398214Y-86614285D01*
X178350595Y-86709523D01*
X178255357Y-86804761D01*
X178112500Y-86852380D01*
X177874404Y-86852380D01*
X179398214Y-86852380D02*
X178826785Y-86852380D01*
X179112500Y-86852380D02*
X179112500Y-85852380D01*
X179017261Y-85995238D01*
X178922023Y-86090476D01*
X178826785Y-86138095D01*
%TO.C,D2*%
X177874404Y-81052380D02*
X177874404Y-80052380D01*
X178112500Y-80052380D01*
X178255357Y-80100000D01*
X178350595Y-80195238D01*
X178398214Y-80290476D01*
X178445833Y-80480952D01*
X178445833Y-80623809D01*
X178398214Y-80814285D01*
X178350595Y-80909523D01*
X178255357Y-81004761D01*
X178112500Y-81052380D01*
X177874404Y-81052380D01*
X178826785Y-80147619D02*
X178874404Y-80100000D01*
X178969642Y-80052380D01*
X179207738Y-80052380D01*
X179302976Y-80100000D01*
X179350595Y-80147619D01*
X179398214Y-80242857D01*
X179398214Y-80338095D01*
X179350595Y-80480952D01*
X178779166Y-81052380D01*
X179398214Y-81052380D01*
%TO.C,J1*%
X166141666Y-79948380D02*
X166141666Y-80662666D01*
X166094047Y-80805523D01*
X165998809Y-80900761D01*
X165855952Y-80948380D01*
X165760714Y-80948380D01*
X167141666Y-80948380D02*
X166570238Y-80948380D01*
X166855952Y-80948380D02*
X166855952Y-79948380D01*
X166760714Y-80091238D01*
X166665476Y-80186476D01*
X166570238Y-80234095D01*
%TO.C,R2*%
X176233333Y-76232380D02*
X175900000Y-75756190D01*
X175661904Y-76232380D02*
X175661904Y-75232380D01*
X176042857Y-75232380D01*
X176138095Y-75280000D01*
X176185714Y-75327619D01*
X176233333Y-75422857D01*
X176233333Y-75565714D01*
X176185714Y-75660952D01*
X176138095Y-75708571D01*
X176042857Y-75756190D01*
X175661904Y-75756190D01*
X176614285Y-75327619D02*
X176661904Y-75280000D01*
X176757142Y-75232380D01*
X176995238Y-75232380D01*
X177090476Y-75280000D01*
X177138095Y-75327619D01*
X177185714Y-75422857D01*
X177185714Y-75518095D01*
X177138095Y-75660952D01*
X176566666Y-76232380D01*
X177185714Y-76232380D01*
%TO.C,R3*%
X174533820Y-58810686D02*
X174057630Y-59144020D01*
X174533820Y-59382115D02*
X173533820Y-59382115D01*
X173533820Y-59001162D01*
X173581440Y-58905924D01*
X173629059Y-58858305D01*
X173724297Y-58810686D01*
X173867154Y-58810686D01*
X173962392Y-58858305D01*
X174010011Y-58905924D01*
X174057630Y-59001162D01*
X174057630Y-59382115D01*
X173533820Y-58477353D02*
X173533820Y-57858305D01*
X173914773Y-58191639D01*
X173914773Y-58048781D01*
X173962392Y-57953543D01*
X174010011Y-57905924D01*
X174105249Y-57858305D01*
X174343344Y-57858305D01*
X174438582Y-57905924D01*
X174486201Y-57953543D01*
X174533820Y-58048781D01*
X174533820Y-58334496D01*
X174486201Y-58429734D01*
X174438582Y-58477353D01*
%TO.C,R4*%
X168935680Y-59018466D02*
X168459490Y-59351800D01*
X168935680Y-59589895D02*
X167935680Y-59589895D01*
X167935680Y-59208942D01*
X167983300Y-59113704D01*
X168030919Y-59066085D01*
X168126157Y-59018466D01*
X168269014Y-59018466D01*
X168364252Y-59066085D01*
X168411871Y-59113704D01*
X168459490Y-59208942D01*
X168459490Y-59589895D01*
X168269014Y-58161323D02*
X168935680Y-58161323D01*
X167888061Y-58399419D02*
X168602347Y-58637514D01*
X168602347Y-58018466D01*
%TO.C,U1*%
X173977380Y-68706904D02*
X174786904Y-68706904D01*
X174882142Y-68659285D01*
X174929761Y-68611666D01*
X174977380Y-68516428D01*
X174977380Y-68325952D01*
X174929761Y-68230714D01*
X174882142Y-68183095D01*
X174786904Y-68135476D01*
X173977380Y-68135476D01*
X174977380Y-67135476D02*
X174977380Y-67706904D01*
X174977380Y-67421190D02*
X173977380Y-67421190D01*
X174120238Y-67516428D01*
X174215476Y-67611666D01*
X174263095Y-67706904D01*
%TO.C,R5*%
X174422380Y-84741666D02*
X173946190Y-85075000D01*
X174422380Y-85313095D02*
X173422380Y-85313095D01*
X173422380Y-84932142D01*
X173470000Y-84836904D01*
X173517619Y-84789285D01*
X173612857Y-84741666D01*
X173755714Y-84741666D01*
X173850952Y-84789285D01*
X173898571Y-84836904D01*
X173946190Y-84932142D01*
X173946190Y-85313095D01*
X173422380Y-83836904D02*
X173422380Y-84313095D01*
X173898571Y-84360714D01*
X173850952Y-84313095D01*
X173803333Y-84217857D01*
X173803333Y-83979761D01*
X173850952Y-83884523D01*
X173898571Y-83836904D01*
X173993809Y-83789285D01*
X174231904Y-83789285D01*
X174327142Y-83836904D01*
X174374761Y-83884523D01*
X174422380Y-83979761D01*
X174422380Y-84217857D01*
X174374761Y-84313095D01*
X174327142Y-84360714D01*
%TO.C,R6*%
X174422380Y-80591666D02*
X173946190Y-80925000D01*
X174422380Y-81163095D02*
X173422380Y-81163095D01*
X173422380Y-80782142D01*
X173470000Y-80686904D01*
X173517619Y-80639285D01*
X173612857Y-80591666D01*
X173755714Y-80591666D01*
X173850952Y-80639285D01*
X173898571Y-80686904D01*
X173946190Y-80782142D01*
X173946190Y-81163095D01*
X173422380Y-79734523D02*
X173422380Y-79925000D01*
X173470000Y-80020238D01*
X173517619Y-80067857D01*
X173660476Y-80163095D01*
X173850952Y-80210714D01*
X174231904Y-80210714D01*
X174327142Y-80163095D01*
X174374761Y-80115476D01*
X174422380Y-80020238D01*
X174422380Y-79829761D01*
X174374761Y-79734523D01*
X174327142Y-79686904D01*
X174231904Y-79639285D01*
X173993809Y-79639285D01*
X173898571Y-79686904D01*
X173850952Y-79734523D01*
X173803333Y-79829761D01*
X173803333Y-80020238D01*
X173850952Y-80115476D01*
X173898571Y-80163095D01*
X173993809Y-80210714D01*
%TD*%
M02*
