%TF.GenerationSoftware,KiCad,Pcbnew,(5.1.7)-1*%
%TF.CreationDate,2021-01-12T02:59:51-08:00*%
%TF.ProjectId,froggy,66726f67-6779-42e6-9b69-6361645f7063,rev?*%
%TF.SameCoordinates,Original*%
%TF.FileFunction,Copper,L1,Top*%
%TF.FilePolarity,Positive*%
%FSLAX46Y46*%
G04 Gerber Fmt 4.6, Leading zero omitted, Abs format (unit mm)*
G04 Created by KiCad (PCBNEW (5.1.7)-1) date 2021-01-12 02:59:51*
%MOMM*%
%LPD*%
G01*
G04 APERTURE LIST*
%TA.AperFunction,SMDPad,CuDef*%
%ADD10R,0.900000X0.900000*%
%TD*%
%TA.AperFunction,SMDPad,CuDef*%
%ADD11R,0.950000X1.200000*%
%TD*%
%TA.AperFunction,SMDPad,CuDef*%
%ADD12R,1.200000X0.880000*%
%TD*%
%TA.AperFunction,SMDPad,CuDef*%
%ADD13R,1.700000X1.030000*%
%TD*%
%TA.AperFunction,SMDPad,CuDef*%
%ADD14R,0.880000X1.250000*%
%TD*%
%TA.AperFunction,SMDPad,CuDef*%
%ADD15R,1.190000X2.300000*%
%TD*%
%TA.AperFunction,SMDPad,CuDef*%
%ADD16R,0.950000X2.170000*%
%TD*%
%TA.AperFunction,SMDPad,CuDef*%
%ADD17R,0.700000X0.950000*%
%TD*%
%TA.AperFunction,ConnectorPad*%
%ADD18R,1.000000X8.000000*%
%TD*%
%TA.AperFunction,ComponentPad*%
%ADD19C,0.700000*%
%TD*%
%TA.AperFunction,ComponentPad*%
%ADD20O,0.900000X2.400000*%
%TD*%
%TA.AperFunction,ComponentPad*%
%ADD21O,0.900000X1.700000*%
%TD*%
%TA.AperFunction,SMDPad,CuDef*%
%ADD22R,0.450000X1.750000*%
%TD*%
%TA.AperFunction,ViaPad*%
%ADD23C,0.800000*%
%TD*%
%TA.AperFunction,Conductor*%
%ADD24C,0.250000*%
%TD*%
%TA.AperFunction,Conductor*%
%ADD25C,0.254000*%
%TD*%
%TA.AperFunction,Conductor*%
%ADD26C,0.100000*%
%TD*%
G04 APERTURE END LIST*
D10*
%TO.P,J2,16*%
%TO.N,N/C*%
X197822000Y-79452000D03*
D11*
%TO.P,J2,15*%
X197822000Y-80862000D03*
D12*
%TO.P,J2,14*%
X192247000Y-74462000D03*
D13*
%TO.P,J2,13*%
X194647000Y-74537000D03*
%TO.P,J2,12*%
X189847000Y-74537000D03*
D14*
%TO.P,J2,11*%
X186637000Y-82647000D03*
D15*
%TO.P,J2,10*%
X186802000Y-86922000D03*
D16*
%TO.P,J2,9*%
%TO.N,GND*%
X197822000Y-86987000D03*
D17*
%TO.P,J2,8*%
%TO.N,/DAT1*%
X187747000Y-85087000D03*
%TO.P,J2,7*%
%TO.N,/DAT0*%
X188847000Y-85087000D03*
%TO.P,J2,6*%
%TO.N,GND*%
X189947000Y-85087000D03*
%TO.P,J2,5*%
%TO.N,/CLK*%
X191047000Y-85087000D03*
%TO.P,J2,4*%
%TO.N,+3V3*%
X192147000Y-85087000D03*
%TO.P,J2,3*%
%TO.N,/CMD*%
X193247000Y-85087000D03*
%TO.P,J2,2*%
%TO.N,/DAT3*%
X194347000Y-85087000D03*
%TO.P,J2,1*%
%TO.N,/DAT2*%
X195447000Y-85087000D03*
%TD*%
D18*
%TO.P,U2,30*%
%TO.N,GND*%
X197600000Y-39200000D03*
%TO.P,U2,29*%
%TO.N,/DAT2*%
X196300000Y-39200000D03*
%TO.P,U2,28*%
%TO.N,/DAT3*%
X195000000Y-39200000D03*
%TO.P,U2,27*%
%TO.N,/CMD*%
X193700000Y-39200000D03*
%TO.P,U2,26*%
%TO.N,GND*%
X192400000Y-39200000D03*
%TO.P,U2,25*%
%TO.N,+3V3*%
X191100000Y-39200000D03*
%TO.P,U2,24*%
%TO.N,/CLK*%
X189800000Y-39200000D03*
%TO.P,U2,23*%
%TO.N,GND*%
X188500000Y-39200000D03*
%TO.P,U2,22*%
%TO.N,/DAT0*%
X187200000Y-39200000D03*
%TO.P,U2,21*%
%TO.N,/DAT1*%
X185900000Y-39200000D03*
%TO.P,U2,20*%
%TO.N,/L_RX*%
X184600000Y-39200000D03*
%TO.P,U2,19*%
%TO.N,/L_TX*%
X183300000Y-39200000D03*
%TO.P,U2,18*%
%TO.N,GND*%
X182000000Y-39200000D03*
%TO.P,U2,17*%
%TO.N,Net-(U2-Pad17)*%
X180700000Y-39200000D03*
%TO.P,U2,16*%
%TO.N,Net-(U2-Pad16)*%
X179400000Y-39200000D03*
%TO.P,U2,15*%
%TO.N,Net-(U2-Pad15)*%
X178100000Y-39200000D03*
%TO.P,U2,14*%
%TO.N,Net-(U2-Pad14)*%
X176800000Y-39200000D03*
%TO.P,U2,13*%
%TO.N,Net-(U2-Pad13)*%
X175500000Y-39200000D03*
%TO.P,U2,12*%
%TO.N,Net-(U2-Pad12)*%
X174200000Y-39200000D03*
%TO.P,U2,11*%
%TO.N,Net-(U2-Pad11)*%
X172900000Y-39200000D03*
%TO.P,U2,10*%
%TO.N,Net-(U2-Pad10)*%
X171600000Y-39200000D03*
%TO.P,U2,9*%
%TO.N,GND*%
X170300000Y-39200000D03*
%TO.P,U2,8*%
%TO.N,+3V3*%
X169000000Y-39200000D03*
%TO.P,U2,7*%
%TO.N,Net-(U2-Pad7)*%
X167700000Y-39200000D03*
%TO.P,U2,6*%
%TO.N,Net-(U2-Pad6)*%
X166400000Y-39200000D03*
%TO.P,U2,5*%
%TO.N,Net-(U2-Pad5)*%
X165100000Y-39200000D03*
%TO.P,U2,4*%
%TO.N,Net-(U2-Pad4)*%
X163800000Y-39200000D03*
%TO.P,U2,3*%
%TO.N,Net-(U2-Pad3)*%
X162500000Y-39200000D03*
%TO.P,U2,2*%
%TO.N,Net-(U2-Pad2)*%
X161200000Y-39200000D03*
%TO.P,U2,1*%
%TO.N,Net-(U2-Pad1)*%
X159900000Y-39200000D03*
%TD*%
%TO.P,R1,2*%
%TO.N,Net-(J1-PadA5)*%
%TA.AperFunction,SMDPad,CuDef*%
G36*
G01*
X170950000Y-78275000D02*
X170950000Y-78825000D01*
G75*
G02*
X170750000Y-79025000I-200000J0D01*
G01*
X170350000Y-79025000D01*
G75*
G02*
X170150000Y-78825000I0J200000D01*
G01*
X170150000Y-78275000D01*
G75*
G02*
X170350000Y-78075000I200000J0D01*
G01*
X170750000Y-78075000D01*
G75*
G02*
X170950000Y-78275000I0J-200000D01*
G01*
G37*
%TD.AperFunction*%
%TO.P,R1,1*%
%TO.N,GND*%
%TA.AperFunction,SMDPad,CuDef*%
G36*
G01*
X172600000Y-78275000D02*
X172600000Y-78825000D01*
G75*
G02*
X172400000Y-79025000I-200000J0D01*
G01*
X172000000Y-79025000D01*
G75*
G02*
X171800000Y-78825000I0J200000D01*
G01*
X171800000Y-78275000D01*
G75*
G02*
X172000000Y-78075000I200000J0D01*
G01*
X172400000Y-78075000D01*
G75*
G02*
X172600000Y-78275000I0J-200000D01*
G01*
G37*
%TD.AperFunction*%
%TD*%
%TO.P,C1,2*%
%TO.N,+5V*%
%TA.AperFunction,SMDPad,CuDef*%
G36*
G01*
X167650000Y-79050000D02*
X168150000Y-79050000D01*
G75*
G02*
X168375000Y-79275000I0J-225000D01*
G01*
X168375000Y-79725000D01*
G75*
G02*
X168150000Y-79950000I-225000J0D01*
G01*
X167650000Y-79950000D01*
G75*
G02*
X167425000Y-79725000I0J225000D01*
G01*
X167425000Y-79275000D01*
G75*
G02*
X167650000Y-79050000I225000J0D01*
G01*
G37*
%TD.AperFunction*%
%TO.P,C1,1*%
%TO.N,GND*%
%TA.AperFunction,SMDPad,CuDef*%
G36*
G01*
X167650000Y-77500000D02*
X168150000Y-77500000D01*
G75*
G02*
X168375000Y-77725000I0J-225000D01*
G01*
X168375000Y-78175000D01*
G75*
G02*
X168150000Y-78400000I-225000J0D01*
G01*
X167650000Y-78400000D01*
G75*
G02*
X167425000Y-78175000I0J225000D01*
G01*
X167425000Y-77725000D01*
G75*
G02*
X167650000Y-77500000I225000J0D01*
G01*
G37*
%TD.AperFunction*%
%TD*%
%TO.P,C2,1*%
%TO.N,GND*%
%TA.AperFunction,SMDPad,CuDef*%
G36*
G01*
X164350000Y-59150000D02*
X164350000Y-58650000D01*
G75*
G02*
X164575000Y-58425000I225000J0D01*
G01*
X165025000Y-58425000D01*
G75*
G02*
X165250000Y-58650000I0J-225000D01*
G01*
X165250000Y-59150000D01*
G75*
G02*
X165025000Y-59375000I-225000J0D01*
G01*
X164575000Y-59375000D01*
G75*
G02*
X164350000Y-59150000I0J225000D01*
G01*
G37*
%TD.AperFunction*%
%TO.P,C2,2*%
%TO.N,+3V3*%
%TA.AperFunction,SMDPad,CuDef*%
G36*
G01*
X165900000Y-59150000D02*
X165900000Y-58650000D01*
G75*
G02*
X166125000Y-58425000I225000J0D01*
G01*
X166575000Y-58425000D01*
G75*
G02*
X166800000Y-58650000I0J-225000D01*
G01*
X166800000Y-59150000D01*
G75*
G02*
X166575000Y-59375000I-225000J0D01*
G01*
X166125000Y-59375000D01*
G75*
G02*
X165900000Y-59150000I0J225000D01*
G01*
G37*
%TD.AperFunction*%
%TD*%
%TO.P,C3,1*%
%TO.N,+5V*%
%TA.AperFunction,SMDPad,CuDef*%
G36*
G01*
X167650000Y-74075000D02*
X168150000Y-74075000D01*
G75*
G02*
X168375000Y-74300000I0J-225000D01*
G01*
X168375000Y-74750000D01*
G75*
G02*
X168150000Y-74975000I-225000J0D01*
G01*
X167650000Y-74975000D01*
G75*
G02*
X167425000Y-74750000I0J225000D01*
G01*
X167425000Y-74300000D01*
G75*
G02*
X167650000Y-74075000I225000J0D01*
G01*
G37*
%TD.AperFunction*%
%TO.P,C3,2*%
%TO.N,GND*%
%TA.AperFunction,SMDPad,CuDef*%
G36*
G01*
X167650000Y-75625000D02*
X168150000Y-75625000D01*
G75*
G02*
X168375000Y-75850000I0J-225000D01*
G01*
X168375000Y-76300000D01*
G75*
G02*
X168150000Y-76525000I-225000J0D01*
G01*
X167650000Y-76525000D01*
G75*
G02*
X167425000Y-76300000I0J225000D01*
G01*
X167425000Y-75850000D01*
G75*
G02*
X167650000Y-75625000I225000J0D01*
G01*
G37*
%TD.AperFunction*%
%TD*%
%TO.P,C4,2*%
%TO.N,Net-(C4-Pad2)*%
%TA.AperFunction,SMDPad,CuDef*%
G36*
G01*
X162890080Y-75185080D02*
X162890080Y-74685080D01*
G75*
G02*
X163115080Y-74460080I225000J0D01*
G01*
X163565080Y-74460080D01*
G75*
G02*
X163790080Y-74685080I0J-225000D01*
G01*
X163790080Y-75185080D01*
G75*
G02*
X163565080Y-75410080I-225000J0D01*
G01*
X163115080Y-75410080D01*
G75*
G02*
X162890080Y-75185080I0J225000D01*
G01*
G37*
%TD.AperFunction*%
%TO.P,C4,1*%
%TO.N,GND*%
%TA.AperFunction,SMDPad,CuDef*%
G36*
G01*
X161340080Y-75185080D02*
X161340080Y-74685080D01*
G75*
G02*
X161565080Y-74460080I225000J0D01*
G01*
X162015080Y-74460080D01*
G75*
G02*
X162240080Y-74685080I0J-225000D01*
G01*
X162240080Y-75185080D01*
G75*
G02*
X162015080Y-75410080I-225000J0D01*
G01*
X161565080Y-75410080D01*
G75*
G02*
X161340080Y-75185080I0J225000D01*
G01*
G37*
%TD.AperFunction*%
%TD*%
%TO.P,D1,2*%
%TO.N,+3V3*%
%TA.AperFunction,SMDPad,CuDef*%
G36*
G01*
X178962500Y-84856250D02*
X178962500Y-84343750D01*
G75*
G02*
X179181250Y-84125000I218750J0D01*
G01*
X179618750Y-84125000D01*
G75*
G02*
X179837500Y-84343750I0J-218750D01*
G01*
X179837500Y-84856250D01*
G75*
G02*
X179618750Y-85075000I-218750J0D01*
G01*
X179181250Y-85075000D01*
G75*
G02*
X178962500Y-84856250I0J218750D01*
G01*
G37*
%TD.AperFunction*%
%TO.P,D1,1*%
%TO.N,GND*%
%TA.AperFunction,SMDPad,CuDef*%
G36*
G01*
X177387500Y-84856250D02*
X177387500Y-84343750D01*
G75*
G02*
X177606250Y-84125000I218750J0D01*
G01*
X178043750Y-84125000D01*
G75*
G02*
X178262500Y-84343750I0J-218750D01*
G01*
X178262500Y-84856250D01*
G75*
G02*
X178043750Y-85075000I-218750J0D01*
G01*
X177606250Y-85075000D01*
G75*
G02*
X177387500Y-84856250I0J218750D01*
G01*
G37*
%TD.AperFunction*%
%TD*%
%TO.P,D2,1*%
%TO.N,GND*%
%TA.AperFunction,SMDPad,CuDef*%
G36*
G01*
X179837500Y-82143750D02*
X179837500Y-82656250D01*
G75*
G02*
X179618750Y-82875000I-218750J0D01*
G01*
X179181250Y-82875000D01*
G75*
G02*
X178962500Y-82656250I0J218750D01*
G01*
X178962500Y-82143750D01*
G75*
G02*
X179181250Y-81925000I218750J0D01*
G01*
X179618750Y-81925000D01*
G75*
G02*
X179837500Y-82143750I0J-218750D01*
G01*
G37*
%TD.AperFunction*%
%TO.P,D2,2*%
%TO.N,Net-(D2-Pad2)*%
%TA.AperFunction,SMDPad,CuDef*%
G36*
G01*
X178262500Y-82143750D02*
X178262500Y-82656250D01*
G75*
G02*
X178043750Y-82875000I-218750J0D01*
G01*
X177606250Y-82875000D01*
G75*
G02*
X177387500Y-82656250I0J218750D01*
G01*
X177387500Y-82143750D01*
G75*
G02*
X177606250Y-81925000I218750J0D01*
G01*
X178043750Y-81925000D01*
G75*
G02*
X178262500Y-82143750I0J-218750D01*
G01*
G37*
%TD.AperFunction*%
%TD*%
D19*
%TO.P,J1,A1*%
%TO.N,GND*%
X163500000Y-82296000D03*
%TO.P,J1,A4*%
%TO.N,+5V*%
X164350000Y-82296000D03*
%TO.P,J1,A5*%
%TO.N,Net-(J1-PadA5)*%
X165200000Y-82296000D03*
%TO.P,J1,A6*%
%TO.N,/D+*%
X166050000Y-82296000D03*
%TO.P,J1,A7*%
%TO.N,/D-*%
X166900000Y-82296000D03*
%TO.P,J1,A8*%
%TO.N,Net-(J1-PadA8)*%
X167750000Y-82296000D03*
%TO.P,J1,A9*%
%TO.N,+5V*%
X168600000Y-82296000D03*
%TO.P,J1,A12*%
%TO.N,GND*%
X169450000Y-82296000D03*
%TO.P,J1,B9*%
%TO.N,+5V*%
X164350000Y-83646000D03*
%TO.P,J1,B7*%
%TO.N,/D-*%
X166050000Y-83646000D03*
%TO.P,J1,B8*%
%TO.N,Net-(J1-PadB8)*%
X165200000Y-83646000D03*
%TO.P,J1,B12*%
%TO.N,GND*%
X163500000Y-83646000D03*
%TO.P,J1,B5*%
%TO.N,Net-(J1-PadB5)*%
X167750000Y-83646000D03*
%TO.P,J1,B4*%
%TO.N,+5V*%
X168600000Y-83646000D03*
%TO.P,J1,B1*%
%TO.N,GND*%
X169450000Y-83646000D03*
%TO.P,J1,B6*%
%TO.N,/D+*%
X166900000Y-83646000D03*
D20*
%TO.P,J1,S1*%
%TO.N,GND*%
X162150000Y-83276000D03*
X170800000Y-83276000D03*
D21*
X162150000Y-86656000D03*
X170800000Y-86656000D03*
%TD*%
%TO.P,R2,1*%
%TO.N,GND*%
%TA.AperFunction,SMDPad,CuDef*%
G36*
G01*
X177625000Y-74075000D02*
X177625000Y-74625000D01*
G75*
G02*
X177425000Y-74825000I-200000J0D01*
G01*
X177025000Y-74825000D01*
G75*
G02*
X176825000Y-74625000I0J200000D01*
G01*
X176825000Y-74075000D01*
G75*
G02*
X177025000Y-73875000I200000J0D01*
G01*
X177425000Y-73875000D01*
G75*
G02*
X177625000Y-74075000I0J-200000D01*
G01*
G37*
%TD.AperFunction*%
%TO.P,R2,2*%
%TO.N,Net-(J1-PadB5)*%
%TA.AperFunction,SMDPad,CuDef*%
G36*
G01*
X175975000Y-74075000D02*
X175975000Y-74625000D01*
G75*
G02*
X175775000Y-74825000I-200000J0D01*
G01*
X175375000Y-74825000D01*
G75*
G02*
X175175000Y-74625000I0J200000D01*
G01*
X175175000Y-74075000D01*
G75*
G02*
X175375000Y-73875000I200000J0D01*
G01*
X175775000Y-73875000D01*
G75*
G02*
X175975000Y-74075000I0J-200000D01*
G01*
G37*
%TD.AperFunction*%
%TD*%
%TO.P,R3,1*%
%TO.N,/L_RX*%
%TA.AperFunction,SMDPad,CuDef*%
G36*
G01*
X172206240Y-57647620D02*
X172756240Y-57647620D01*
G75*
G02*
X172956240Y-57847620I0J-200000D01*
G01*
X172956240Y-58247620D01*
G75*
G02*
X172756240Y-58447620I-200000J0D01*
G01*
X172206240Y-58447620D01*
G75*
G02*
X172006240Y-58247620I0J200000D01*
G01*
X172006240Y-57847620D01*
G75*
G02*
X172206240Y-57647620I200000J0D01*
G01*
G37*
%TD.AperFunction*%
%TO.P,R3,2*%
%TO.N,Net-(R3-Pad2)*%
%TA.AperFunction,SMDPad,CuDef*%
G36*
G01*
X172206240Y-59297620D02*
X172756240Y-59297620D01*
G75*
G02*
X172956240Y-59497620I0J-200000D01*
G01*
X172956240Y-59897620D01*
G75*
G02*
X172756240Y-60097620I-200000J0D01*
G01*
X172206240Y-60097620D01*
G75*
G02*
X172006240Y-59897620I0J200000D01*
G01*
X172006240Y-59497620D01*
G75*
G02*
X172206240Y-59297620I200000J0D01*
G01*
G37*
%TD.AperFunction*%
%TD*%
%TO.P,R4,2*%
%TO.N,/L_TX*%
%TA.AperFunction,SMDPad,CuDef*%
G36*
G01*
X170188300Y-58426800D02*
X169638300Y-58426800D01*
G75*
G02*
X169438300Y-58226800I0J200000D01*
G01*
X169438300Y-57826800D01*
G75*
G02*
X169638300Y-57626800I200000J0D01*
G01*
X170188300Y-57626800D01*
G75*
G02*
X170388300Y-57826800I0J-200000D01*
G01*
X170388300Y-58226800D01*
G75*
G02*
X170188300Y-58426800I-200000J0D01*
G01*
G37*
%TD.AperFunction*%
%TO.P,R4,1*%
%TO.N,Net-(R4-Pad1)*%
%TA.AperFunction,SMDPad,CuDef*%
G36*
G01*
X170188300Y-60076800D02*
X169638300Y-60076800D01*
G75*
G02*
X169438300Y-59876800I0J200000D01*
G01*
X169438300Y-59476800D01*
G75*
G02*
X169638300Y-59276800I200000J0D01*
G01*
X170188300Y-59276800D01*
G75*
G02*
X170388300Y-59476800I0J-200000D01*
G01*
X170388300Y-59876800D01*
G75*
G02*
X170188300Y-60076800I-200000J0D01*
G01*
G37*
%TD.AperFunction*%
%TD*%
D22*
%TO.P,U1,1*%
%TO.N,Net-(R3-Pad2)*%
X172500000Y-64345000D03*
%TO.P,U1,2*%
%TO.N,Net-(U1-Pad2)*%
X171850000Y-64345000D03*
%TO.P,U1,3*%
%TO.N,Net-(U1-Pad3)*%
X171200000Y-64345000D03*
%TO.P,U1,4*%
%TO.N,+3V3*%
X170550000Y-64345000D03*
%TO.P,U1,5*%
%TO.N,Net-(R4-Pad1)*%
X169900000Y-64345000D03*
%TO.P,U1,6*%
%TO.N,Net-(U1-Pad6)*%
X169250000Y-64345000D03*
%TO.P,U1,7*%
%TO.N,GND*%
X168600000Y-64345000D03*
%TO.P,U1,8*%
%TO.N,N/C*%
X167950000Y-64345000D03*
%TO.P,U1,9*%
%TO.N,Net-(U1-Pad9)*%
X167300000Y-64345000D03*
%TO.P,U1,10*%
%TO.N,Net-(U1-Pad10)*%
X166650000Y-64345000D03*
%TO.P,U1,11*%
%TO.N,Net-(U1-Pad11)*%
X166000000Y-64345000D03*
%TO.P,U1,12*%
%TO.N,Net-(U1-Pad12)*%
X165350000Y-64345000D03*
%TO.P,U1,13*%
%TO.N,Net-(U1-Pad13)*%
X164700000Y-64345000D03*
%TO.P,U1,14*%
%TO.N,Net-(U1-Pad14)*%
X164050000Y-64345000D03*
%TO.P,U1,15*%
%TO.N,/D+*%
X164050000Y-71545000D03*
%TO.P,U1,16*%
%TO.N,/D-*%
X164700000Y-71545000D03*
%TO.P,U1,17*%
%TO.N,Net-(C4-Pad2)*%
X165350000Y-71545000D03*
%TO.P,U1,18*%
%TO.N,GND*%
X166000000Y-71545000D03*
%TO.P,U1,19*%
%TO.N,Net-(U1-Pad19)*%
X166650000Y-71545000D03*
%TO.P,U1,20*%
%TO.N,+5V*%
X167300000Y-71545000D03*
%TO.P,U1,21*%
%TO.N,GND*%
X167950000Y-71545000D03*
%TO.P,U1,22*%
%TO.N,Net-(U1-Pad22)*%
X168600000Y-71545000D03*
%TO.P,U1,23*%
%TO.N,Net-(U1-Pad23)*%
X169250000Y-71545000D03*
%TO.P,U1,24*%
%TO.N,N/C*%
X169900000Y-71545000D03*
%TO.P,U1,25*%
%TO.N,GND*%
X170550000Y-71545000D03*
%TO.P,U1,26*%
%TO.N,Net-(U1-Pad26)*%
X171200000Y-71545000D03*
%TO.P,U1,27*%
%TO.N,Net-(U1-Pad27)*%
X171850000Y-71545000D03*
%TO.P,U1,28*%
%TO.N,Net-(U1-Pad28)*%
X172500000Y-71545000D03*
%TD*%
%TO.P,R5,1*%
%TO.N,+5V*%
%TA.AperFunction,SMDPad,CuDef*%
G36*
G01*
X175675000Y-85800000D02*
X175125000Y-85800000D01*
G75*
G02*
X174925000Y-85600000I0J200000D01*
G01*
X174925000Y-85200000D01*
G75*
G02*
X175125000Y-85000000I200000J0D01*
G01*
X175675000Y-85000000D01*
G75*
G02*
X175875000Y-85200000I0J-200000D01*
G01*
X175875000Y-85600000D01*
G75*
G02*
X175675000Y-85800000I-200000J0D01*
G01*
G37*
%TD.AperFunction*%
%TO.P,R5,2*%
%TO.N,Net-(D2-Pad2)*%
%TA.AperFunction,SMDPad,CuDef*%
G36*
G01*
X175675000Y-84150000D02*
X175125000Y-84150000D01*
G75*
G02*
X174925000Y-83950000I0J200000D01*
G01*
X174925000Y-83550000D01*
G75*
G02*
X175125000Y-83350000I200000J0D01*
G01*
X175675000Y-83350000D01*
G75*
G02*
X175875000Y-83550000I0J-200000D01*
G01*
X175875000Y-83950000D01*
G75*
G02*
X175675000Y-84150000I-200000J0D01*
G01*
G37*
%TD.AperFunction*%
%TD*%
%TO.P,R6,2*%
%TO.N,GND*%
%TA.AperFunction,SMDPad,CuDef*%
G36*
G01*
X175675000Y-80000000D02*
X175125000Y-80000000D01*
G75*
G02*
X174925000Y-79800000I0J200000D01*
G01*
X174925000Y-79400000D01*
G75*
G02*
X175125000Y-79200000I200000J0D01*
G01*
X175675000Y-79200000D01*
G75*
G02*
X175875000Y-79400000I0J-200000D01*
G01*
X175875000Y-79800000D01*
G75*
G02*
X175675000Y-80000000I-200000J0D01*
G01*
G37*
%TD.AperFunction*%
%TO.P,R6,1*%
%TO.N,Net-(D2-Pad2)*%
%TA.AperFunction,SMDPad,CuDef*%
G36*
G01*
X175675000Y-81650000D02*
X175125000Y-81650000D01*
G75*
G02*
X174925000Y-81450000I0J200000D01*
G01*
X174925000Y-81050000D01*
G75*
G02*
X175125000Y-80850000I200000J0D01*
G01*
X175675000Y-80850000D01*
G75*
G02*
X175875000Y-81050000I0J-200000D01*
G01*
X175875000Y-81450000D01*
G75*
G02*
X175675000Y-81650000I-200000J0D01*
G01*
G37*
%TD.AperFunction*%
%TD*%
D23*
%TO.N,*%
X186820000Y-86700000D03*
%TO.N,+5V*%
X167900000Y-74525000D03*
X167900000Y-79500000D03*
%TO.N,GND*%
X199000000Y-84000000D03*
X190000000Y-86800000D03*
X182000000Y-44200000D03*
X192400000Y-44200000D03*
X188500000Y-44200000D03*
%TO.N,+3V3*%
X171400000Y-61600000D03*
X166350000Y-58900000D03*
X192200000Y-87600000D03*
X192200000Y-72800000D03*
X192200000Y-77600000D03*
X179400000Y-84600000D03*
%TO.N,/D+*%
X162200000Y-72050000D03*
%TO.N,/D-*%
X164599927Y-73099927D03*
%TO.N,Net-(J1-PadB5)*%
X175575000Y-74350000D03*
%TO.N,/DAT3*%
X194400000Y-76400000D03*
X195000000Y-69600000D03*
%TO.N,/CLK*%
X189800000Y-72800000D03*
X191000000Y-83000000D03*
%TD*%
D24*
%TO.N,*%
X169200000Y-57100000D02*
X168900000Y-57400000D01*
%TO.N,+5V*%
X167289480Y-71555520D02*
X167300000Y-71545000D01*
X164350000Y-83646000D02*
X164350000Y-82296000D01*
X168600000Y-82296000D02*
X168600000Y-83646000D01*
X168600000Y-84140974D02*
X169940016Y-85480990D01*
X168600000Y-83646000D02*
X168600000Y-84140974D01*
X167300000Y-73925000D02*
X167900000Y-74525000D01*
X167300000Y-71545000D02*
X167300000Y-73925000D01*
X167644000Y-79756000D02*
X167900000Y-79500000D01*
X167900000Y-74525000D02*
X167900000Y-74525000D01*
X165690016Y-85480990D02*
X169940016Y-85480990D01*
X164350000Y-84140974D02*
X165690016Y-85480990D01*
X164350000Y-83646000D02*
X164350000Y-84140974D01*
X175319010Y-85480990D02*
X175400000Y-85400000D01*
X169940016Y-85480990D02*
X175319010Y-85480990D01*
%TO.N,GND*%
X177225000Y-74375000D02*
X177200000Y-74400000D01*
X177225000Y-74350000D02*
X177225000Y-74375000D01*
X169450000Y-83646000D02*
X169896000Y-83200000D01*
X170724000Y-83200000D02*
X170800000Y-83276000D01*
X169896000Y-83200000D02*
X170724000Y-83200000D01*
X163500000Y-82296000D02*
X162904000Y-81700000D01*
X163500000Y-82296000D02*
X162800000Y-81596000D01*
X163130000Y-83276000D02*
X163500000Y-83646000D01*
X162150000Y-83276000D02*
X163130000Y-83276000D01*
X168600000Y-62500000D02*
X168500000Y-62400000D01*
X168600000Y-64345000D02*
X168600000Y-62500000D01*
X170030002Y-73100000D02*
X169300000Y-73100000D01*
X170550000Y-72580002D02*
X170030002Y-73100000D01*
X170550000Y-71545000D02*
X170550000Y-72580002D01*
X168469998Y-73100000D02*
X169300000Y-73100000D01*
X167950000Y-72580002D02*
X168469998Y-73100000D01*
X167950000Y-71545000D02*
X167950000Y-72580002D01*
X166000000Y-71545000D02*
X166000000Y-72970000D01*
X166000000Y-72970000D02*
X166230000Y-73200000D01*
%TO.N,+3V3*%
X170550000Y-62450000D02*
X171400000Y-61600000D01*
X170550000Y-64345000D02*
X170550000Y-62450000D01*
X166300000Y-58850000D02*
X166350000Y-58900000D01*
X166350000Y-58900000D02*
X166350000Y-58900000D01*
X169000000Y-56250000D02*
X169000000Y-39200000D01*
X166350000Y-58900000D02*
X169000000Y-56250000D01*
X192200000Y-85140000D02*
X192147000Y-85087000D01*
X192200000Y-87600000D02*
X192200000Y-85140000D01*
X191100000Y-71700000D02*
X192200000Y-72800000D01*
X191100000Y-39200000D02*
X191100000Y-71700000D01*
X192200000Y-85034000D02*
X192147000Y-85087000D01*
X192200000Y-77600000D02*
X192200000Y-85034000D01*
%TO.N,Net-(C4-Pad2)*%
X165350000Y-73375160D02*
X165350000Y-71545000D01*
X163790080Y-74935080D02*
X165350000Y-73375160D01*
X163340080Y-74935080D02*
X163790080Y-74935080D01*
%TO.N,Net-(J1-PadA5)*%
X168000000Y-81000000D02*
X170450000Y-78550000D01*
X165200000Y-82146998D02*
X165200000Y-82296000D01*
X166346998Y-81000000D02*
X165200000Y-82146998D01*
X168000000Y-81000000D02*
X166346998Y-81000000D01*
%TO.N,/D+*%
X162705000Y-71545000D02*
X162200000Y-72050000D01*
X164050000Y-71545000D02*
X162705000Y-71545000D01*
X166900000Y-83496998D02*
X166900000Y-83646000D01*
X166050000Y-82646998D02*
X166900000Y-83496998D01*
X166050000Y-82296000D02*
X166050000Y-82646998D01*
%TO.N,/D-*%
X165960000Y-83496998D02*
X165960000Y-83646000D01*
X164700000Y-72999854D02*
X164599927Y-73099927D01*
X164700000Y-71545000D02*
X164700000Y-72999854D01*
%TO.N,Net-(J1-PadB5)*%
X175550000Y-74350000D02*
X175550000Y-74450000D01*
%TO.N,/DAT1*%
X187747000Y-76947000D02*
X187747000Y-85087000D01*
X185900000Y-75100000D02*
X187747000Y-76947000D01*
X185900000Y-39200000D02*
X185900000Y-75100000D01*
%TO.N,/DAT2*%
X196300000Y-84234000D02*
X196300000Y-39200000D01*
X195447000Y-85087000D02*
X196300000Y-84234000D01*
%TO.N,/DAT3*%
X194347000Y-76453000D02*
X194400000Y-76400000D01*
X194347000Y-85087000D02*
X194347000Y-76453000D01*
X195000000Y-39200000D02*
X195000000Y-69600000D01*
%TO.N,/CMD*%
X193700000Y-39200000D02*
X193700000Y-72500000D01*
X193247000Y-72953000D02*
X193247000Y-85087000D01*
X193700000Y-72500000D02*
X193247000Y-72953000D01*
%TO.N,/CLK*%
X189800000Y-39200000D02*
X189800000Y-72600000D01*
X191022001Y-85062001D02*
X191047000Y-85087000D01*
X189800000Y-72600000D02*
X189800000Y-72800000D01*
X191000000Y-85040000D02*
X191047000Y-85087000D01*
X191000000Y-83000000D02*
X191000000Y-85040000D01*
%TO.N,/DAT0*%
X188800000Y-85040000D02*
X188847000Y-85087000D01*
X188800000Y-75963590D02*
X188800000Y-85040000D01*
X187200000Y-74363590D02*
X187200000Y-39200000D01*
X188800000Y-75963590D02*
X187200000Y-74363590D01*
%TO.N,Net-(R3-Pad2)*%
X172481240Y-64326240D02*
X172500000Y-64345000D01*
X172481240Y-59697620D02*
X172481240Y-64326240D01*
%TO.N,Net-(R4-Pad1)*%
X169900000Y-59690100D02*
X169913300Y-59676800D01*
X169900000Y-64345000D02*
X169900000Y-59690100D01*
%TO.N,/L_TX*%
X183300000Y-45900000D02*
X183300000Y-39200000D01*
X171173200Y-58026800D02*
X183300000Y-45900000D01*
X169913300Y-58026800D02*
X171173200Y-58026800D01*
%TO.N,/L_RX*%
X184600000Y-45928860D02*
X184600000Y-39200000D01*
X172481240Y-58047620D02*
X184600000Y-45928860D01*
%TO.N,Net-(D2-Pad2)*%
X177425000Y-82400000D02*
X177625000Y-82600000D01*
X175400000Y-83750000D02*
X175400000Y-82400000D01*
X175400000Y-82400000D02*
X175400000Y-81250000D01*
X177625000Y-82400000D02*
X175400000Y-82400000D01*
%TD*%
D25*
%TO.N,GND*%
X199940001Y-87740000D02*
X198933796Y-87740000D01*
X198932000Y-87272750D01*
X198773250Y-87114000D01*
X197949000Y-87114000D01*
X197949000Y-87134000D01*
X197695000Y-87134000D01*
X197695000Y-87114000D01*
X196870750Y-87114000D01*
X196712000Y-87272750D01*
X196710204Y-87740000D01*
X193227429Y-87740000D01*
X193235000Y-87701939D01*
X193235000Y-87498061D01*
X193195226Y-87298102D01*
X193117205Y-87109744D01*
X193003937Y-86940226D01*
X192960000Y-86896289D01*
X192960000Y-86200072D01*
X193597000Y-86200072D01*
X193721482Y-86187812D01*
X193797000Y-86164904D01*
X193872518Y-86187812D01*
X193997000Y-86200072D01*
X194697000Y-86200072D01*
X194821482Y-86187812D01*
X194897000Y-86164904D01*
X194972518Y-86187812D01*
X195097000Y-86200072D01*
X195797000Y-86200072D01*
X195921482Y-86187812D01*
X196041180Y-86151502D01*
X196151494Y-86092537D01*
X196248185Y-86013185D01*
X196327537Y-85916494D01*
X196335284Y-85902000D01*
X196708928Y-85902000D01*
X196712000Y-86701250D01*
X196870750Y-86860000D01*
X197695000Y-86860000D01*
X197695000Y-85425750D01*
X197949000Y-85425750D01*
X197949000Y-86860000D01*
X198773250Y-86860000D01*
X198932000Y-86701250D01*
X198935072Y-85902000D01*
X198922812Y-85777518D01*
X198886502Y-85657820D01*
X198827537Y-85547506D01*
X198748185Y-85450815D01*
X198651494Y-85371463D01*
X198541180Y-85312498D01*
X198421482Y-85276188D01*
X198297000Y-85263928D01*
X198107750Y-85267000D01*
X197949000Y-85425750D01*
X197695000Y-85425750D01*
X197536250Y-85267000D01*
X197347000Y-85263928D01*
X197222518Y-85276188D01*
X197102820Y-85312498D01*
X196992506Y-85371463D01*
X196895815Y-85450815D01*
X196816463Y-85547506D01*
X196757498Y-85657820D01*
X196721188Y-85777518D01*
X196708928Y-85902000D01*
X196335284Y-85902000D01*
X196386502Y-85806180D01*
X196422812Y-85686482D01*
X196435072Y-85562000D01*
X196435072Y-85173730D01*
X196811004Y-84797798D01*
X196840001Y-84774001D01*
X196934974Y-84658276D01*
X197005546Y-84526247D01*
X197049003Y-84382986D01*
X197060000Y-84271333D01*
X197060000Y-84271324D01*
X197063676Y-84234001D01*
X197060000Y-84196678D01*
X197060000Y-82028614D01*
X197102820Y-82051502D01*
X197222518Y-82087812D01*
X197347000Y-82100072D01*
X198297000Y-82100072D01*
X198421482Y-82087812D01*
X198541180Y-82051502D01*
X198651494Y-81992537D01*
X198748185Y-81913185D01*
X198827537Y-81816494D01*
X198886502Y-81706180D01*
X198922812Y-81586482D01*
X198935072Y-81462000D01*
X198935072Y-80262000D01*
X198922812Y-80137518D01*
X198893471Y-80040793D01*
X198897812Y-80026482D01*
X198910072Y-79902000D01*
X198910072Y-79002000D01*
X198897812Y-78877518D01*
X198861502Y-78757820D01*
X198802537Y-78647506D01*
X198723185Y-78550815D01*
X198626494Y-78471463D01*
X198516180Y-78412498D01*
X198396482Y-78376188D01*
X198272000Y-78363928D01*
X197372000Y-78363928D01*
X197247518Y-78376188D01*
X197127820Y-78412498D01*
X197060000Y-78448749D01*
X197060000Y-43834132D01*
X197100000Y-43838072D01*
X197314250Y-43835000D01*
X197473000Y-43676250D01*
X197473000Y-39327000D01*
X197727000Y-39327000D01*
X197727000Y-43676250D01*
X197885750Y-43835000D01*
X198100000Y-43838072D01*
X198224482Y-43825812D01*
X198344180Y-43789502D01*
X198454494Y-43730537D01*
X198551185Y-43651185D01*
X198630537Y-43554494D01*
X198689502Y-43444180D01*
X198725812Y-43324482D01*
X198738072Y-43200000D01*
X198735000Y-39485750D01*
X198576250Y-39327000D01*
X197727000Y-39327000D01*
X197473000Y-39327000D01*
X197453000Y-39327000D01*
X197453000Y-39073000D01*
X197473000Y-39073000D01*
X197473000Y-39053000D01*
X197727000Y-39053000D01*
X197727000Y-39073000D01*
X198576250Y-39073000D01*
X198735000Y-38914250D01*
X198738022Y-35260000D01*
X199940000Y-35260000D01*
X199940001Y-87740000D01*
%TA.AperFunction,Conductor*%
D26*
G36*
X199940001Y-87740000D02*
G01*
X198933796Y-87740000D01*
X198932000Y-87272750D01*
X198773250Y-87114000D01*
X197949000Y-87114000D01*
X197949000Y-87134000D01*
X197695000Y-87134000D01*
X197695000Y-87114000D01*
X196870750Y-87114000D01*
X196712000Y-87272750D01*
X196710204Y-87740000D01*
X193227429Y-87740000D01*
X193235000Y-87701939D01*
X193235000Y-87498061D01*
X193195226Y-87298102D01*
X193117205Y-87109744D01*
X193003937Y-86940226D01*
X192960000Y-86896289D01*
X192960000Y-86200072D01*
X193597000Y-86200072D01*
X193721482Y-86187812D01*
X193797000Y-86164904D01*
X193872518Y-86187812D01*
X193997000Y-86200072D01*
X194697000Y-86200072D01*
X194821482Y-86187812D01*
X194897000Y-86164904D01*
X194972518Y-86187812D01*
X195097000Y-86200072D01*
X195797000Y-86200072D01*
X195921482Y-86187812D01*
X196041180Y-86151502D01*
X196151494Y-86092537D01*
X196248185Y-86013185D01*
X196327537Y-85916494D01*
X196335284Y-85902000D01*
X196708928Y-85902000D01*
X196712000Y-86701250D01*
X196870750Y-86860000D01*
X197695000Y-86860000D01*
X197695000Y-85425750D01*
X197949000Y-85425750D01*
X197949000Y-86860000D01*
X198773250Y-86860000D01*
X198932000Y-86701250D01*
X198935072Y-85902000D01*
X198922812Y-85777518D01*
X198886502Y-85657820D01*
X198827537Y-85547506D01*
X198748185Y-85450815D01*
X198651494Y-85371463D01*
X198541180Y-85312498D01*
X198421482Y-85276188D01*
X198297000Y-85263928D01*
X198107750Y-85267000D01*
X197949000Y-85425750D01*
X197695000Y-85425750D01*
X197536250Y-85267000D01*
X197347000Y-85263928D01*
X197222518Y-85276188D01*
X197102820Y-85312498D01*
X196992506Y-85371463D01*
X196895815Y-85450815D01*
X196816463Y-85547506D01*
X196757498Y-85657820D01*
X196721188Y-85777518D01*
X196708928Y-85902000D01*
X196335284Y-85902000D01*
X196386502Y-85806180D01*
X196422812Y-85686482D01*
X196435072Y-85562000D01*
X196435072Y-85173730D01*
X196811004Y-84797798D01*
X196840001Y-84774001D01*
X196934974Y-84658276D01*
X197005546Y-84526247D01*
X197049003Y-84382986D01*
X197060000Y-84271333D01*
X197060000Y-84271324D01*
X197063676Y-84234001D01*
X197060000Y-84196678D01*
X197060000Y-82028614D01*
X197102820Y-82051502D01*
X197222518Y-82087812D01*
X197347000Y-82100072D01*
X198297000Y-82100072D01*
X198421482Y-82087812D01*
X198541180Y-82051502D01*
X198651494Y-81992537D01*
X198748185Y-81913185D01*
X198827537Y-81816494D01*
X198886502Y-81706180D01*
X198922812Y-81586482D01*
X198935072Y-81462000D01*
X198935072Y-80262000D01*
X198922812Y-80137518D01*
X198893471Y-80040793D01*
X198897812Y-80026482D01*
X198910072Y-79902000D01*
X198910072Y-79002000D01*
X198897812Y-78877518D01*
X198861502Y-78757820D01*
X198802537Y-78647506D01*
X198723185Y-78550815D01*
X198626494Y-78471463D01*
X198516180Y-78412498D01*
X198396482Y-78376188D01*
X198272000Y-78363928D01*
X197372000Y-78363928D01*
X197247518Y-78376188D01*
X197127820Y-78412498D01*
X197060000Y-78448749D01*
X197060000Y-43834132D01*
X197100000Y-43838072D01*
X197314250Y-43835000D01*
X197473000Y-43676250D01*
X197473000Y-39327000D01*
X197727000Y-39327000D01*
X197727000Y-43676250D01*
X197885750Y-43835000D01*
X198100000Y-43838072D01*
X198224482Y-43825812D01*
X198344180Y-43789502D01*
X198454494Y-43730537D01*
X198551185Y-43651185D01*
X198630537Y-43554494D01*
X198689502Y-43444180D01*
X198725812Y-43324482D01*
X198738072Y-43200000D01*
X198735000Y-39485750D01*
X198576250Y-39327000D01*
X197727000Y-39327000D01*
X197473000Y-39327000D01*
X197453000Y-39327000D01*
X197453000Y-39073000D01*
X197473000Y-39073000D01*
X197473000Y-39053000D01*
X197727000Y-39053000D01*
X197727000Y-39073000D01*
X198576250Y-39073000D01*
X198735000Y-38914250D01*
X198738022Y-35260000D01*
X199940000Y-35260000D01*
X199940001Y-87740000D01*
G37*
%TD.AperFunction*%
D25*
X158761928Y-43200000D02*
X158774188Y-43324482D01*
X158810498Y-43444180D01*
X158869463Y-43554494D01*
X158948815Y-43651185D01*
X159045506Y-43730537D01*
X159155820Y-43789502D01*
X159275518Y-43825812D01*
X159400000Y-43838072D01*
X160400000Y-43838072D01*
X160524482Y-43825812D01*
X160550000Y-43818071D01*
X160575518Y-43825812D01*
X160700000Y-43838072D01*
X161700000Y-43838072D01*
X161824482Y-43825812D01*
X161850000Y-43818071D01*
X161875518Y-43825812D01*
X162000000Y-43838072D01*
X163000000Y-43838072D01*
X163124482Y-43825812D01*
X163150000Y-43818071D01*
X163175518Y-43825812D01*
X163300000Y-43838072D01*
X164300000Y-43838072D01*
X164424482Y-43825812D01*
X164450000Y-43818071D01*
X164475518Y-43825812D01*
X164600000Y-43838072D01*
X165600000Y-43838072D01*
X165724482Y-43825812D01*
X165750000Y-43818071D01*
X165775518Y-43825812D01*
X165900000Y-43838072D01*
X166900000Y-43838072D01*
X167024482Y-43825812D01*
X167050000Y-43818071D01*
X167075518Y-43825812D01*
X167200000Y-43838072D01*
X168200000Y-43838072D01*
X168240001Y-43834132D01*
X168240000Y-55935198D01*
X166388271Y-57786928D01*
X166125000Y-57786928D01*
X165956623Y-57803512D01*
X165794717Y-57852625D01*
X165648649Y-57930700D01*
X165604494Y-57894463D01*
X165494180Y-57835498D01*
X165374482Y-57799188D01*
X165250000Y-57786928D01*
X165085750Y-57790000D01*
X164927000Y-57948750D01*
X164927000Y-58773000D01*
X164947000Y-58773000D01*
X164947000Y-59027000D01*
X164927000Y-59027000D01*
X164927000Y-59851250D01*
X165085750Y-60010000D01*
X165250000Y-60013072D01*
X165374482Y-60000812D01*
X165494180Y-59964502D01*
X165604494Y-59905537D01*
X165648649Y-59869300D01*
X165794717Y-59947375D01*
X165956623Y-59996488D01*
X166125000Y-60013072D01*
X166575000Y-60013072D01*
X166743377Y-59996488D01*
X166905283Y-59947375D01*
X167054497Y-59867618D01*
X167185284Y-59760284D01*
X167292618Y-59629497D01*
X167372375Y-59480283D01*
X167421488Y-59318377D01*
X167438072Y-59150000D01*
X167438072Y-58886729D01*
X168916045Y-57408757D01*
X168864022Y-57506084D01*
X168816331Y-57663300D01*
X168800228Y-57826800D01*
X168800228Y-58226800D01*
X168816331Y-58390300D01*
X168864022Y-58547516D01*
X168941469Y-58692408D01*
X169045694Y-58819406D01*
X169085166Y-58851800D01*
X169045694Y-58884194D01*
X168941469Y-59011192D01*
X168864022Y-59156084D01*
X168816331Y-59313300D01*
X168800228Y-59476800D01*
X168800228Y-59876800D01*
X168816331Y-60040300D01*
X168864022Y-60197516D01*
X168941469Y-60342408D01*
X169045694Y-60469406D01*
X169140001Y-60546802D01*
X169140000Y-62831928D01*
X169025000Y-62831928D01*
X168922162Y-62842056D01*
X168856750Y-62835000D01*
X168824503Y-62867247D01*
X168780820Y-62880498D01*
X168670506Y-62939463D01*
X168600000Y-62997326D01*
X168529494Y-62939463D01*
X168419180Y-62880498D01*
X168375497Y-62867247D01*
X168343250Y-62835000D01*
X168277838Y-62842056D01*
X168175000Y-62831928D01*
X167725000Y-62831928D01*
X167625000Y-62841777D01*
X167525000Y-62831928D01*
X167075000Y-62831928D01*
X166975000Y-62841777D01*
X166875000Y-62831928D01*
X166425000Y-62831928D01*
X166325000Y-62841777D01*
X166225000Y-62831928D01*
X165775000Y-62831928D01*
X165675000Y-62841777D01*
X165575000Y-62831928D01*
X165125000Y-62831928D01*
X165025000Y-62841777D01*
X164925000Y-62831928D01*
X164475000Y-62831928D01*
X164375000Y-62841777D01*
X164275000Y-62831928D01*
X163825000Y-62831928D01*
X163700518Y-62844188D01*
X163580820Y-62880498D01*
X163470506Y-62939463D01*
X163373815Y-63018815D01*
X163294463Y-63115506D01*
X163235498Y-63225820D01*
X163199188Y-63345518D01*
X163186928Y-63470000D01*
X163186928Y-65220000D01*
X163199188Y-65344482D01*
X163235498Y-65464180D01*
X163294463Y-65574494D01*
X163373815Y-65671185D01*
X163470506Y-65750537D01*
X163580820Y-65809502D01*
X163700518Y-65845812D01*
X163825000Y-65858072D01*
X164275000Y-65858072D01*
X164375000Y-65848223D01*
X164475000Y-65858072D01*
X164925000Y-65858072D01*
X165025000Y-65848223D01*
X165125000Y-65858072D01*
X165575000Y-65858072D01*
X165675000Y-65848223D01*
X165775000Y-65858072D01*
X166225000Y-65858072D01*
X166325000Y-65848223D01*
X166425000Y-65858072D01*
X166875000Y-65858072D01*
X166975000Y-65848223D01*
X167075000Y-65858072D01*
X167525000Y-65858072D01*
X167625000Y-65848223D01*
X167725000Y-65858072D01*
X168175000Y-65858072D01*
X168277838Y-65847944D01*
X168343250Y-65855000D01*
X168375497Y-65822753D01*
X168419180Y-65809502D01*
X168529494Y-65750537D01*
X168600000Y-65692674D01*
X168670506Y-65750537D01*
X168780820Y-65809502D01*
X168824503Y-65822753D01*
X168856750Y-65855000D01*
X168922162Y-65847944D01*
X169025000Y-65858072D01*
X169475000Y-65858072D01*
X169575000Y-65848223D01*
X169675000Y-65858072D01*
X170125000Y-65858072D01*
X170225000Y-65848223D01*
X170325000Y-65858072D01*
X170775000Y-65858072D01*
X170875000Y-65848223D01*
X170975000Y-65858072D01*
X171425000Y-65858072D01*
X171525000Y-65848223D01*
X171625000Y-65858072D01*
X172075000Y-65858072D01*
X172175000Y-65848223D01*
X172275000Y-65858072D01*
X172725000Y-65858072D01*
X172849482Y-65845812D01*
X172969180Y-65809502D01*
X173079494Y-65750537D01*
X173176185Y-65671185D01*
X173255537Y-65574494D01*
X173314502Y-65464180D01*
X173350812Y-65344482D01*
X173363072Y-65220000D01*
X173363072Y-63470000D01*
X173350812Y-63345518D01*
X173314502Y-63225820D01*
X173255537Y-63115506D01*
X173241240Y-63098085D01*
X173241240Y-60578536D01*
X173348846Y-60490226D01*
X173453071Y-60363228D01*
X173530518Y-60218336D01*
X173578209Y-60061120D01*
X173594312Y-59897620D01*
X173594312Y-59497620D01*
X173578209Y-59334120D01*
X173530518Y-59176904D01*
X173453071Y-59032012D01*
X173348846Y-58905014D01*
X173309374Y-58872620D01*
X173348846Y-58840226D01*
X173453071Y-58713228D01*
X173530518Y-58568336D01*
X173578209Y-58411120D01*
X173594312Y-58247620D01*
X173594312Y-58009349D01*
X185111004Y-46492658D01*
X185140000Y-46468862D01*
X185140001Y-75062667D01*
X185136324Y-75100000D01*
X185140001Y-75137333D01*
X185150998Y-75248986D01*
X185158587Y-75274003D01*
X185194454Y-75392246D01*
X185265026Y-75524276D01*
X185323941Y-75596063D01*
X185360000Y-75640001D01*
X185388998Y-75663799D01*
X186987000Y-77261803D01*
X186987001Y-81383928D01*
X186197000Y-81383928D01*
X186072518Y-81396188D01*
X185952820Y-81432498D01*
X185842506Y-81491463D01*
X185745815Y-81570815D01*
X185666463Y-81667506D01*
X185607498Y-81777820D01*
X185571188Y-81897518D01*
X185558928Y-82022000D01*
X185558928Y-83272000D01*
X185571188Y-83396482D01*
X185607498Y-83516180D01*
X185666463Y-83626494D01*
X185745815Y-83723185D01*
X185842506Y-83802537D01*
X185952820Y-83861502D01*
X186072518Y-83897812D01*
X186197000Y-83910072D01*
X186987001Y-83910072D01*
X186987001Y-84127015D01*
X186945815Y-84160815D01*
X186866463Y-84257506D01*
X186807498Y-84367820D01*
X186771188Y-84487518D01*
X186758928Y-84612000D01*
X186758928Y-85133928D01*
X186207000Y-85133928D01*
X186082518Y-85146188D01*
X185962820Y-85182498D01*
X185852506Y-85241463D01*
X185755815Y-85320815D01*
X185676463Y-85417506D01*
X185617498Y-85527820D01*
X185581188Y-85647518D01*
X185568928Y-85772000D01*
X185568928Y-87740000D01*
X171648540Y-87740000D01*
X171753809Y-87588545D01*
X171839376Y-87392233D01*
X171885000Y-87183000D01*
X171885000Y-86783000D01*
X170927000Y-86783000D01*
X170927000Y-86803000D01*
X170673000Y-86803000D01*
X170673000Y-86783000D01*
X169715000Y-86783000D01*
X169715000Y-87183000D01*
X169760624Y-87392233D01*
X169846191Y-87588545D01*
X169951460Y-87740000D01*
X162998540Y-87740000D01*
X163103809Y-87588545D01*
X163189376Y-87392233D01*
X163235000Y-87183000D01*
X163235000Y-86783000D01*
X162277000Y-86783000D01*
X162277000Y-86803000D01*
X162023000Y-86803000D01*
X162023000Y-86783000D01*
X161065000Y-86783000D01*
X161065000Y-87183000D01*
X161110624Y-87392233D01*
X161196191Y-87588545D01*
X161301460Y-87740000D01*
X157460000Y-87740000D01*
X157460000Y-86129000D01*
X161065000Y-86129000D01*
X161065000Y-86529000D01*
X162023000Y-86529000D01*
X162023000Y-85338498D01*
X162277000Y-85338498D01*
X162277000Y-86529000D01*
X163235000Y-86529000D01*
X163235000Y-86129000D01*
X163189376Y-85919767D01*
X163103809Y-85723455D01*
X162981587Y-85547609D01*
X162827408Y-85398986D01*
X162647197Y-85283298D01*
X162444001Y-85211592D01*
X162277000Y-85338498D01*
X162023000Y-85338498D01*
X161855999Y-85211592D01*
X161652803Y-85283298D01*
X161472592Y-85398986D01*
X161318413Y-85547609D01*
X161196191Y-85723455D01*
X161110624Y-85919767D01*
X161065000Y-86129000D01*
X157460000Y-86129000D01*
X157460000Y-83403000D01*
X161065000Y-83403000D01*
X161065000Y-84153000D01*
X161110624Y-84362233D01*
X161196191Y-84558545D01*
X161318413Y-84734391D01*
X161472592Y-84883014D01*
X161652803Y-84998702D01*
X161855999Y-85070408D01*
X162023000Y-84943502D01*
X162023000Y-83403000D01*
X161065000Y-83403000D01*
X157460000Y-83403000D01*
X157460000Y-82399000D01*
X161065000Y-82399000D01*
X161065000Y-83149000D01*
X162023000Y-83149000D01*
X162023000Y-81608498D01*
X162277000Y-81608498D01*
X162277000Y-83149000D01*
X162823392Y-83149000D01*
X162829480Y-83155088D01*
X162631233Y-83171784D01*
X162555411Y-83350384D01*
X162544464Y-83403000D01*
X162277000Y-83403000D01*
X162277000Y-84943502D01*
X162444001Y-85070408D01*
X162647197Y-84998702D01*
X162827408Y-84883014D01*
X162981587Y-84734391D01*
X163103809Y-84558545D01*
X163107728Y-84549555D01*
X163204384Y-84590589D01*
X163394344Y-84630110D01*
X163588364Y-84631813D01*
X163745220Y-84602041D01*
X163810000Y-84680975D01*
X163838998Y-84704773D01*
X165126217Y-85991993D01*
X165150015Y-86020991D01*
X165265740Y-86115964D01*
X165397769Y-86186536D01*
X165541030Y-86229993D01*
X165652683Y-86240990D01*
X165652693Y-86240990D01*
X165690016Y-86244666D01*
X165727339Y-86240990D01*
X169715000Y-86240990D01*
X169715000Y-86529000D01*
X170673000Y-86529000D01*
X170673000Y-86509000D01*
X170927000Y-86509000D01*
X170927000Y-86529000D01*
X171885000Y-86529000D01*
X171885000Y-86240990D01*
X174591350Y-86240990D01*
X174659392Y-86296831D01*
X174804284Y-86374278D01*
X174961500Y-86421969D01*
X175125000Y-86438072D01*
X175675000Y-86438072D01*
X175838500Y-86421969D01*
X175995716Y-86374278D01*
X176140608Y-86296831D01*
X176267606Y-86192606D01*
X176371831Y-86065608D01*
X176449278Y-85920716D01*
X176496969Y-85763500D01*
X176513072Y-85600000D01*
X176513072Y-85200000D01*
X176500761Y-85075000D01*
X176749428Y-85075000D01*
X176761688Y-85199482D01*
X176797998Y-85319180D01*
X176856963Y-85429494D01*
X176936315Y-85526185D01*
X177033006Y-85605537D01*
X177143320Y-85664502D01*
X177263018Y-85700812D01*
X177387500Y-85713072D01*
X177539250Y-85710000D01*
X177698000Y-85551250D01*
X177698000Y-84727000D01*
X176911250Y-84727000D01*
X176752500Y-84885750D01*
X176749428Y-85075000D01*
X176500761Y-85075000D01*
X176496969Y-85036500D01*
X176449278Y-84879284D01*
X176371831Y-84734392D01*
X176267606Y-84607394D01*
X176228134Y-84575000D01*
X176267606Y-84542606D01*
X176371831Y-84415608D01*
X176449278Y-84270716D01*
X176496969Y-84113500D01*
X176513072Y-83950000D01*
X176513072Y-83550000D01*
X176496969Y-83386500D01*
X176449278Y-83229284D01*
X176412245Y-83160000D01*
X176916582Y-83160000D01*
X177000385Y-83262115D01*
X177130225Y-83368671D01*
X177278358Y-83447850D01*
X177408589Y-83487355D01*
X177387500Y-83486928D01*
X177263018Y-83499188D01*
X177143320Y-83535498D01*
X177033006Y-83594463D01*
X176936315Y-83673815D01*
X176856963Y-83770506D01*
X176797998Y-83880820D01*
X176761688Y-84000518D01*
X176749428Y-84125000D01*
X176752500Y-84314250D01*
X176911250Y-84473000D01*
X177698000Y-84473000D01*
X177698000Y-84453000D01*
X177952000Y-84453000D01*
X177952000Y-84473000D01*
X177972000Y-84473000D01*
X177972000Y-84727000D01*
X177952000Y-84727000D01*
X177952000Y-85551250D01*
X178110750Y-85710000D01*
X178262500Y-85713072D01*
X178386982Y-85700812D01*
X178506680Y-85664502D01*
X178616994Y-85605537D01*
X178683570Y-85550900D01*
X178705225Y-85568671D01*
X178853358Y-85647850D01*
X179014092Y-85696608D01*
X179181250Y-85713072D01*
X179618750Y-85713072D01*
X179785908Y-85696608D01*
X179946642Y-85647850D01*
X180094775Y-85568671D01*
X180224615Y-85462115D01*
X180331171Y-85332275D01*
X180410350Y-85184142D01*
X180459108Y-85023408D01*
X180475572Y-84856250D01*
X180475572Y-84343750D01*
X180459108Y-84176592D01*
X180410350Y-84015858D01*
X180331171Y-83867725D01*
X180224615Y-83737885D01*
X180094775Y-83631329D01*
X179946642Y-83552150D01*
X179816411Y-83512645D01*
X179837500Y-83513072D01*
X179961982Y-83500812D01*
X180081680Y-83464502D01*
X180191994Y-83405537D01*
X180288685Y-83326185D01*
X180368037Y-83229494D01*
X180427002Y-83119180D01*
X180463312Y-82999482D01*
X180475572Y-82875000D01*
X180472500Y-82685750D01*
X180313750Y-82527000D01*
X179527000Y-82527000D01*
X179527000Y-82547000D01*
X179273000Y-82547000D01*
X179273000Y-82527000D01*
X179253000Y-82527000D01*
X179253000Y-82273000D01*
X179273000Y-82273000D01*
X179273000Y-81448750D01*
X179527000Y-81448750D01*
X179527000Y-82273000D01*
X180313750Y-82273000D01*
X180472500Y-82114250D01*
X180475572Y-81925000D01*
X180463312Y-81800518D01*
X180427002Y-81680820D01*
X180368037Y-81570506D01*
X180288685Y-81473815D01*
X180191994Y-81394463D01*
X180081680Y-81335498D01*
X179961982Y-81299188D01*
X179837500Y-81286928D01*
X179685750Y-81290000D01*
X179527000Y-81448750D01*
X179273000Y-81448750D01*
X179114250Y-81290000D01*
X178962500Y-81286928D01*
X178838018Y-81299188D01*
X178718320Y-81335498D01*
X178608006Y-81394463D01*
X178541430Y-81449100D01*
X178519775Y-81431329D01*
X178371642Y-81352150D01*
X178210908Y-81303392D01*
X178043750Y-81286928D01*
X177606250Y-81286928D01*
X177439092Y-81303392D01*
X177278358Y-81352150D01*
X177130225Y-81431329D01*
X177000385Y-81537885D01*
X176916582Y-81640000D01*
X176488930Y-81640000D01*
X176496969Y-81613500D01*
X176513072Y-81450000D01*
X176513072Y-81050000D01*
X176496969Y-80886500D01*
X176449278Y-80729284D01*
X176371831Y-80584392D01*
X176288137Y-80482410D01*
X176326185Y-80451185D01*
X176405537Y-80354494D01*
X176464502Y-80244180D01*
X176500812Y-80124482D01*
X176513072Y-80000000D01*
X176510000Y-79885750D01*
X176351250Y-79727000D01*
X175527000Y-79727000D01*
X175527000Y-79747000D01*
X175273000Y-79747000D01*
X175273000Y-79727000D01*
X174448750Y-79727000D01*
X174290000Y-79885750D01*
X174286928Y-80000000D01*
X174299188Y-80124482D01*
X174335498Y-80244180D01*
X174394463Y-80354494D01*
X174473815Y-80451185D01*
X174511863Y-80482410D01*
X174428169Y-80584392D01*
X174350722Y-80729284D01*
X174303031Y-80886500D01*
X174286928Y-81050000D01*
X174286928Y-81450000D01*
X174303031Y-81613500D01*
X174350722Y-81770716D01*
X174428169Y-81915608D01*
X174532394Y-82042606D01*
X174640000Y-82130917D01*
X174640000Y-82362667D01*
X174636323Y-82400000D01*
X174640001Y-82437342D01*
X174640001Y-82869083D01*
X174532394Y-82957394D01*
X174428169Y-83084392D01*
X174350722Y-83229284D01*
X174303031Y-83386500D01*
X174286928Y-83550000D01*
X174286928Y-83950000D01*
X174303031Y-84113500D01*
X174350722Y-84270716D01*
X174428169Y-84415608D01*
X174532394Y-84542606D01*
X174571866Y-84575000D01*
X174532394Y-84607394D01*
X174439168Y-84720990D01*
X171640901Y-84720990D01*
X171753809Y-84558545D01*
X171839376Y-84362233D01*
X171885000Y-84153000D01*
X171885000Y-83403000D01*
X170927000Y-83403000D01*
X170927000Y-83423000D01*
X170673000Y-83423000D01*
X170673000Y-83403000D01*
X170406463Y-83403000D01*
X170399632Y-83367011D01*
X170326957Y-83187107D01*
X170318767Y-83171784D01*
X170120520Y-83155088D01*
X170126608Y-83149000D01*
X170673000Y-83149000D01*
X170673000Y-81608498D01*
X170927000Y-81608498D01*
X170927000Y-83149000D01*
X171885000Y-83149000D01*
X171885000Y-82399000D01*
X171839376Y-82189767D01*
X171753809Y-81993455D01*
X171631587Y-81817609D01*
X171477408Y-81668986D01*
X171297197Y-81553298D01*
X171094001Y-81481592D01*
X170927000Y-81608498D01*
X170673000Y-81608498D01*
X170505999Y-81481592D01*
X170302803Y-81553298D01*
X170122592Y-81668986D01*
X169968413Y-81817609D01*
X169846191Y-81993455D01*
X169779775Y-82145830D01*
X169629605Y-82296000D01*
X169643748Y-82310143D01*
X169585000Y-82368890D01*
X169585000Y-82198986D01*
X169548899Y-82017496D01*
X169940912Y-81625483D01*
X169924216Y-81427233D01*
X169745616Y-81351411D01*
X169555656Y-81311890D01*
X169361636Y-81310187D01*
X169171011Y-81346368D01*
X169024349Y-81405615D01*
X168887314Y-81348853D01*
X168752720Y-81322081D01*
X170411730Y-79663072D01*
X170750000Y-79663072D01*
X170913500Y-79646969D01*
X171070716Y-79599278D01*
X171215608Y-79521831D01*
X171317590Y-79438137D01*
X171348815Y-79476185D01*
X171445506Y-79555537D01*
X171555820Y-79614502D01*
X171675518Y-79650812D01*
X171800000Y-79663072D01*
X171914250Y-79660000D01*
X172073000Y-79501250D01*
X172073000Y-78677000D01*
X172327000Y-78677000D01*
X172327000Y-79501250D01*
X172485750Y-79660000D01*
X172600000Y-79663072D01*
X172724482Y-79650812D01*
X172844180Y-79614502D01*
X172954494Y-79555537D01*
X173051185Y-79476185D01*
X173130537Y-79379494D01*
X173189502Y-79269180D01*
X173210487Y-79200000D01*
X174286928Y-79200000D01*
X174290000Y-79314250D01*
X174448750Y-79473000D01*
X175273000Y-79473000D01*
X175273000Y-78723750D01*
X175527000Y-78723750D01*
X175527000Y-79473000D01*
X176351250Y-79473000D01*
X176510000Y-79314250D01*
X176513072Y-79200000D01*
X176500812Y-79075518D01*
X176464502Y-78955820D01*
X176405537Y-78845506D01*
X176326185Y-78748815D01*
X176229494Y-78669463D01*
X176119180Y-78610498D01*
X175999482Y-78574188D01*
X175875000Y-78561928D01*
X175685750Y-78565000D01*
X175527000Y-78723750D01*
X175273000Y-78723750D01*
X175114250Y-78565000D01*
X174925000Y-78561928D01*
X174800518Y-78574188D01*
X174680820Y-78610498D01*
X174570506Y-78669463D01*
X174473815Y-78748815D01*
X174394463Y-78845506D01*
X174335498Y-78955820D01*
X174299188Y-79075518D01*
X174286928Y-79200000D01*
X173210487Y-79200000D01*
X173225812Y-79149482D01*
X173238072Y-79025000D01*
X173235000Y-78835750D01*
X173076250Y-78677000D01*
X172327000Y-78677000D01*
X172073000Y-78677000D01*
X172053000Y-78677000D01*
X172053000Y-78423000D01*
X172073000Y-78423000D01*
X172073000Y-77598750D01*
X172327000Y-77598750D01*
X172327000Y-78423000D01*
X173076250Y-78423000D01*
X173235000Y-78264250D01*
X173238072Y-78075000D01*
X173225812Y-77950518D01*
X173189502Y-77830820D01*
X173130537Y-77720506D01*
X173051185Y-77623815D01*
X172954494Y-77544463D01*
X172844180Y-77485498D01*
X172724482Y-77449188D01*
X172600000Y-77436928D01*
X172485750Y-77440000D01*
X172327000Y-77598750D01*
X172073000Y-77598750D01*
X171914250Y-77440000D01*
X171800000Y-77436928D01*
X171675518Y-77449188D01*
X171555820Y-77485498D01*
X171445506Y-77544463D01*
X171348815Y-77623815D01*
X171317590Y-77661863D01*
X171215608Y-77578169D01*
X171070716Y-77500722D01*
X170913500Y-77453031D01*
X170750000Y-77436928D01*
X170350000Y-77436928D01*
X170186500Y-77453031D01*
X170029284Y-77500722D01*
X169884392Y-77578169D01*
X169757394Y-77682394D01*
X169653169Y-77809392D01*
X169575722Y-77954284D01*
X169528031Y-78111500D01*
X169511928Y-78275000D01*
X169511928Y-78413270D01*
X168955080Y-78970118D01*
X168947375Y-78944717D01*
X168869300Y-78798649D01*
X168905537Y-78754494D01*
X168964502Y-78644180D01*
X169000812Y-78524482D01*
X169013072Y-78400000D01*
X169010000Y-78235750D01*
X168851250Y-78077000D01*
X168027000Y-78077000D01*
X168027000Y-78097000D01*
X167773000Y-78097000D01*
X167773000Y-78077000D01*
X166948750Y-78077000D01*
X166790000Y-78235750D01*
X166786928Y-78400000D01*
X166799188Y-78524482D01*
X166835498Y-78644180D01*
X166894463Y-78754494D01*
X166930700Y-78798649D01*
X166852625Y-78944717D01*
X166803512Y-79106623D01*
X166786928Y-79275000D01*
X166786928Y-79725000D01*
X166803512Y-79893377D01*
X166852625Y-80055283D01*
X166932382Y-80204497D01*
X166961519Y-80240000D01*
X166384320Y-80240000D01*
X166346997Y-80236324D01*
X166309674Y-80240000D01*
X166309665Y-80240000D01*
X166198012Y-80250997D01*
X166054751Y-80294454D01*
X165922721Y-80365026D01*
X165840460Y-80432537D01*
X165806997Y-80459999D01*
X165783199Y-80488997D01*
X164925990Y-81346207D01*
X164912686Y-81348853D01*
X164775000Y-81405884D01*
X164637314Y-81348853D01*
X164447014Y-81311000D01*
X164252986Y-81311000D01*
X164062686Y-81348853D01*
X163924458Y-81406109D01*
X163795616Y-81351411D01*
X163605656Y-81311890D01*
X163411636Y-81310187D01*
X163221011Y-81346368D01*
X163041107Y-81419043D01*
X163025784Y-81427233D01*
X163009088Y-81625483D01*
X163401101Y-82017496D01*
X163365000Y-82198986D01*
X163365000Y-82368890D01*
X163306253Y-82310143D01*
X163320395Y-82296000D01*
X163170225Y-82145830D01*
X163103809Y-81993455D01*
X162981587Y-81817609D01*
X162827408Y-81668986D01*
X162647197Y-81553298D01*
X162444001Y-81481592D01*
X162277000Y-81608498D01*
X162023000Y-81608498D01*
X161855999Y-81481592D01*
X161652803Y-81553298D01*
X161472592Y-81668986D01*
X161318413Y-81817609D01*
X161196191Y-81993455D01*
X161110624Y-82189767D01*
X161065000Y-82399000D01*
X157460000Y-82399000D01*
X157460000Y-76525000D01*
X166786928Y-76525000D01*
X166799188Y-76649482D01*
X166835498Y-76769180D01*
X166894463Y-76879494D01*
X166973815Y-76976185D01*
X167018065Y-77012500D01*
X166973815Y-77048815D01*
X166894463Y-77145506D01*
X166835498Y-77255820D01*
X166799188Y-77375518D01*
X166786928Y-77500000D01*
X166790000Y-77664250D01*
X166948750Y-77823000D01*
X167773000Y-77823000D01*
X167773000Y-77023750D01*
X167761750Y-77012500D01*
X167773000Y-77001250D01*
X167773000Y-76202000D01*
X168027000Y-76202000D01*
X168027000Y-77001250D01*
X168038250Y-77012500D01*
X168027000Y-77023750D01*
X168027000Y-77823000D01*
X168851250Y-77823000D01*
X169010000Y-77664250D01*
X169013072Y-77500000D01*
X169000812Y-77375518D01*
X168964502Y-77255820D01*
X168905537Y-77145506D01*
X168826185Y-77048815D01*
X168781935Y-77012500D01*
X168826185Y-76976185D01*
X168905537Y-76879494D01*
X168964502Y-76769180D01*
X169000812Y-76649482D01*
X169013072Y-76525000D01*
X169010000Y-76360750D01*
X168851250Y-76202000D01*
X168027000Y-76202000D01*
X167773000Y-76202000D01*
X166948750Y-76202000D01*
X166790000Y-76360750D01*
X166786928Y-76525000D01*
X157460000Y-76525000D01*
X157460000Y-75410080D01*
X160702008Y-75410080D01*
X160714268Y-75534562D01*
X160750578Y-75654260D01*
X160809543Y-75764574D01*
X160888895Y-75861265D01*
X160985586Y-75940617D01*
X161095900Y-75999582D01*
X161215598Y-76035892D01*
X161340080Y-76048152D01*
X161504330Y-76045080D01*
X161663080Y-75886330D01*
X161663080Y-75062080D01*
X160863830Y-75062080D01*
X160705080Y-75220830D01*
X160702008Y-75410080D01*
X157460000Y-75410080D01*
X157460000Y-74460080D01*
X160702008Y-74460080D01*
X160705080Y-74649330D01*
X160863830Y-74808080D01*
X161663080Y-74808080D01*
X161663080Y-73983830D01*
X161504330Y-73825080D01*
X161340080Y-73822008D01*
X161215598Y-73834268D01*
X161095900Y-73870578D01*
X160985586Y-73929543D01*
X160888895Y-74008895D01*
X160809543Y-74105586D01*
X160750578Y-74215900D01*
X160714268Y-74335598D01*
X160702008Y-74460080D01*
X157460000Y-74460080D01*
X157460000Y-71948061D01*
X161165000Y-71948061D01*
X161165000Y-72151939D01*
X161204774Y-72351898D01*
X161282795Y-72540256D01*
X161396063Y-72709774D01*
X161540226Y-72853937D01*
X161709744Y-72967205D01*
X161898102Y-73045226D01*
X162098061Y-73085000D01*
X162301939Y-73085000D01*
X162501898Y-73045226D01*
X162690256Y-72967205D01*
X162859774Y-72853937D01*
X163003937Y-72709774D01*
X163117205Y-72540256D01*
X163186928Y-72371931D01*
X163186928Y-72420000D01*
X163199188Y-72544482D01*
X163235498Y-72664180D01*
X163294463Y-72774494D01*
X163373815Y-72871185D01*
X163470506Y-72950537D01*
X163564927Y-73001007D01*
X163564927Y-73201866D01*
X163604701Y-73401825D01*
X163682722Y-73590183D01*
X163795990Y-73759701D01*
X163843324Y-73807035D01*
X163793541Y-73856818D01*
X163733457Y-73838592D01*
X163565080Y-73822008D01*
X163115080Y-73822008D01*
X162946703Y-73838592D01*
X162784797Y-73887705D01*
X162638729Y-73965780D01*
X162594574Y-73929543D01*
X162484260Y-73870578D01*
X162364562Y-73834268D01*
X162240080Y-73822008D01*
X162075830Y-73825080D01*
X161917080Y-73983830D01*
X161917080Y-74808080D01*
X161937080Y-74808080D01*
X161937080Y-75062080D01*
X161917080Y-75062080D01*
X161917080Y-75886330D01*
X162075830Y-76045080D01*
X162240080Y-76048152D01*
X162364562Y-76035892D01*
X162484260Y-75999582D01*
X162594574Y-75940617D01*
X162638729Y-75904380D01*
X162784797Y-75982455D01*
X162946703Y-76031568D01*
X163115080Y-76048152D01*
X163565080Y-76048152D01*
X163733457Y-76031568D01*
X163895363Y-75982455D01*
X164044577Y-75902698D01*
X164175364Y-75795364D01*
X164282698Y-75664577D01*
X164362455Y-75515363D01*
X164396356Y-75403605D01*
X165861004Y-73938958D01*
X165890001Y-73915161D01*
X165935481Y-73859744D01*
X165984974Y-73799437D01*
X166055546Y-73667407D01*
X166058386Y-73658044D01*
X166099003Y-73524146D01*
X166110000Y-73412493D01*
X166110000Y-73412483D01*
X166113676Y-73375161D01*
X166110000Y-73337838D01*
X166110000Y-73055000D01*
X166127002Y-73055000D01*
X166127002Y-72980735D01*
X166180820Y-73009502D01*
X166224503Y-73022753D01*
X166256750Y-73055000D01*
X166322162Y-73047944D01*
X166425000Y-73058072D01*
X166540001Y-73058072D01*
X166540001Y-73887668D01*
X166536324Y-73925000D01*
X166540001Y-73962333D01*
X166550998Y-74073986D01*
X166559109Y-74100724D01*
X166594454Y-74217246D01*
X166665026Y-74349276D01*
X166726415Y-74424078D01*
X166760000Y-74465001D01*
X166786928Y-74487100D01*
X166786928Y-74750000D01*
X166803512Y-74918377D01*
X166852625Y-75080283D01*
X166930700Y-75226351D01*
X166894463Y-75270506D01*
X166835498Y-75380820D01*
X166799188Y-75500518D01*
X166786928Y-75625000D01*
X166790000Y-75789250D01*
X166948750Y-75948000D01*
X167773000Y-75948000D01*
X167773000Y-75928000D01*
X168027000Y-75928000D01*
X168027000Y-75948000D01*
X168851250Y-75948000D01*
X169010000Y-75789250D01*
X169013072Y-75625000D01*
X169000812Y-75500518D01*
X168964502Y-75380820D01*
X168905537Y-75270506D01*
X168869300Y-75226351D01*
X168947375Y-75080283D01*
X168996488Y-74918377D01*
X169013072Y-74750000D01*
X169013072Y-74300000D01*
X168996488Y-74131623D01*
X168979312Y-74075000D01*
X174536928Y-74075000D01*
X174536928Y-74625000D01*
X174553031Y-74788500D01*
X174600722Y-74945716D01*
X174678169Y-75090608D01*
X174782394Y-75217606D01*
X174909392Y-75321831D01*
X175054284Y-75399278D01*
X175211500Y-75446969D01*
X175375000Y-75463072D01*
X175775000Y-75463072D01*
X175938500Y-75446969D01*
X176095716Y-75399278D01*
X176240608Y-75321831D01*
X176342590Y-75238137D01*
X176373815Y-75276185D01*
X176470506Y-75355537D01*
X176580820Y-75414502D01*
X176700518Y-75450812D01*
X176825000Y-75463072D01*
X176939250Y-75460000D01*
X177098000Y-75301250D01*
X177098000Y-74477000D01*
X177352000Y-74477000D01*
X177352000Y-75301250D01*
X177510750Y-75460000D01*
X177625000Y-75463072D01*
X177749482Y-75450812D01*
X177869180Y-75414502D01*
X177979494Y-75355537D01*
X178076185Y-75276185D01*
X178155537Y-75179494D01*
X178214502Y-75069180D01*
X178250812Y-74949482D01*
X178263072Y-74825000D01*
X178260000Y-74635750D01*
X178101250Y-74477000D01*
X177352000Y-74477000D01*
X177098000Y-74477000D01*
X177078000Y-74477000D01*
X177078000Y-74223000D01*
X177098000Y-74223000D01*
X177098000Y-73398750D01*
X177352000Y-73398750D01*
X177352000Y-74223000D01*
X178101250Y-74223000D01*
X178260000Y-74064250D01*
X178263072Y-73875000D01*
X178250812Y-73750518D01*
X178214502Y-73630820D01*
X178155537Y-73520506D01*
X178076185Y-73423815D01*
X177979494Y-73344463D01*
X177869180Y-73285498D01*
X177749482Y-73249188D01*
X177625000Y-73236928D01*
X177510750Y-73240000D01*
X177352000Y-73398750D01*
X177098000Y-73398750D01*
X176939250Y-73240000D01*
X176825000Y-73236928D01*
X176700518Y-73249188D01*
X176580820Y-73285498D01*
X176470506Y-73344463D01*
X176373815Y-73423815D01*
X176342590Y-73461863D01*
X176240608Y-73378169D01*
X176095716Y-73300722D01*
X175938500Y-73253031D01*
X175775000Y-73236928D01*
X175375000Y-73236928D01*
X175211500Y-73253031D01*
X175054284Y-73300722D01*
X174909392Y-73378169D01*
X174782394Y-73482394D01*
X174678169Y-73609392D01*
X174600722Y-73754284D01*
X174553031Y-73911500D01*
X174536928Y-74075000D01*
X168979312Y-74075000D01*
X168947375Y-73969717D01*
X168867618Y-73820503D01*
X168760284Y-73689716D01*
X168629497Y-73582382D01*
X168480283Y-73502625D01*
X168318377Y-73453512D01*
X168150000Y-73436928D01*
X168060000Y-73436928D01*
X168060000Y-73055000D01*
X168077002Y-73055000D01*
X168077002Y-72980735D01*
X168130820Y-73009502D01*
X168174503Y-73022753D01*
X168206750Y-73055000D01*
X168272162Y-73047944D01*
X168375000Y-73058072D01*
X168825000Y-73058072D01*
X168925000Y-73048223D01*
X169025000Y-73058072D01*
X169475000Y-73058072D01*
X169575000Y-73048223D01*
X169675000Y-73058072D01*
X170125000Y-73058072D01*
X170227838Y-73047944D01*
X170293250Y-73055000D01*
X170325497Y-73022753D01*
X170369180Y-73009502D01*
X170479494Y-72950537D01*
X170550000Y-72892674D01*
X170620506Y-72950537D01*
X170730820Y-73009502D01*
X170774503Y-73022753D01*
X170806750Y-73055000D01*
X170872162Y-73047944D01*
X170975000Y-73058072D01*
X171425000Y-73058072D01*
X171525000Y-73048223D01*
X171625000Y-73058072D01*
X172075000Y-73058072D01*
X172175000Y-73048223D01*
X172275000Y-73058072D01*
X172725000Y-73058072D01*
X172849482Y-73045812D01*
X172969180Y-73009502D01*
X173079494Y-72950537D01*
X173176185Y-72871185D01*
X173255537Y-72774494D01*
X173314502Y-72664180D01*
X173350812Y-72544482D01*
X173363072Y-72420000D01*
X173363072Y-70670000D01*
X173350812Y-70545518D01*
X173314502Y-70425820D01*
X173255537Y-70315506D01*
X173176185Y-70218815D01*
X173079494Y-70139463D01*
X172969180Y-70080498D01*
X172849482Y-70044188D01*
X172725000Y-70031928D01*
X172275000Y-70031928D01*
X172175000Y-70041777D01*
X172075000Y-70031928D01*
X171625000Y-70031928D01*
X171525000Y-70041777D01*
X171425000Y-70031928D01*
X170975000Y-70031928D01*
X170872162Y-70042056D01*
X170806750Y-70035000D01*
X170774503Y-70067247D01*
X170730820Y-70080498D01*
X170620506Y-70139463D01*
X170550000Y-70197326D01*
X170479494Y-70139463D01*
X170369180Y-70080498D01*
X170325497Y-70067247D01*
X170293250Y-70035000D01*
X170227838Y-70042056D01*
X170125000Y-70031928D01*
X169675000Y-70031928D01*
X169575000Y-70041777D01*
X169475000Y-70031928D01*
X169025000Y-70031928D01*
X168925000Y-70041777D01*
X168825000Y-70031928D01*
X168375000Y-70031928D01*
X168272162Y-70042056D01*
X168206750Y-70035000D01*
X168174503Y-70067247D01*
X168130820Y-70080498D01*
X168020506Y-70139463D01*
X167950000Y-70197326D01*
X167879494Y-70139463D01*
X167769180Y-70080498D01*
X167725497Y-70067247D01*
X167693250Y-70035000D01*
X167627838Y-70042056D01*
X167525000Y-70031928D01*
X167075000Y-70031928D01*
X166975000Y-70041777D01*
X166875000Y-70031928D01*
X166425000Y-70031928D01*
X166322162Y-70042056D01*
X166256750Y-70035000D01*
X166224503Y-70067247D01*
X166180820Y-70080498D01*
X166070506Y-70139463D01*
X166000000Y-70197326D01*
X165929494Y-70139463D01*
X165819180Y-70080498D01*
X165775497Y-70067247D01*
X165743250Y-70035000D01*
X165677838Y-70042056D01*
X165575000Y-70031928D01*
X165125000Y-70031928D01*
X165025000Y-70041777D01*
X164925000Y-70031928D01*
X164475000Y-70031928D01*
X164375000Y-70041777D01*
X164275000Y-70031928D01*
X163825000Y-70031928D01*
X163700518Y-70044188D01*
X163580820Y-70080498D01*
X163470506Y-70139463D01*
X163373815Y-70218815D01*
X163294463Y-70315506D01*
X163235498Y-70425820D01*
X163199188Y-70545518D01*
X163186928Y-70670000D01*
X163186928Y-70785000D01*
X162742323Y-70785000D01*
X162705000Y-70781324D01*
X162667677Y-70785000D01*
X162667667Y-70785000D01*
X162556014Y-70795997D01*
X162412753Y-70839454D01*
X162280724Y-70910026D01*
X162164999Y-71004999D01*
X162156791Y-71015000D01*
X162098061Y-71015000D01*
X161898102Y-71054774D01*
X161709744Y-71132795D01*
X161540226Y-71246063D01*
X161396063Y-71390226D01*
X161282795Y-71559744D01*
X161204774Y-71748102D01*
X161165000Y-71948061D01*
X157460000Y-71948061D01*
X157460000Y-59375000D01*
X163711928Y-59375000D01*
X163724188Y-59499482D01*
X163760498Y-59619180D01*
X163819463Y-59729494D01*
X163898815Y-59826185D01*
X163995506Y-59905537D01*
X164105820Y-59964502D01*
X164225518Y-60000812D01*
X164350000Y-60013072D01*
X164514250Y-60010000D01*
X164673000Y-59851250D01*
X164673000Y-59027000D01*
X163873750Y-59027000D01*
X163715000Y-59185750D01*
X163711928Y-59375000D01*
X157460000Y-59375000D01*
X157460000Y-58425000D01*
X163711928Y-58425000D01*
X163715000Y-58614250D01*
X163873750Y-58773000D01*
X164673000Y-58773000D01*
X164673000Y-57948750D01*
X164514250Y-57790000D01*
X164350000Y-57786928D01*
X164225518Y-57799188D01*
X164105820Y-57835498D01*
X163995506Y-57894463D01*
X163898815Y-57973815D01*
X163819463Y-58070506D01*
X163760498Y-58180820D01*
X163724188Y-58300518D01*
X163711928Y-58425000D01*
X157460000Y-58425000D01*
X157460000Y-35260000D01*
X158761928Y-35260000D01*
X158761928Y-43200000D01*
%TA.AperFunction,Conductor*%
D26*
G36*
X158761928Y-43200000D02*
G01*
X158774188Y-43324482D01*
X158810498Y-43444180D01*
X158869463Y-43554494D01*
X158948815Y-43651185D01*
X159045506Y-43730537D01*
X159155820Y-43789502D01*
X159275518Y-43825812D01*
X159400000Y-43838072D01*
X160400000Y-43838072D01*
X160524482Y-43825812D01*
X160550000Y-43818071D01*
X160575518Y-43825812D01*
X160700000Y-43838072D01*
X161700000Y-43838072D01*
X161824482Y-43825812D01*
X161850000Y-43818071D01*
X161875518Y-43825812D01*
X162000000Y-43838072D01*
X163000000Y-43838072D01*
X163124482Y-43825812D01*
X163150000Y-43818071D01*
X163175518Y-43825812D01*
X163300000Y-43838072D01*
X164300000Y-43838072D01*
X164424482Y-43825812D01*
X164450000Y-43818071D01*
X164475518Y-43825812D01*
X164600000Y-43838072D01*
X165600000Y-43838072D01*
X165724482Y-43825812D01*
X165750000Y-43818071D01*
X165775518Y-43825812D01*
X165900000Y-43838072D01*
X166900000Y-43838072D01*
X167024482Y-43825812D01*
X167050000Y-43818071D01*
X167075518Y-43825812D01*
X167200000Y-43838072D01*
X168200000Y-43838072D01*
X168240001Y-43834132D01*
X168240000Y-55935198D01*
X166388271Y-57786928D01*
X166125000Y-57786928D01*
X165956623Y-57803512D01*
X165794717Y-57852625D01*
X165648649Y-57930700D01*
X165604494Y-57894463D01*
X165494180Y-57835498D01*
X165374482Y-57799188D01*
X165250000Y-57786928D01*
X165085750Y-57790000D01*
X164927000Y-57948750D01*
X164927000Y-58773000D01*
X164947000Y-58773000D01*
X164947000Y-59027000D01*
X164927000Y-59027000D01*
X164927000Y-59851250D01*
X165085750Y-60010000D01*
X165250000Y-60013072D01*
X165374482Y-60000812D01*
X165494180Y-59964502D01*
X165604494Y-59905537D01*
X165648649Y-59869300D01*
X165794717Y-59947375D01*
X165956623Y-59996488D01*
X166125000Y-60013072D01*
X166575000Y-60013072D01*
X166743377Y-59996488D01*
X166905283Y-59947375D01*
X167054497Y-59867618D01*
X167185284Y-59760284D01*
X167292618Y-59629497D01*
X167372375Y-59480283D01*
X167421488Y-59318377D01*
X167438072Y-59150000D01*
X167438072Y-58886729D01*
X168916045Y-57408757D01*
X168864022Y-57506084D01*
X168816331Y-57663300D01*
X168800228Y-57826800D01*
X168800228Y-58226800D01*
X168816331Y-58390300D01*
X168864022Y-58547516D01*
X168941469Y-58692408D01*
X169045694Y-58819406D01*
X169085166Y-58851800D01*
X169045694Y-58884194D01*
X168941469Y-59011192D01*
X168864022Y-59156084D01*
X168816331Y-59313300D01*
X168800228Y-59476800D01*
X168800228Y-59876800D01*
X168816331Y-60040300D01*
X168864022Y-60197516D01*
X168941469Y-60342408D01*
X169045694Y-60469406D01*
X169140001Y-60546802D01*
X169140000Y-62831928D01*
X169025000Y-62831928D01*
X168922162Y-62842056D01*
X168856750Y-62835000D01*
X168824503Y-62867247D01*
X168780820Y-62880498D01*
X168670506Y-62939463D01*
X168600000Y-62997326D01*
X168529494Y-62939463D01*
X168419180Y-62880498D01*
X168375497Y-62867247D01*
X168343250Y-62835000D01*
X168277838Y-62842056D01*
X168175000Y-62831928D01*
X167725000Y-62831928D01*
X167625000Y-62841777D01*
X167525000Y-62831928D01*
X167075000Y-62831928D01*
X166975000Y-62841777D01*
X166875000Y-62831928D01*
X166425000Y-62831928D01*
X166325000Y-62841777D01*
X166225000Y-62831928D01*
X165775000Y-62831928D01*
X165675000Y-62841777D01*
X165575000Y-62831928D01*
X165125000Y-62831928D01*
X165025000Y-62841777D01*
X164925000Y-62831928D01*
X164475000Y-62831928D01*
X164375000Y-62841777D01*
X164275000Y-62831928D01*
X163825000Y-62831928D01*
X163700518Y-62844188D01*
X163580820Y-62880498D01*
X163470506Y-62939463D01*
X163373815Y-63018815D01*
X163294463Y-63115506D01*
X163235498Y-63225820D01*
X163199188Y-63345518D01*
X163186928Y-63470000D01*
X163186928Y-65220000D01*
X163199188Y-65344482D01*
X163235498Y-65464180D01*
X163294463Y-65574494D01*
X163373815Y-65671185D01*
X163470506Y-65750537D01*
X163580820Y-65809502D01*
X163700518Y-65845812D01*
X163825000Y-65858072D01*
X164275000Y-65858072D01*
X164375000Y-65848223D01*
X164475000Y-65858072D01*
X164925000Y-65858072D01*
X165025000Y-65848223D01*
X165125000Y-65858072D01*
X165575000Y-65858072D01*
X165675000Y-65848223D01*
X165775000Y-65858072D01*
X166225000Y-65858072D01*
X166325000Y-65848223D01*
X166425000Y-65858072D01*
X166875000Y-65858072D01*
X166975000Y-65848223D01*
X167075000Y-65858072D01*
X167525000Y-65858072D01*
X167625000Y-65848223D01*
X167725000Y-65858072D01*
X168175000Y-65858072D01*
X168277838Y-65847944D01*
X168343250Y-65855000D01*
X168375497Y-65822753D01*
X168419180Y-65809502D01*
X168529494Y-65750537D01*
X168600000Y-65692674D01*
X168670506Y-65750537D01*
X168780820Y-65809502D01*
X168824503Y-65822753D01*
X168856750Y-65855000D01*
X168922162Y-65847944D01*
X169025000Y-65858072D01*
X169475000Y-65858072D01*
X169575000Y-65848223D01*
X169675000Y-65858072D01*
X170125000Y-65858072D01*
X170225000Y-65848223D01*
X170325000Y-65858072D01*
X170775000Y-65858072D01*
X170875000Y-65848223D01*
X170975000Y-65858072D01*
X171425000Y-65858072D01*
X171525000Y-65848223D01*
X171625000Y-65858072D01*
X172075000Y-65858072D01*
X172175000Y-65848223D01*
X172275000Y-65858072D01*
X172725000Y-65858072D01*
X172849482Y-65845812D01*
X172969180Y-65809502D01*
X173079494Y-65750537D01*
X173176185Y-65671185D01*
X173255537Y-65574494D01*
X173314502Y-65464180D01*
X173350812Y-65344482D01*
X173363072Y-65220000D01*
X173363072Y-63470000D01*
X173350812Y-63345518D01*
X173314502Y-63225820D01*
X173255537Y-63115506D01*
X173241240Y-63098085D01*
X173241240Y-60578536D01*
X173348846Y-60490226D01*
X173453071Y-60363228D01*
X173530518Y-60218336D01*
X173578209Y-60061120D01*
X173594312Y-59897620D01*
X173594312Y-59497620D01*
X173578209Y-59334120D01*
X173530518Y-59176904D01*
X173453071Y-59032012D01*
X173348846Y-58905014D01*
X173309374Y-58872620D01*
X173348846Y-58840226D01*
X173453071Y-58713228D01*
X173530518Y-58568336D01*
X173578209Y-58411120D01*
X173594312Y-58247620D01*
X173594312Y-58009349D01*
X185111004Y-46492658D01*
X185140000Y-46468862D01*
X185140001Y-75062667D01*
X185136324Y-75100000D01*
X185140001Y-75137333D01*
X185150998Y-75248986D01*
X185158587Y-75274003D01*
X185194454Y-75392246D01*
X185265026Y-75524276D01*
X185323941Y-75596063D01*
X185360000Y-75640001D01*
X185388998Y-75663799D01*
X186987000Y-77261803D01*
X186987001Y-81383928D01*
X186197000Y-81383928D01*
X186072518Y-81396188D01*
X185952820Y-81432498D01*
X185842506Y-81491463D01*
X185745815Y-81570815D01*
X185666463Y-81667506D01*
X185607498Y-81777820D01*
X185571188Y-81897518D01*
X185558928Y-82022000D01*
X185558928Y-83272000D01*
X185571188Y-83396482D01*
X185607498Y-83516180D01*
X185666463Y-83626494D01*
X185745815Y-83723185D01*
X185842506Y-83802537D01*
X185952820Y-83861502D01*
X186072518Y-83897812D01*
X186197000Y-83910072D01*
X186987001Y-83910072D01*
X186987001Y-84127015D01*
X186945815Y-84160815D01*
X186866463Y-84257506D01*
X186807498Y-84367820D01*
X186771188Y-84487518D01*
X186758928Y-84612000D01*
X186758928Y-85133928D01*
X186207000Y-85133928D01*
X186082518Y-85146188D01*
X185962820Y-85182498D01*
X185852506Y-85241463D01*
X185755815Y-85320815D01*
X185676463Y-85417506D01*
X185617498Y-85527820D01*
X185581188Y-85647518D01*
X185568928Y-85772000D01*
X185568928Y-87740000D01*
X171648540Y-87740000D01*
X171753809Y-87588545D01*
X171839376Y-87392233D01*
X171885000Y-87183000D01*
X171885000Y-86783000D01*
X170927000Y-86783000D01*
X170927000Y-86803000D01*
X170673000Y-86803000D01*
X170673000Y-86783000D01*
X169715000Y-86783000D01*
X169715000Y-87183000D01*
X169760624Y-87392233D01*
X169846191Y-87588545D01*
X169951460Y-87740000D01*
X162998540Y-87740000D01*
X163103809Y-87588545D01*
X163189376Y-87392233D01*
X163235000Y-87183000D01*
X163235000Y-86783000D01*
X162277000Y-86783000D01*
X162277000Y-86803000D01*
X162023000Y-86803000D01*
X162023000Y-86783000D01*
X161065000Y-86783000D01*
X161065000Y-87183000D01*
X161110624Y-87392233D01*
X161196191Y-87588545D01*
X161301460Y-87740000D01*
X157460000Y-87740000D01*
X157460000Y-86129000D01*
X161065000Y-86129000D01*
X161065000Y-86529000D01*
X162023000Y-86529000D01*
X162023000Y-85338498D01*
X162277000Y-85338498D01*
X162277000Y-86529000D01*
X163235000Y-86529000D01*
X163235000Y-86129000D01*
X163189376Y-85919767D01*
X163103809Y-85723455D01*
X162981587Y-85547609D01*
X162827408Y-85398986D01*
X162647197Y-85283298D01*
X162444001Y-85211592D01*
X162277000Y-85338498D01*
X162023000Y-85338498D01*
X161855999Y-85211592D01*
X161652803Y-85283298D01*
X161472592Y-85398986D01*
X161318413Y-85547609D01*
X161196191Y-85723455D01*
X161110624Y-85919767D01*
X161065000Y-86129000D01*
X157460000Y-86129000D01*
X157460000Y-83403000D01*
X161065000Y-83403000D01*
X161065000Y-84153000D01*
X161110624Y-84362233D01*
X161196191Y-84558545D01*
X161318413Y-84734391D01*
X161472592Y-84883014D01*
X161652803Y-84998702D01*
X161855999Y-85070408D01*
X162023000Y-84943502D01*
X162023000Y-83403000D01*
X161065000Y-83403000D01*
X157460000Y-83403000D01*
X157460000Y-82399000D01*
X161065000Y-82399000D01*
X161065000Y-83149000D01*
X162023000Y-83149000D01*
X162023000Y-81608498D01*
X162277000Y-81608498D01*
X162277000Y-83149000D01*
X162823392Y-83149000D01*
X162829480Y-83155088D01*
X162631233Y-83171784D01*
X162555411Y-83350384D01*
X162544464Y-83403000D01*
X162277000Y-83403000D01*
X162277000Y-84943502D01*
X162444001Y-85070408D01*
X162647197Y-84998702D01*
X162827408Y-84883014D01*
X162981587Y-84734391D01*
X163103809Y-84558545D01*
X163107728Y-84549555D01*
X163204384Y-84590589D01*
X163394344Y-84630110D01*
X163588364Y-84631813D01*
X163745220Y-84602041D01*
X163810000Y-84680975D01*
X163838998Y-84704773D01*
X165126217Y-85991993D01*
X165150015Y-86020991D01*
X165265740Y-86115964D01*
X165397769Y-86186536D01*
X165541030Y-86229993D01*
X165652683Y-86240990D01*
X165652693Y-86240990D01*
X165690016Y-86244666D01*
X165727339Y-86240990D01*
X169715000Y-86240990D01*
X169715000Y-86529000D01*
X170673000Y-86529000D01*
X170673000Y-86509000D01*
X170927000Y-86509000D01*
X170927000Y-86529000D01*
X171885000Y-86529000D01*
X171885000Y-86240990D01*
X174591350Y-86240990D01*
X174659392Y-86296831D01*
X174804284Y-86374278D01*
X174961500Y-86421969D01*
X175125000Y-86438072D01*
X175675000Y-86438072D01*
X175838500Y-86421969D01*
X175995716Y-86374278D01*
X176140608Y-86296831D01*
X176267606Y-86192606D01*
X176371831Y-86065608D01*
X176449278Y-85920716D01*
X176496969Y-85763500D01*
X176513072Y-85600000D01*
X176513072Y-85200000D01*
X176500761Y-85075000D01*
X176749428Y-85075000D01*
X176761688Y-85199482D01*
X176797998Y-85319180D01*
X176856963Y-85429494D01*
X176936315Y-85526185D01*
X177033006Y-85605537D01*
X177143320Y-85664502D01*
X177263018Y-85700812D01*
X177387500Y-85713072D01*
X177539250Y-85710000D01*
X177698000Y-85551250D01*
X177698000Y-84727000D01*
X176911250Y-84727000D01*
X176752500Y-84885750D01*
X176749428Y-85075000D01*
X176500761Y-85075000D01*
X176496969Y-85036500D01*
X176449278Y-84879284D01*
X176371831Y-84734392D01*
X176267606Y-84607394D01*
X176228134Y-84575000D01*
X176267606Y-84542606D01*
X176371831Y-84415608D01*
X176449278Y-84270716D01*
X176496969Y-84113500D01*
X176513072Y-83950000D01*
X176513072Y-83550000D01*
X176496969Y-83386500D01*
X176449278Y-83229284D01*
X176412245Y-83160000D01*
X176916582Y-83160000D01*
X177000385Y-83262115D01*
X177130225Y-83368671D01*
X177278358Y-83447850D01*
X177408589Y-83487355D01*
X177387500Y-83486928D01*
X177263018Y-83499188D01*
X177143320Y-83535498D01*
X177033006Y-83594463D01*
X176936315Y-83673815D01*
X176856963Y-83770506D01*
X176797998Y-83880820D01*
X176761688Y-84000518D01*
X176749428Y-84125000D01*
X176752500Y-84314250D01*
X176911250Y-84473000D01*
X177698000Y-84473000D01*
X177698000Y-84453000D01*
X177952000Y-84453000D01*
X177952000Y-84473000D01*
X177972000Y-84473000D01*
X177972000Y-84727000D01*
X177952000Y-84727000D01*
X177952000Y-85551250D01*
X178110750Y-85710000D01*
X178262500Y-85713072D01*
X178386982Y-85700812D01*
X178506680Y-85664502D01*
X178616994Y-85605537D01*
X178683570Y-85550900D01*
X178705225Y-85568671D01*
X178853358Y-85647850D01*
X179014092Y-85696608D01*
X179181250Y-85713072D01*
X179618750Y-85713072D01*
X179785908Y-85696608D01*
X179946642Y-85647850D01*
X180094775Y-85568671D01*
X180224615Y-85462115D01*
X180331171Y-85332275D01*
X180410350Y-85184142D01*
X180459108Y-85023408D01*
X180475572Y-84856250D01*
X180475572Y-84343750D01*
X180459108Y-84176592D01*
X180410350Y-84015858D01*
X180331171Y-83867725D01*
X180224615Y-83737885D01*
X180094775Y-83631329D01*
X179946642Y-83552150D01*
X179816411Y-83512645D01*
X179837500Y-83513072D01*
X179961982Y-83500812D01*
X180081680Y-83464502D01*
X180191994Y-83405537D01*
X180288685Y-83326185D01*
X180368037Y-83229494D01*
X180427002Y-83119180D01*
X180463312Y-82999482D01*
X180475572Y-82875000D01*
X180472500Y-82685750D01*
X180313750Y-82527000D01*
X179527000Y-82527000D01*
X179527000Y-82547000D01*
X179273000Y-82547000D01*
X179273000Y-82527000D01*
X179253000Y-82527000D01*
X179253000Y-82273000D01*
X179273000Y-82273000D01*
X179273000Y-81448750D01*
X179527000Y-81448750D01*
X179527000Y-82273000D01*
X180313750Y-82273000D01*
X180472500Y-82114250D01*
X180475572Y-81925000D01*
X180463312Y-81800518D01*
X180427002Y-81680820D01*
X180368037Y-81570506D01*
X180288685Y-81473815D01*
X180191994Y-81394463D01*
X180081680Y-81335498D01*
X179961982Y-81299188D01*
X179837500Y-81286928D01*
X179685750Y-81290000D01*
X179527000Y-81448750D01*
X179273000Y-81448750D01*
X179114250Y-81290000D01*
X178962500Y-81286928D01*
X178838018Y-81299188D01*
X178718320Y-81335498D01*
X178608006Y-81394463D01*
X178541430Y-81449100D01*
X178519775Y-81431329D01*
X178371642Y-81352150D01*
X178210908Y-81303392D01*
X178043750Y-81286928D01*
X177606250Y-81286928D01*
X177439092Y-81303392D01*
X177278358Y-81352150D01*
X177130225Y-81431329D01*
X177000385Y-81537885D01*
X176916582Y-81640000D01*
X176488930Y-81640000D01*
X176496969Y-81613500D01*
X176513072Y-81450000D01*
X176513072Y-81050000D01*
X176496969Y-80886500D01*
X176449278Y-80729284D01*
X176371831Y-80584392D01*
X176288137Y-80482410D01*
X176326185Y-80451185D01*
X176405537Y-80354494D01*
X176464502Y-80244180D01*
X176500812Y-80124482D01*
X176513072Y-80000000D01*
X176510000Y-79885750D01*
X176351250Y-79727000D01*
X175527000Y-79727000D01*
X175527000Y-79747000D01*
X175273000Y-79747000D01*
X175273000Y-79727000D01*
X174448750Y-79727000D01*
X174290000Y-79885750D01*
X174286928Y-80000000D01*
X174299188Y-80124482D01*
X174335498Y-80244180D01*
X174394463Y-80354494D01*
X174473815Y-80451185D01*
X174511863Y-80482410D01*
X174428169Y-80584392D01*
X174350722Y-80729284D01*
X174303031Y-80886500D01*
X174286928Y-81050000D01*
X174286928Y-81450000D01*
X174303031Y-81613500D01*
X174350722Y-81770716D01*
X174428169Y-81915608D01*
X174532394Y-82042606D01*
X174640000Y-82130917D01*
X174640000Y-82362667D01*
X174636323Y-82400000D01*
X174640001Y-82437342D01*
X174640001Y-82869083D01*
X174532394Y-82957394D01*
X174428169Y-83084392D01*
X174350722Y-83229284D01*
X174303031Y-83386500D01*
X174286928Y-83550000D01*
X174286928Y-83950000D01*
X174303031Y-84113500D01*
X174350722Y-84270716D01*
X174428169Y-84415608D01*
X174532394Y-84542606D01*
X174571866Y-84575000D01*
X174532394Y-84607394D01*
X174439168Y-84720990D01*
X171640901Y-84720990D01*
X171753809Y-84558545D01*
X171839376Y-84362233D01*
X171885000Y-84153000D01*
X171885000Y-83403000D01*
X170927000Y-83403000D01*
X170927000Y-83423000D01*
X170673000Y-83423000D01*
X170673000Y-83403000D01*
X170406463Y-83403000D01*
X170399632Y-83367011D01*
X170326957Y-83187107D01*
X170318767Y-83171784D01*
X170120520Y-83155088D01*
X170126608Y-83149000D01*
X170673000Y-83149000D01*
X170673000Y-81608498D01*
X170927000Y-81608498D01*
X170927000Y-83149000D01*
X171885000Y-83149000D01*
X171885000Y-82399000D01*
X171839376Y-82189767D01*
X171753809Y-81993455D01*
X171631587Y-81817609D01*
X171477408Y-81668986D01*
X171297197Y-81553298D01*
X171094001Y-81481592D01*
X170927000Y-81608498D01*
X170673000Y-81608498D01*
X170505999Y-81481592D01*
X170302803Y-81553298D01*
X170122592Y-81668986D01*
X169968413Y-81817609D01*
X169846191Y-81993455D01*
X169779775Y-82145830D01*
X169629605Y-82296000D01*
X169643748Y-82310143D01*
X169585000Y-82368890D01*
X169585000Y-82198986D01*
X169548899Y-82017496D01*
X169940912Y-81625483D01*
X169924216Y-81427233D01*
X169745616Y-81351411D01*
X169555656Y-81311890D01*
X169361636Y-81310187D01*
X169171011Y-81346368D01*
X169024349Y-81405615D01*
X168887314Y-81348853D01*
X168752720Y-81322081D01*
X170411730Y-79663072D01*
X170750000Y-79663072D01*
X170913500Y-79646969D01*
X171070716Y-79599278D01*
X171215608Y-79521831D01*
X171317590Y-79438137D01*
X171348815Y-79476185D01*
X171445506Y-79555537D01*
X171555820Y-79614502D01*
X171675518Y-79650812D01*
X171800000Y-79663072D01*
X171914250Y-79660000D01*
X172073000Y-79501250D01*
X172073000Y-78677000D01*
X172327000Y-78677000D01*
X172327000Y-79501250D01*
X172485750Y-79660000D01*
X172600000Y-79663072D01*
X172724482Y-79650812D01*
X172844180Y-79614502D01*
X172954494Y-79555537D01*
X173051185Y-79476185D01*
X173130537Y-79379494D01*
X173189502Y-79269180D01*
X173210487Y-79200000D01*
X174286928Y-79200000D01*
X174290000Y-79314250D01*
X174448750Y-79473000D01*
X175273000Y-79473000D01*
X175273000Y-78723750D01*
X175527000Y-78723750D01*
X175527000Y-79473000D01*
X176351250Y-79473000D01*
X176510000Y-79314250D01*
X176513072Y-79200000D01*
X176500812Y-79075518D01*
X176464502Y-78955820D01*
X176405537Y-78845506D01*
X176326185Y-78748815D01*
X176229494Y-78669463D01*
X176119180Y-78610498D01*
X175999482Y-78574188D01*
X175875000Y-78561928D01*
X175685750Y-78565000D01*
X175527000Y-78723750D01*
X175273000Y-78723750D01*
X175114250Y-78565000D01*
X174925000Y-78561928D01*
X174800518Y-78574188D01*
X174680820Y-78610498D01*
X174570506Y-78669463D01*
X174473815Y-78748815D01*
X174394463Y-78845506D01*
X174335498Y-78955820D01*
X174299188Y-79075518D01*
X174286928Y-79200000D01*
X173210487Y-79200000D01*
X173225812Y-79149482D01*
X173238072Y-79025000D01*
X173235000Y-78835750D01*
X173076250Y-78677000D01*
X172327000Y-78677000D01*
X172073000Y-78677000D01*
X172053000Y-78677000D01*
X172053000Y-78423000D01*
X172073000Y-78423000D01*
X172073000Y-77598750D01*
X172327000Y-77598750D01*
X172327000Y-78423000D01*
X173076250Y-78423000D01*
X173235000Y-78264250D01*
X173238072Y-78075000D01*
X173225812Y-77950518D01*
X173189502Y-77830820D01*
X173130537Y-77720506D01*
X173051185Y-77623815D01*
X172954494Y-77544463D01*
X172844180Y-77485498D01*
X172724482Y-77449188D01*
X172600000Y-77436928D01*
X172485750Y-77440000D01*
X172327000Y-77598750D01*
X172073000Y-77598750D01*
X171914250Y-77440000D01*
X171800000Y-77436928D01*
X171675518Y-77449188D01*
X171555820Y-77485498D01*
X171445506Y-77544463D01*
X171348815Y-77623815D01*
X171317590Y-77661863D01*
X171215608Y-77578169D01*
X171070716Y-77500722D01*
X170913500Y-77453031D01*
X170750000Y-77436928D01*
X170350000Y-77436928D01*
X170186500Y-77453031D01*
X170029284Y-77500722D01*
X169884392Y-77578169D01*
X169757394Y-77682394D01*
X169653169Y-77809392D01*
X169575722Y-77954284D01*
X169528031Y-78111500D01*
X169511928Y-78275000D01*
X169511928Y-78413270D01*
X168955080Y-78970118D01*
X168947375Y-78944717D01*
X168869300Y-78798649D01*
X168905537Y-78754494D01*
X168964502Y-78644180D01*
X169000812Y-78524482D01*
X169013072Y-78400000D01*
X169010000Y-78235750D01*
X168851250Y-78077000D01*
X168027000Y-78077000D01*
X168027000Y-78097000D01*
X167773000Y-78097000D01*
X167773000Y-78077000D01*
X166948750Y-78077000D01*
X166790000Y-78235750D01*
X166786928Y-78400000D01*
X166799188Y-78524482D01*
X166835498Y-78644180D01*
X166894463Y-78754494D01*
X166930700Y-78798649D01*
X166852625Y-78944717D01*
X166803512Y-79106623D01*
X166786928Y-79275000D01*
X166786928Y-79725000D01*
X166803512Y-79893377D01*
X166852625Y-80055283D01*
X166932382Y-80204497D01*
X166961519Y-80240000D01*
X166384320Y-80240000D01*
X166346997Y-80236324D01*
X166309674Y-80240000D01*
X166309665Y-80240000D01*
X166198012Y-80250997D01*
X166054751Y-80294454D01*
X165922721Y-80365026D01*
X165840460Y-80432537D01*
X165806997Y-80459999D01*
X165783199Y-80488997D01*
X164925990Y-81346207D01*
X164912686Y-81348853D01*
X164775000Y-81405884D01*
X164637314Y-81348853D01*
X164447014Y-81311000D01*
X164252986Y-81311000D01*
X164062686Y-81348853D01*
X163924458Y-81406109D01*
X163795616Y-81351411D01*
X163605656Y-81311890D01*
X163411636Y-81310187D01*
X163221011Y-81346368D01*
X163041107Y-81419043D01*
X163025784Y-81427233D01*
X163009088Y-81625483D01*
X163401101Y-82017496D01*
X163365000Y-82198986D01*
X163365000Y-82368890D01*
X163306253Y-82310143D01*
X163320395Y-82296000D01*
X163170225Y-82145830D01*
X163103809Y-81993455D01*
X162981587Y-81817609D01*
X162827408Y-81668986D01*
X162647197Y-81553298D01*
X162444001Y-81481592D01*
X162277000Y-81608498D01*
X162023000Y-81608498D01*
X161855999Y-81481592D01*
X161652803Y-81553298D01*
X161472592Y-81668986D01*
X161318413Y-81817609D01*
X161196191Y-81993455D01*
X161110624Y-82189767D01*
X161065000Y-82399000D01*
X157460000Y-82399000D01*
X157460000Y-76525000D01*
X166786928Y-76525000D01*
X166799188Y-76649482D01*
X166835498Y-76769180D01*
X166894463Y-76879494D01*
X166973815Y-76976185D01*
X167018065Y-77012500D01*
X166973815Y-77048815D01*
X166894463Y-77145506D01*
X166835498Y-77255820D01*
X166799188Y-77375518D01*
X166786928Y-77500000D01*
X166790000Y-77664250D01*
X166948750Y-77823000D01*
X167773000Y-77823000D01*
X167773000Y-77023750D01*
X167761750Y-77012500D01*
X167773000Y-77001250D01*
X167773000Y-76202000D01*
X168027000Y-76202000D01*
X168027000Y-77001250D01*
X168038250Y-77012500D01*
X168027000Y-77023750D01*
X168027000Y-77823000D01*
X168851250Y-77823000D01*
X169010000Y-77664250D01*
X169013072Y-77500000D01*
X169000812Y-77375518D01*
X168964502Y-77255820D01*
X168905537Y-77145506D01*
X168826185Y-77048815D01*
X168781935Y-77012500D01*
X168826185Y-76976185D01*
X168905537Y-76879494D01*
X168964502Y-76769180D01*
X169000812Y-76649482D01*
X169013072Y-76525000D01*
X169010000Y-76360750D01*
X168851250Y-76202000D01*
X168027000Y-76202000D01*
X167773000Y-76202000D01*
X166948750Y-76202000D01*
X166790000Y-76360750D01*
X166786928Y-76525000D01*
X157460000Y-76525000D01*
X157460000Y-75410080D01*
X160702008Y-75410080D01*
X160714268Y-75534562D01*
X160750578Y-75654260D01*
X160809543Y-75764574D01*
X160888895Y-75861265D01*
X160985586Y-75940617D01*
X161095900Y-75999582D01*
X161215598Y-76035892D01*
X161340080Y-76048152D01*
X161504330Y-76045080D01*
X161663080Y-75886330D01*
X161663080Y-75062080D01*
X160863830Y-75062080D01*
X160705080Y-75220830D01*
X160702008Y-75410080D01*
X157460000Y-75410080D01*
X157460000Y-74460080D01*
X160702008Y-74460080D01*
X160705080Y-74649330D01*
X160863830Y-74808080D01*
X161663080Y-74808080D01*
X161663080Y-73983830D01*
X161504330Y-73825080D01*
X161340080Y-73822008D01*
X161215598Y-73834268D01*
X161095900Y-73870578D01*
X160985586Y-73929543D01*
X160888895Y-74008895D01*
X160809543Y-74105586D01*
X160750578Y-74215900D01*
X160714268Y-74335598D01*
X160702008Y-74460080D01*
X157460000Y-74460080D01*
X157460000Y-71948061D01*
X161165000Y-71948061D01*
X161165000Y-72151939D01*
X161204774Y-72351898D01*
X161282795Y-72540256D01*
X161396063Y-72709774D01*
X161540226Y-72853937D01*
X161709744Y-72967205D01*
X161898102Y-73045226D01*
X162098061Y-73085000D01*
X162301939Y-73085000D01*
X162501898Y-73045226D01*
X162690256Y-72967205D01*
X162859774Y-72853937D01*
X163003937Y-72709774D01*
X163117205Y-72540256D01*
X163186928Y-72371931D01*
X163186928Y-72420000D01*
X163199188Y-72544482D01*
X163235498Y-72664180D01*
X163294463Y-72774494D01*
X163373815Y-72871185D01*
X163470506Y-72950537D01*
X163564927Y-73001007D01*
X163564927Y-73201866D01*
X163604701Y-73401825D01*
X163682722Y-73590183D01*
X163795990Y-73759701D01*
X163843324Y-73807035D01*
X163793541Y-73856818D01*
X163733457Y-73838592D01*
X163565080Y-73822008D01*
X163115080Y-73822008D01*
X162946703Y-73838592D01*
X162784797Y-73887705D01*
X162638729Y-73965780D01*
X162594574Y-73929543D01*
X162484260Y-73870578D01*
X162364562Y-73834268D01*
X162240080Y-73822008D01*
X162075830Y-73825080D01*
X161917080Y-73983830D01*
X161917080Y-74808080D01*
X161937080Y-74808080D01*
X161937080Y-75062080D01*
X161917080Y-75062080D01*
X161917080Y-75886330D01*
X162075830Y-76045080D01*
X162240080Y-76048152D01*
X162364562Y-76035892D01*
X162484260Y-75999582D01*
X162594574Y-75940617D01*
X162638729Y-75904380D01*
X162784797Y-75982455D01*
X162946703Y-76031568D01*
X163115080Y-76048152D01*
X163565080Y-76048152D01*
X163733457Y-76031568D01*
X163895363Y-75982455D01*
X164044577Y-75902698D01*
X164175364Y-75795364D01*
X164282698Y-75664577D01*
X164362455Y-75515363D01*
X164396356Y-75403605D01*
X165861004Y-73938958D01*
X165890001Y-73915161D01*
X165935481Y-73859744D01*
X165984974Y-73799437D01*
X166055546Y-73667407D01*
X166058386Y-73658044D01*
X166099003Y-73524146D01*
X166110000Y-73412493D01*
X166110000Y-73412483D01*
X166113676Y-73375161D01*
X166110000Y-73337838D01*
X166110000Y-73055000D01*
X166127002Y-73055000D01*
X166127002Y-72980735D01*
X166180820Y-73009502D01*
X166224503Y-73022753D01*
X166256750Y-73055000D01*
X166322162Y-73047944D01*
X166425000Y-73058072D01*
X166540001Y-73058072D01*
X166540001Y-73887668D01*
X166536324Y-73925000D01*
X166540001Y-73962333D01*
X166550998Y-74073986D01*
X166559109Y-74100724D01*
X166594454Y-74217246D01*
X166665026Y-74349276D01*
X166726415Y-74424078D01*
X166760000Y-74465001D01*
X166786928Y-74487100D01*
X166786928Y-74750000D01*
X166803512Y-74918377D01*
X166852625Y-75080283D01*
X166930700Y-75226351D01*
X166894463Y-75270506D01*
X166835498Y-75380820D01*
X166799188Y-75500518D01*
X166786928Y-75625000D01*
X166790000Y-75789250D01*
X166948750Y-75948000D01*
X167773000Y-75948000D01*
X167773000Y-75928000D01*
X168027000Y-75928000D01*
X168027000Y-75948000D01*
X168851250Y-75948000D01*
X169010000Y-75789250D01*
X169013072Y-75625000D01*
X169000812Y-75500518D01*
X168964502Y-75380820D01*
X168905537Y-75270506D01*
X168869300Y-75226351D01*
X168947375Y-75080283D01*
X168996488Y-74918377D01*
X169013072Y-74750000D01*
X169013072Y-74300000D01*
X168996488Y-74131623D01*
X168979312Y-74075000D01*
X174536928Y-74075000D01*
X174536928Y-74625000D01*
X174553031Y-74788500D01*
X174600722Y-74945716D01*
X174678169Y-75090608D01*
X174782394Y-75217606D01*
X174909392Y-75321831D01*
X175054284Y-75399278D01*
X175211500Y-75446969D01*
X175375000Y-75463072D01*
X175775000Y-75463072D01*
X175938500Y-75446969D01*
X176095716Y-75399278D01*
X176240608Y-75321831D01*
X176342590Y-75238137D01*
X176373815Y-75276185D01*
X176470506Y-75355537D01*
X176580820Y-75414502D01*
X176700518Y-75450812D01*
X176825000Y-75463072D01*
X176939250Y-75460000D01*
X177098000Y-75301250D01*
X177098000Y-74477000D01*
X177352000Y-74477000D01*
X177352000Y-75301250D01*
X177510750Y-75460000D01*
X177625000Y-75463072D01*
X177749482Y-75450812D01*
X177869180Y-75414502D01*
X177979494Y-75355537D01*
X178076185Y-75276185D01*
X178155537Y-75179494D01*
X178214502Y-75069180D01*
X178250812Y-74949482D01*
X178263072Y-74825000D01*
X178260000Y-74635750D01*
X178101250Y-74477000D01*
X177352000Y-74477000D01*
X177098000Y-74477000D01*
X177078000Y-74477000D01*
X177078000Y-74223000D01*
X177098000Y-74223000D01*
X177098000Y-73398750D01*
X177352000Y-73398750D01*
X177352000Y-74223000D01*
X178101250Y-74223000D01*
X178260000Y-74064250D01*
X178263072Y-73875000D01*
X178250812Y-73750518D01*
X178214502Y-73630820D01*
X178155537Y-73520506D01*
X178076185Y-73423815D01*
X177979494Y-73344463D01*
X177869180Y-73285498D01*
X177749482Y-73249188D01*
X177625000Y-73236928D01*
X177510750Y-73240000D01*
X177352000Y-73398750D01*
X177098000Y-73398750D01*
X176939250Y-73240000D01*
X176825000Y-73236928D01*
X176700518Y-73249188D01*
X176580820Y-73285498D01*
X176470506Y-73344463D01*
X176373815Y-73423815D01*
X176342590Y-73461863D01*
X176240608Y-73378169D01*
X176095716Y-73300722D01*
X175938500Y-73253031D01*
X175775000Y-73236928D01*
X175375000Y-73236928D01*
X175211500Y-73253031D01*
X175054284Y-73300722D01*
X174909392Y-73378169D01*
X174782394Y-73482394D01*
X174678169Y-73609392D01*
X174600722Y-73754284D01*
X174553031Y-73911500D01*
X174536928Y-74075000D01*
X168979312Y-74075000D01*
X168947375Y-73969717D01*
X168867618Y-73820503D01*
X168760284Y-73689716D01*
X168629497Y-73582382D01*
X168480283Y-73502625D01*
X168318377Y-73453512D01*
X168150000Y-73436928D01*
X168060000Y-73436928D01*
X168060000Y-73055000D01*
X168077002Y-73055000D01*
X168077002Y-72980735D01*
X168130820Y-73009502D01*
X168174503Y-73022753D01*
X168206750Y-73055000D01*
X168272162Y-73047944D01*
X168375000Y-73058072D01*
X168825000Y-73058072D01*
X168925000Y-73048223D01*
X169025000Y-73058072D01*
X169475000Y-73058072D01*
X169575000Y-73048223D01*
X169675000Y-73058072D01*
X170125000Y-73058072D01*
X170227838Y-73047944D01*
X170293250Y-73055000D01*
X170325497Y-73022753D01*
X170369180Y-73009502D01*
X170479494Y-72950537D01*
X170550000Y-72892674D01*
X170620506Y-72950537D01*
X170730820Y-73009502D01*
X170774503Y-73022753D01*
X170806750Y-73055000D01*
X170872162Y-73047944D01*
X170975000Y-73058072D01*
X171425000Y-73058072D01*
X171525000Y-73048223D01*
X171625000Y-73058072D01*
X172075000Y-73058072D01*
X172175000Y-73048223D01*
X172275000Y-73058072D01*
X172725000Y-73058072D01*
X172849482Y-73045812D01*
X172969180Y-73009502D01*
X173079494Y-72950537D01*
X173176185Y-72871185D01*
X173255537Y-72774494D01*
X173314502Y-72664180D01*
X173350812Y-72544482D01*
X173363072Y-72420000D01*
X173363072Y-70670000D01*
X173350812Y-70545518D01*
X173314502Y-70425820D01*
X173255537Y-70315506D01*
X173176185Y-70218815D01*
X173079494Y-70139463D01*
X172969180Y-70080498D01*
X172849482Y-70044188D01*
X172725000Y-70031928D01*
X172275000Y-70031928D01*
X172175000Y-70041777D01*
X172075000Y-70031928D01*
X171625000Y-70031928D01*
X171525000Y-70041777D01*
X171425000Y-70031928D01*
X170975000Y-70031928D01*
X170872162Y-70042056D01*
X170806750Y-70035000D01*
X170774503Y-70067247D01*
X170730820Y-70080498D01*
X170620506Y-70139463D01*
X170550000Y-70197326D01*
X170479494Y-70139463D01*
X170369180Y-70080498D01*
X170325497Y-70067247D01*
X170293250Y-70035000D01*
X170227838Y-70042056D01*
X170125000Y-70031928D01*
X169675000Y-70031928D01*
X169575000Y-70041777D01*
X169475000Y-70031928D01*
X169025000Y-70031928D01*
X168925000Y-70041777D01*
X168825000Y-70031928D01*
X168375000Y-70031928D01*
X168272162Y-70042056D01*
X168206750Y-70035000D01*
X168174503Y-70067247D01*
X168130820Y-70080498D01*
X168020506Y-70139463D01*
X167950000Y-70197326D01*
X167879494Y-70139463D01*
X167769180Y-70080498D01*
X167725497Y-70067247D01*
X167693250Y-70035000D01*
X167627838Y-70042056D01*
X167525000Y-70031928D01*
X167075000Y-70031928D01*
X166975000Y-70041777D01*
X166875000Y-70031928D01*
X166425000Y-70031928D01*
X166322162Y-70042056D01*
X166256750Y-70035000D01*
X166224503Y-70067247D01*
X166180820Y-70080498D01*
X166070506Y-70139463D01*
X166000000Y-70197326D01*
X165929494Y-70139463D01*
X165819180Y-70080498D01*
X165775497Y-70067247D01*
X165743250Y-70035000D01*
X165677838Y-70042056D01*
X165575000Y-70031928D01*
X165125000Y-70031928D01*
X165025000Y-70041777D01*
X164925000Y-70031928D01*
X164475000Y-70031928D01*
X164375000Y-70041777D01*
X164275000Y-70031928D01*
X163825000Y-70031928D01*
X163700518Y-70044188D01*
X163580820Y-70080498D01*
X163470506Y-70139463D01*
X163373815Y-70218815D01*
X163294463Y-70315506D01*
X163235498Y-70425820D01*
X163199188Y-70545518D01*
X163186928Y-70670000D01*
X163186928Y-70785000D01*
X162742323Y-70785000D01*
X162705000Y-70781324D01*
X162667677Y-70785000D01*
X162667667Y-70785000D01*
X162556014Y-70795997D01*
X162412753Y-70839454D01*
X162280724Y-70910026D01*
X162164999Y-71004999D01*
X162156791Y-71015000D01*
X162098061Y-71015000D01*
X161898102Y-71054774D01*
X161709744Y-71132795D01*
X161540226Y-71246063D01*
X161396063Y-71390226D01*
X161282795Y-71559744D01*
X161204774Y-71748102D01*
X161165000Y-71948061D01*
X157460000Y-71948061D01*
X157460000Y-59375000D01*
X163711928Y-59375000D01*
X163724188Y-59499482D01*
X163760498Y-59619180D01*
X163819463Y-59729494D01*
X163898815Y-59826185D01*
X163995506Y-59905537D01*
X164105820Y-59964502D01*
X164225518Y-60000812D01*
X164350000Y-60013072D01*
X164514250Y-60010000D01*
X164673000Y-59851250D01*
X164673000Y-59027000D01*
X163873750Y-59027000D01*
X163715000Y-59185750D01*
X163711928Y-59375000D01*
X157460000Y-59375000D01*
X157460000Y-58425000D01*
X163711928Y-58425000D01*
X163715000Y-58614250D01*
X163873750Y-58773000D01*
X164673000Y-58773000D01*
X164673000Y-57948750D01*
X164514250Y-57790000D01*
X164350000Y-57786928D01*
X164225518Y-57799188D01*
X164105820Y-57835498D01*
X163995506Y-57894463D01*
X163898815Y-57973815D01*
X163819463Y-58070506D01*
X163760498Y-58180820D01*
X163724188Y-58300518D01*
X163711928Y-58425000D01*
X157460000Y-58425000D01*
X157460000Y-35260000D01*
X158761928Y-35260000D01*
X158761928Y-43200000D01*
G37*
%TD.AperFunction*%
D25*
X191292506Y-75432537D02*
X191402820Y-75491502D01*
X191522518Y-75527812D01*
X191647000Y-75540072D01*
X192487000Y-75540072D01*
X192487000Y-76601811D01*
X192301939Y-76565000D01*
X192098061Y-76565000D01*
X191898102Y-76604774D01*
X191709744Y-76682795D01*
X191540226Y-76796063D01*
X191396063Y-76940226D01*
X191282795Y-77109744D01*
X191204774Y-77298102D01*
X191165000Y-77498061D01*
X191165000Y-77701939D01*
X191204774Y-77901898D01*
X191282795Y-78090256D01*
X191396063Y-78259774D01*
X191440000Y-78303711D01*
X191440001Y-82061978D01*
X191301898Y-82004774D01*
X191101939Y-81965000D01*
X190898061Y-81965000D01*
X190698102Y-82004774D01*
X190509744Y-82082795D01*
X190340226Y-82196063D01*
X190196063Y-82340226D01*
X190082795Y-82509744D01*
X190004774Y-82698102D01*
X189965000Y-82898061D01*
X189965000Y-83101939D01*
X190004774Y-83301898D01*
X190082795Y-83490256D01*
X190196063Y-83659774D01*
X190240000Y-83703711D01*
X190240000Y-83976653D01*
X190232750Y-83977000D01*
X190074000Y-84135750D01*
X190074000Y-84478248D01*
X190071188Y-84487518D01*
X190058928Y-84612000D01*
X190058928Y-85562000D01*
X190071188Y-85686482D01*
X190074000Y-85695752D01*
X190074000Y-86038250D01*
X190232750Y-86197000D01*
X190297000Y-86200072D01*
X190421482Y-86187812D01*
X190497000Y-86164904D01*
X190572518Y-86187812D01*
X190697000Y-86200072D01*
X191397000Y-86200072D01*
X191440001Y-86195837D01*
X191440000Y-86896289D01*
X191396063Y-86940226D01*
X191282795Y-87109744D01*
X191204774Y-87298102D01*
X191165000Y-87498061D01*
X191165000Y-87701939D01*
X191172571Y-87740000D01*
X188035072Y-87740000D01*
X188035072Y-86200072D01*
X188097000Y-86200072D01*
X188221482Y-86187812D01*
X188297000Y-86164904D01*
X188372518Y-86187812D01*
X188497000Y-86200072D01*
X189197000Y-86200072D01*
X189321482Y-86187812D01*
X189397000Y-86164904D01*
X189472518Y-86187812D01*
X189597000Y-86200072D01*
X189661250Y-86197000D01*
X189820000Y-86038250D01*
X189820000Y-85695752D01*
X189822812Y-85686482D01*
X189835072Y-85562000D01*
X189835072Y-84612000D01*
X189822812Y-84487518D01*
X189820000Y-84478248D01*
X189820000Y-84135750D01*
X189661250Y-83977000D01*
X189597000Y-83973928D01*
X189560000Y-83977572D01*
X189560000Y-76000915D01*
X189563676Y-75963590D01*
X189560000Y-75926265D01*
X189560000Y-75926257D01*
X189549003Y-75814604D01*
X189511227Y-75690072D01*
X190697000Y-75690072D01*
X190821482Y-75677812D01*
X190941180Y-75641502D01*
X191051494Y-75582537D01*
X191148185Y-75503185D01*
X191227537Y-75406494D01*
X191237671Y-75387535D01*
X191292506Y-75432537D01*
%TA.AperFunction,Conductor*%
D26*
G36*
X191292506Y-75432537D02*
G01*
X191402820Y-75491502D01*
X191522518Y-75527812D01*
X191647000Y-75540072D01*
X192487000Y-75540072D01*
X192487000Y-76601811D01*
X192301939Y-76565000D01*
X192098061Y-76565000D01*
X191898102Y-76604774D01*
X191709744Y-76682795D01*
X191540226Y-76796063D01*
X191396063Y-76940226D01*
X191282795Y-77109744D01*
X191204774Y-77298102D01*
X191165000Y-77498061D01*
X191165000Y-77701939D01*
X191204774Y-77901898D01*
X191282795Y-78090256D01*
X191396063Y-78259774D01*
X191440000Y-78303711D01*
X191440001Y-82061978D01*
X191301898Y-82004774D01*
X191101939Y-81965000D01*
X190898061Y-81965000D01*
X190698102Y-82004774D01*
X190509744Y-82082795D01*
X190340226Y-82196063D01*
X190196063Y-82340226D01*
X190082795Y-82509744D01*
X190004774Y-82698102D01*
X189965000Y-82898061D01*
X189965000Y-83101939D01*
X190004774Y-83301898D01*
X190082795Y-83490256D01*
X190196063Y-83659774D01*
X190240000Y-83703711D01*
X190240000Y-83976653D01*
X190232750Y-83977000D01*
X190074000Y-84135750D01*
X190074000Y-84478248D01*
X190071188Y-84487518D01*
X190058928Y-84612000D01*
X190058928Y-85562000D01*
X190071188Y-85686482D01*
X190074000Y-85695752D01*
X190074000Y-86038250D01*
X190232750Y-86197000D01*
X190297000Y-86200072D01*
X190421482Y-86187812D01*
X190497000Y-86164904D01*
X190572518Y-86187812D01*
X190697000Y-86200072D01*
X191397000Y-86200072D01*
X191440001Y-86195837D01*
X191440000Y-86896289D01*
X191396063Y-86940226D01*
X191282795Y-87109744D01*
X191204774Y-87298102D01*
X191165000Y-87498061D01*
X191165000Y-87701939D01*
X191172571Y-87740000D01*
X188035072Y-87740000D01*
X188035072Y-86200072D01*
X188097000Y-86200072D01*
X188221482Y-86187812D01*
X188297000Y-86164904D01*
X188372518Y-86187812D01*
X188497000Y-86200072D01*
X189197000Y-86200072D01*
X189321482Y-86187812D01*
X189397000Y-86164904D01*
X189472518Y-86187812D01*
X189597000Y-86200072D01*
X189661250Y-86197000D01*
X189820000Y-86038250D01*
X189820000Y-85695752D01*
X189822812Y-85686482D01*
X189835072Y-85562000D01*
X189835072Y-84612000D01*
X189822812Y-84487518D01*
X189820000Y-84478248D01*
X189820000Y-84135750D01*
X189661250Y-83977000D01*
X189597000Y-83973928D01*
X189560000Y-83977572D01*
X189560000Y-76000915D01*
X189563676Y-75963590D01*
X189560000Y-75926265D01*
X189560000Y-75926257D01*
X189549003Y-75814604D01*
X189511227Y-75690072D01*
X190697000Y-75690072D01*
X190821482Y-75677812D01*
X190941180Y-75641502D01*
X191051494Y-75582537D01*
X191148185Y-75503185D01*
X191227537Y-75406494D01*
X191237671Y-75387535D01*
X191292506Y-75432537D01*
G37*
%TD.AperFunction*%
D25*
X188627000Y-39073000D02*
X188647000Y-39073000D01*
X188647000Y-39327000D01*
X188627000Y-39327000D01*
X188627000Y-43676250D01*
X188785750Y-43835000D01*
X189000000Y-43838072D01*
X189040000Y-43834132D01*
X189040001Y-72096288D01*
X188996063Y-72140226D01*
X188882795Y-72309744D01*
X188804774Y-72498102D01*
X188765000Y-72698061D01*
X188765000Y-72901939D01*
X188804774Y-73101898D01*
X188882795Y-73290256D01*
X188948571Y-73388698D01*
X188872518Y-73396188D01*
X188752820Y-73432498D01*
X188642506Y-73491463D01*
X188545815Y-73570815D01*
X188466463Y-73667506D01*
X188407498Y-73777820D01*
X188371188Y-73897518D01*
X188358928Y-74022000D01*
X188358928Y-74447717D01*
X187960000Y-74048789D01*
X187960000Y-43834132D01*
X188000000Y-43838072D01*
X188214250Y-43835000D01*
X188373000Y-43676250D01*
X188373000Y-39327000D01*
X188353000Y-39327000D01*
X188353000Y-39073000D01*
X188373000Y-39073000D01*
X188373000Y-39053000D01*
X188627000Y-39053000D01*
X188627000Y-39073000D01*
%TA.AperFunction,Conductor*%
D26*
G36*
X188627000Y-39073000D02*
G01*
X188647000Y-39073000D01*
X188647000Y-39327000D01*
X188627000Y-39327000D01*
X188627000Y-43676250D01*
X188785750Y-43835000D01*
X189000000Y-43838072D01*
X189040000Y-43834132D01*
X189040001Y-72096288D01*
X188996063Y-72140226D01*
X188882795Y-72309744D01*
X188804774Y-72498102D01*
X188765000Y-72698061D01*
X188765000Y-72901939D01*
X188804774Y-73101898D01*
X188882795Y-73290256D01*
X188948571Y-73388698D01*
X188872518Y-73396188D01*
X188752820Y-73432498D01*
X188642506Y-73491463D01*
X188545815Y-73570815D01*
X188466463Y-73667506D01*
X188407498Y-73777820D01*
X188371188Y-73897518D01*
X188358928Y-74022000D01*
X188358928Y-74447717D01*
X187960000Y-74048789D01*
X187960000Y-43834132D01*
X188000000Y-43838072D01*
X188214250Y-43835000D01*
X188373000Y-43676250D01*
X188373000Y-39327000D01*
X188353000Y-39327000D01*
X188353000Y-39073000D01*
X188373000Y-39073000D01*
X188373000Y-39053000D01*
X188627000Y-39053000D01*
X188627000Y-39073000D01*
G37*
%TD.AperFunction*%
D25*
X192527000Y-39073000D02*
X192547000Y-39073000D01*
X192547000Y-39327000D01*
X192527000Y-39327000D01*
X192527000Y-43676250D01*
X192685750Y-43835000D01*
X192900000Y-43838072D01*
X192940000Y-43834132D01*
X192940001Y-72076290D01*
X192859774Y-71996063D01*
X192690256Y-71882795D01*
X192501898Y-71804774D01*
X192301939Y-71765000D01*
X192239802Y-71765000D01*
X191860000Y-71385199D01*
X191860000Y-43834132D01*
X191900000Y-43838072D01*
X192114250Y-43835000D01*
X192273000Y-43676250D01*
X192273000Y-39327000D01*
X192253000Y-39327000D01*
X192253000Y-39073000D01*
X192273000Y-39073000D01*
X192273000Y-39053000D01*
X192527000Y-39053000D01*
X192527000Y-39073000D01*
%TA.AperFunction,Conductor*%
D26*
G36*
X192527000Y-39073000D02*
G01*
X192547000Y-39073000D01*
X192547000Y-39327000D01*
X192527000Y-39327000D01*
X192527000Y-43676250D01*
X192685750Y-43835000D01*
X192900000Y-43838072D01*
X192940000Y-43834132D01*
X192940001Y-72076290D01*
X192859774Y-71996063D01*
X192690256Y-71882795D01*
X192501898Y-71804774D01*
X192301939Y-71765000D01*
X192239802Y-71765000D01*
X191860000Y-71385199D01*
X191860000Y-43834132D01*
X191900000Y-43838072D01*
X192114250Y-43835000D01*
X192273000Y-43676250D01*
X192273000Y-39327000D01*
X192253000Y-39327000D01*
X192253000Y-39073000D01*
X192273000Y-39073000D01*
X192273000Y-39053000D01*
X192527000Y-39053000D01*
X192527000Y-39073000D01*
G37*
%TD.AperFunction*%
D25*
X170427000Y-39073000D02*
X170447000Y-39073000D01*
X170447000Y-39327000D01*
X170427000Y-39327000D01*
X170427000Y-43676250D01*
X170585750Y-43835000D01*
X170800000Y-43838072D01*
X170924482Y-43825812D01*
X170950000Y-43818071D01*
X170975518Y-43825812D01*
X171100000Y-43838072D01*
X172100000Y-43838072D01*
X172224482Y-43825812D01*
X172250000Y-43818071D01*
X172275518Y-43825812D01*
X172400000Y-43838072D01*
X173400000Y-43838072D01*
X173524482Y-43825812D01*
X173550000Y-43818071D01*
X173575518Y-43825812D01*
X173700000Y-43838072D01*
X174700000Y-43838072D01*
X174824482Y-43825812D01*
X174850000Y-43818071D01*
X174875518Y-43825812D01*
X175000000Y-43838072D01*
X176000000Y-43838072D01*
X176124482Y-43825812D01*
X176150000Y-43818071D01*
X176175518Y-43825812D01*
X176300000Y-43838072D01*
X177300000Y-43838072D01*
X177424482Y-43825812D01*
X177450000Y-43818071D01*
X177475518Y-43825812D01*
X177600000Y-43838072D01*
X178600000Y-43838072D01*
X178724482Y-43825812D01*
X178750000Y-43818071D01*
X178775518Y-43825812D01*
X178900000Y-43838072D01*
X179900000Y-43838072D01*
X180024482Y-43825812D01*
X180050000Y-43818071D01*
X180075518Y-43825812D01*
X180200000Y-43838072D01*
X181200000Y-43838072D01*
X181324482Y-43825812D01*
X181350000Y-43818071D01*
X181375518Y-43825812D01*
X181500000Y-43838072D01*
X181714250Y-43835000D01*
X181873000Y-43676250D01*
X181873000Y-39327000D01*
X181853000Y-39327000D01*
X181853000Y-39073000D01*
X181873000Y-39073000D01*
X181873000Y-39053000D01*
X182127000Y-39053000D01*
X182127000Y-39073000D01*
X182147000Y-39073000D01*
X182147000Y-39327000D01*
X182127000Y-39327000D01*
X182127000Y-43676250D01*
X182285750Y-43835000D01*
X182500000Y-43838072D01*
X182540000Y-43834132D01*
X182540000Y-45585198D01*
X170858399Y-57266800D01*
X170807665Y-57266800D01*
X170780906Y-57234194D01*
X170653908Y-57129969D01*
X170509016Y-57052522D01*
X170351800Y-57004831D01*
X170188300Y-56988728D01*
X169638300Y-56988728D01*
X169474800Y-57004831D01*
X169317584Y-57052522D01*
X169220257Y-57104545D01*
X169511004Y-56813798D01*
X169540001Y-56790001D01*
X169566332Y-56757917D01*
X169634974Y-56674277D01*
X169705546Y-56542247D01*
X169705546Y-56542246D01*
X169749003Y-56398986D01*
X169760000Y-56287333D01*
X169760000Y-56287323D01*
X169763676Y-56250000D01*
X169760000Y-56212677D01*
X169760000Y-43834132D01*
X169800000Y-43838072D01*
X170014250Y-43835000D01*
X170173000Y-43676250D01*
X170173000Y-39327000D01*
X170153000Y-39327000D01*
X170153000Y-39073000D01*
X170173000Y-39073000D01*
X170173000Y-39053000D01*
X170427000Y-39053000D01*
X170427000Y-39073000D01*
%TA.AperFunction,Conductor*%
D26*
G36*
X170427000Y-39073000D02*
G01*
X170447000Y-39073000D01*
X170447000Y-39327000D01*
X170427000Y-39327000D01*
X170427000Y-43676250D01*
X170585750Y-43835000D01*
X170800000Y-43838072D01*
X170924482Y-43825812D01*
X170950000Y-43818071D01*
X170975518Y-43825812D01*
X171100000Y-43838072D01*
X172100000Y-43838072D01*
X172224482Y-43825812D01*
X172250000Y-43818071D01*
X172275518Y-43825812D01*
X172400000Y-43838072D01*
X173400000Y-43838072D01*
X173524482Y-43825812D01*
X173550000Y-43818071D01*
X173575518Y-43825812D01*
X173700000Y-43838072D01*
X174700000Y-43838072D01*
X174824482Y-43825812D01*
X174850000Y-43818071D01*
X174875518Y-43825812D01*
X175000000Y-43838072D01*
X176000000Y-43838072D01*
X176124482Y-43825812D01*
X176150000Y-43818071D01*
X176175518Y-43825812D01*
X176300000Y-43838072D01*
X177300000Y-43838072D01*
X177424482Y-43825812D01*
X177450000Y-43818071D01*
X177475518Y-43825812D01*
X177600000Y-43838072D01*
X178600000Y-43838072D01*
X178724482Y-43825812D01*
X178750000Y-43818071D01*
X178775518Y-43825812D01*
X178900000Y-43838072D01*
X179900000Y-43838072D01*
X180024482Y-43825812D01*
X180050000Y-43818071D01*
X180075518Y-43825812D01*
X180200000Y-43838072D01*
X181200000Y-43838072D01*
X181324482Y-43825812D01*
X181350000Y-43818071D01*
X181375518Y-43825812D01*
X181500000Y-43838072D01*
X181714250Y-43835000D01*
X181873000Y-43676250D01*
X181873000Y-39327000D01*
X181853000Y-39327000D01*
X181853000Y-39073000D01*
X181873000Y-39073000D01*
X181873000Y-39053000D01*
X182127000Y-39053000D01*
X182127000Y-39073000D01*
X182147000Y-39073000D01*
X182147000Y-39327000D01*
X182127000Y-39327000D01*
X182127000Y-43676250D01*
X182285750Y-43835000D01*
X182500000Y-43838072D01*
X182540000Y-43834132D01*
X182540000Y-45585198D01*
X170858399Y-57266800D01*
X170807665Y-57266800D01*
X170780906Y-57234194D01*
X170653908Y-57129969D01*
X170509016Y-57052522D01*
X170351800Y-57004831D01*
X170188300Y-56988728D01*
X169638300Y-56988728D01*
X169474800Y-57004831D01*
X169317584Y-57052522D01*
X169220257Y-57104545D01*
X169511004Y-56813798D01*
X169540001Y-56790001D01*
X169566332Y-56757917D01*
X169634974Y-56674277D01*
X169705546Y-56542247D01*
X169705546Y-56542246D01*
X169749003Y-56398986D01*
X169760000Y-56287333D01*
X169760000Y-56287323D01*
X169763676Y-56250000D01*
X169760000Y-56212677D01*
X169760000Y-43834132D01*
X169800000Y-43838072D01*
X170014250Y-43835000D01*
X170173000Y-43676250D01*
X170173000Y-39327000D01*
X170153000Y-39327000D01*
X170153000Y-39073000D01*
X170173000Y-39073000D01*
X170173000Y-39053000D01*
X170427000Y-39053000D01*
X170427000Y-39073000D01*
G37*
%TD.AperFunction*%
%TD*%
M02*
