%TF.GenerationSoftware,KiCad,Pcbnew,(5.1.7)-1*%
%TF.CreationDate,2021-01-12T02:59:51-08:00*%
%TF.ProjectId,froggy,66726f67-6779-42e6-9b69-6361645f7063,rev?*%
%TF.SameCoordinates,Original*%
%TF.FileFunction,Copper,L2,Bot*%
%TF.FilePolarity,Positive*%
%FSLAX46Y46*%
G04 Gerber Fmt 4.6, Leading zero omitted, Abs format (unit mm)*
G04 Created by KiCad (PCBNEW (5.1.7)-1) date 2021-01-12 02:59:51*
%MOMM*%
%LPD*%
G01*
G04 APERTURE LIST*
%TA.AperFunction,ComponentPad*%
%ADD10C,0.700000*%
%TD*%
%TA.AperFunction,ComponentPad*%
%ADD11O,0.900000X2.400000*%
%TD*%
%TA.AperFunction,ComponentPad*%
%ADD12O,0.900000X1.700000*%
%TD*%
%TA.AperFunction,ViaPad*%
%ADD13C,0.800000*%
%TD*%
%TA.AperFunction,Conductor*%
%ADD14C,0.250000*%
%TD*%
%TA.AperFunction,Conductor*%
%ADD15C,0.254000*%
%TD*%
%TA.AperFunction,Conductor*%
%ADD16C,0.100000*%
%TD*%
G04 APERTURE END LIST*
D10*
%TO.P,J1,A1*%
%TO.N,GND*%
X163500000Y-82296000D03*
%TO.P,J1,A4*%
%TO.N,+5V*%
X164350000Y-82296000D03*
%TO.P,J1,A5*%
%TO.N,Net-(J1-PadA5)*%
X165200000Y-82296000D03*
%TO.P,J1,A6*%
%TO.N,/D+*%
X166050000Y-82296000D03*
%TO.P,J1,A7*%
%TO.N,/D-*%
X166900000Y-82296000D03*
%TO.P,J1,A8*%
%TO.N,Net-(J1-PadA8)*%
X167750000Y-82296000D03*
%TO.P,J1,A9*%
%TO.N,+5V*%
X168600000Y-82296000D03*
%TO.P,J1,A12*%
%TO.N,GND*%
X169450000Y-82296000D03*
%TO.P,J1,B9*%
%TO.N,+5V*%
X164350000Y-83646000D03*
%TO.P,J1,B7*%
%TO.N,/D-*%
X166050000Y-83646000D03*
%TO.P,J1,B8*%
%TO.N,Net-(J1-PadB8)*%
X165200000Y-83646000D03*
%TO.P,J1,B12*%
%TO.N,GND*%
X163500000Y-83646000D03*
%TO.P,J1,B5*%
%TO.N,Net-(J1-PadB5)*%
X167750000Y-83646000D03*
%TO.P,J1,B4*%
%TO.N,+5V*%
X168600000Y-83646000D03*
%TO.P,J1,B1*%
%TO.N,GND*%
X169450000Y-83646000D03*
%TO.P,J1,B6*%
%TO.N,/D+*%
X166900000Y-83646000D03*
D11*
%TO.P,J1,S1*%
%TO.N,GND*%
X162150000Y-83276000D03*
X170800000Y-83276000D03*
D12*
X162150000Y-86656000D03*
X170800000Y-86656000D03*
%TD*%
D13*
%TO.N,*%
X186820000Y-86700000D03*
%TO.N,+5V*%
X167900000Y-74525000D03*
X167900000Y-79500000D03*
%TO.N,GND*%
X199000000Y-84000000D03*
X190000000Y-86800000D03*
X182000000Y-44200000D03*
X192400000Y-44200000D03*
X188500000Y-44200000D03*
%TO.N,+3V3*%
X171400000Y-61600000D03*
X166350000Y-58900000D03*
X192200000Y-87600000D03*
X192200000Y-72800000D03*
X192200000Y-77600000D03*
X179400000Y-84600000D03*
%TO.N,/D+*%
X162200000Y-72050000D03*
%TO.N,/D-*%
X164599927Y-73099927D03*
%TO.N,Net-(J1-PadB5)*%
X175575000Y-74350000D03*
%TO.N,/DAT3*%
X194400000Y-76400000D03*
X195000000Y-69600000D03*
%TO.N,/CLK*%
X189800000Y-72800000D03*
X191000000Y-83000000D03*
%TD*%
D14*
%TO.N,+5V*%
X167900000Y-74525000D02*
X167900000Y-79500000D01*
X168600000Y-80200000D02*
X168600000Y-82296000D01*
X167900000Y-79500000D02*
X168600000Y-80200000D01*
%TO.N,+3V3*%
X171400000Y-61600000D02*
X170500000Y-61600000D01*
X168400000Y-61600000D02*
X167700000Y-61600000D01*
X168400000Y-61600000D02*
X171400000Y-61600000D01*
X166350000Y-60250000D02*
X166350000Y-58900000D01*
X167700000Y-61600000D02*
X166350000Y-60250000D01*
X192200000Y-72800000D02*
X192200000Y-77600000D01*
X180457990Y-87832990D02*
X191967010Y-87832990D01*
X179400000Y-86775000D02*
X180457990Y-87832990D01*
X191967010Y-87832990D02*
X192200000Y-87600000D01*
X179400000Y-84600000D02*
X179400000Y-86775000D01*
X171400000Y-61600000D02*
X175800000Y-61600000D01*
X179400000Y-65200000D02*
X179400000Y-70600000D01*
X175800000Y-61600000D02*
X179400000Y-65200000D01*
X179400000Y-70600000D02*
X179400000Y-84600000D01*
X179400000Y-70400000D02*
X179400000Y-70600000D01*
%TO.N,/D+*%
X166810000Y-83795002D02*
X166810000Y-83646000D01*
X162200000Y-72050000D02*
X165110000Y-74960000D01*
X166050000Y-75900000D02*
X165110000Y-74960000D01*
X166050000Y-82296000D02*
X166050000Y-75900000D01*
%TO.N,/D-*%
X166050000Y-83496998D02*
X166050000Y-83646000D01*
X166900000Y-82646998D02*
X166050000Y-83496998D01*
X166900000Y-82296000D02*
X166900000Y-82646998D01*
X164599927Y-73099927D02*
X166900000Y-75400000D01*
X166900000Y-75400000D02*
X166900000Y-82296000D01*
%TO.N,Net-(J1-PadB8)*%
X165110000Y-83496998D02*
X165110000Y-83646000D01*
%TO.N,Net-(J1-PadB5)*%
X167750000Y-84140974D02*
X168809026Y-85200000D01*
X167750000Y-83646000D02*
X167750000Y-84140974D01*
X168809026Y-85200000D02*
X173200000Y-85200000D01*
X174200000Y-75725000D02*
X175575000Y-74350000D01*
X174200000Y-84200000D02*
X174200000Y-75725000D01*
X173200000Y-85200000D02*
X174200000Y-84200000D01*
%TO.N,/DAT3*%
X195000000Y-75800000D02*
X195000000Y-69600000D01*
X194400000Y-76400000D02*
X195000000Y-75800000D01*
%TO.N,/CLK*%
X189800000Y-81800000D02*
X191000000Y-83000000D01*
X189800000Y-72800000D02*
X189800000Y-81800000D01*
%TD*%
D15*
%TO.N,GND*%
X199940001Y-87740000D02*
X193227429Y-87740000D01*
X193235000Y-87701939D01*
X193235000Y-87498061D01*
X193195226Y-87298102D01*
X193117205Y-87109744D01*
X193003937Y-86940226D01*
X192859774Y-86796063D01*
X192690256Y-86682795D01*
X192501898Y-86604774D01*
X192301939Y-86565000D01*
X192098061Y-86565000D01*
X191898102Y-86604774D01*
X191709744Y-86682795D01*
X191540226Y-86796063D01*
X191396063Y-86940226D01*
X191307353Y-87072990D01*
X187785779Y-87072990D01*
X187815226Y-87001898D01*
X187855000Y-86801939D01*
X187855000Y-86598061D01*
X187815226Y-86398102D01*
X187737205Y-86209744D01*
X187623937Y-86040226D01*
X187479774Y-85896063D01*
X187310256Y-85782795D01*
X187121898Y-85704774D01*
X186921939Y-85665000D01*
X186718061Y-85665000D01*
X186518102Y-85704774D01*
X186329744Y-85782795D01*
X186160226Y-85896063D01*
X186016063Y-86040226D01*
X185902795Y-86209744D01*
X185824774Y-86398102D01*
X185785000Y-86598061D01*
X185785000Y-86801939D01*
X185824774Y-87001898D01*
X185854221Y-87072990D01*
X180772792Y-87072990D01*
X180160000Y-86460199D01*
X180160000Y-85303711D01*
X180203937Y-85259774D01*
X180317205Y-85090256D01*
X180395226Y-84901898D01*
X180435000Y-84701939D01*
X180435000Y-84498061D01*
X180395226Y-84298102D01*
X180317205Y-84109744D01*
X180203937Y-83940226D01*
X180160000Y-83896289D01*
X180160000Y-72698061D01*
X188765000Y-72698061D01*
X188765000Y-72901939D01*
X188804774Y-73101898D01*
X188882795Y-73290256D01*
X188996063Y-73459774D01*
X189040000Y-73503711D01*
X189040001Y-81762668D01*
X189036324Y-81800000D01*
X189040001Y-81837333D01*
X189044531Y-81883321D01*
X189050998Y-81948985D01*
X189094454Y-82092246D01*
X189165026Y-82224276D01*
X189223889Y-82296000D01*
X189260000Y-82340001D01*
X189288998Y-82363799D01*
X189965000Y-83039802D01*
X189965000Y-83101939D01*
X190004774Y-83301898D01*
X190082795Y-83490256D01*
X190196063Y-83659774D01*
X190340226Y-83803937D01*
X190509744Y-83917205D01*
X190698102Y-83995226D01*
X190898061Y-84035000D01*
X191101939Y-84035000D01*
X191301898Y-83995226D01*
X191490256Y-83917205D01*
X191659774Y-83803937D01*
X191803937Y-83659774D01*
X191917205Y-83490256D01*
X191995226Y-83301898D01*
X192035000Y-83101939D01*
X192035000Y-82898061D01*
X191995226Y-82698102D01*
X191917205Y-82509744D01*
X191803937Y-82340226D01*
X191659774Y-82196063D01*
X191490256Y-82082795D01*
X191301898Y-82004774D01*
X191101939Y-81965000D01*
X191039802Y-81965000D01*
X190560000Y-81485199D01*
X190560000Y-73503711D01*
X190603937Y-73459774D01*
X190717205Y-73290256D01*
X190795226Y-73101898D01*
X190835000Y-72901939D01*
X190835000Y-72698061D01*
X191165000Y-72698061D01*
X191165000Y-72901939D01*
X191204774Y-73101898D01*
X191282795Y-73290256D01*
X191396063Y-73459774D01*
X191440000Y-73503711D01*
X191440001Y-76896288D01*
X191396063Y-76940226D01*
X191282795Y-77109744D01*
X191204774Y-77298102D01*
X191165000Y-77498061D01*
X191165000Y-77701939D01*
X191204774Y-77901898D01*
X191282795Y-78090256D01*
X191396063Y-78259774D01*
X191540226Y-78403937D01*
X191709744Y-78517205D01*
X191898102Y-78595226D01*
X192098061Y-78635000D01*
X192301939Y-78635000D01*
X192501898Y-78595226D01*
X192690256Y-78517205D01*
X192859774Y-78403937D01*
X193003937Y-78259774D01*
X193117205Y-78090256D01*
X193195226Y-77901898D01*
X193235000Y-77701939D01*
X193235000Y-77498061D01*
X193195226Y-77298102D01*
X193117205Y-77109744D01*
X193003937Y-76940226D01*
X192960000Y-76896289D01*
X192960000Y-76298061D01*
X193365000Y-76298061D01*
X193365000Y-76501939D01*
X193404774Y-76701898D01*
X193482795Y-76890256D01*
X193596063Y-77059774D01*
X193740226Y-77203937D01*
X193909744Y-77317205D01*
X194098102Y-77395226D01*
X194298061Y-77435000D01*
X194501939Y-77435000D01*
X194701898Y-77395226D01*
X194890256Y-77317205D01*
X195059774Y-77203937D01*
X195203937Y-77059774D01*
X195317205Y-76890256D01*
X195395226Y-76701898D01*
X195435000Y-76501939D01*
X195435000Y-76439802D01*
X195511004Y-76363798D01*
X195540001Y-76340001D01*
X195574420Y-76298061D01*
X195634974Y-76224277D01*
X195705546Y-76092247D01*
X195718669Y-76048986D01*
X195749003Y-75948986D01*
X195760000Y-75837333D01*
X195760000Y-75837324D01*
X195763676Y-75800001D01*
X195760000Y-75762678D01*
X195760000Y-70303711D01*
X195803937Y-70259774D01*
X195917205Y-70090256D01*
X195995226Y-69901898D01*
X196035000Y-69701939D01*
X196035000Y-69498061D01*
X195995226Y-69298102D01*
X195917205Y-69109744D01*
X195803937Y-68940226D01*
X195659774Y-68796063D01*
X195490256Y-68682795D01*
X195301898Y-68604774D01*
X195101939Y-68565000D01*
X194898061Y-68565000D01*
X194698102Y-68604774D01*
X194509744Y-68682795D01*
X194340226Y-68796063D01*
X194196063Y-68940226D01*
X194082795Y-69109744D01*
X194004774Y-69298102D01*
X193965000Y-69498061D01*
X193965000Y-69701939D01*
X194004774Y-69901898D01*
X194082795Y-70090256D01*
X194196063Y-70259774D01*
X194240001Y-70303712D01*
X194240000Y-75376549D01*
X194098102Y-75404774D01*
X193909744Y-75482795D01*
X193740226Y-75596063D01*
X193596063Y-75740226D01*
X193482795Y-75909744D01*
X193404774Y-76098102D01*
X193365000Y-76298061D01*
X192960000Y-76298061D01*
X192960000Y-73503711D01*
X193003937Y-73459774D01*
X193117205Y-73290256D01*
X193195226Y-73101898D01*
X193235000Y-72901939D01*
X193235000Y-72698061D01*
X193195226Y-72498102D01*
X193117205Y-72309744D01*
X193003937Y-72140226D01*
X192859774Y-71996063D01*
X192690256Y-71882795D01*
X192501898Y-71804774D01*
X192301939Y-71765000D01*
X192098061Y-71765000D01*
X191898102Y-71804774D01*
X191709744Y-71882795D01*
X191540226Y-71996063D01*
X191396063Y-72140226D01*
X191282795Y-72309744D01*
X191204774Y-72498102D01*
X191165000Y-72698061D01*
X190835000Y-72698061D01*
X190795226Y-72498102D01*
X190717205Y-72309744D01*
X190603937Y-72140226D01*
X190459774Y-71996063D01*
X190290256Y-71882795D01*
X190101898Y-71804774D01*
X189901939Y-71765000D01*
X189698061Y-71765000D01*
X189498102Y-71804774D01*
X189309744Y-71882795D01*
X189140226Y-71996063D01*
X188996063Y-72140226D01*
X188882795Y-72309744D01*
X188804774Y-72498102D01*
X188765000Y-72698061D01*
X180160000Y-72698061D01*
X180160000Y-65237323D01*
X180163676Y-65200000D01*
X180160000Y-65162677D01*
X180160000Y-65162667D01*
X180149003Y-65051014D01*
X180105546Y-64907753D01*
X180034974Y-64775724D01*
X179940001Y-64659999D01*
X179911004Y-64636202D01*
X176363804Y-61089003D01*
X176340001Y-61059999D01*
X176224276Y-60965026D01*
X176092247Y-60894454D01*
X175948986Y-60850997D01*
X175837333Y-60840000D01*
X175837322Y-60840000D01*
X175800000Y-60836324D01*
X175762678Y-60840000D01*
X172103711Y-60840000D01*
X172059774Y-60796063D01*
X171890256Y-60682795D01*
X171701898Y-60604774D01*
X171501939Y-60565000D01*
X171298061Y-60565000D01*
X171098102Y-60604774D01*
X170909744Y-60682795D01*
X170740226Y-60796063D01*
X170696289Y-60840000D01*
X168014802Y-60840000D01*
X167110000Y-59935199D01*
X167110000Y-59603711D01*
X167153937Y-59559774D01*
X167267205Y-59390256D01*
X167345226Y-59201898D01*
X167385000Y-59001939D01*
X167385000Y-58798061D01*
X167345226Y-58598102D01*
X167267205Y-58409744D01*
X167153937Y-58240226D01*
X167009774Y-58096063D01*
X166840256Y-57982795D01*
X166651898Y-57904774D01*
X166451939Y-57865000D01*
X166248061Y-57865000D01*
X166048102Y-57904774D01*
X165859744Y-57982795D01*
X165690226Y-58096063D01*
X165546063Y-58240226D01*
X165432795Y-58409744D01*
X165354774Y-58598102D01*
X165315000Y-58798061D01*
X165315000Y-59001939D01*
X165354774Y-59201898D01*
X165432795Y-59390256D01*
X165546063Y-59559774D01*
X165590000Y-59603711D01*
X165590000Y-60212677D01*
X165586324Y-60250000D01*
X165590000Y-60287322D01*
X165590000Y-60287332D01*
X165600997Y-60398985D01*
X165644454Y-60542246D01*
X165715026Y-60674276D01*
X165754871Y-60722826D01*
X165809999Y-60790001D01*
X165839003Y-60813804D01*
X167136200Y-62111002D01*
X167159999Y-62140001D01*
X167275724Y-62234974D01*
X167407753Y-62305546D01*
X167551014Y-62349003D01*
X167662667Y-62360000D01*
X167662676Y-62360000D01*
X167699999Y-62363676D01*
X167737322Y-62360000D01*
X170696289Y-62360000D01*
X170740226Y-62403937D01*
X170909744Y-62517205D01*
X171098102Y-62595226D01*
X171298061Y-62635000D01*
X171501939Y-62635000D01*
X171701898Y-62595226D01*
X171890256Y-62517205D01*
X172059774Y-62403937D01*
X172103711Y-62360000D01*
X175485199Y-62360000D01*
X178640000Y-65514802D01*
X178640001Y-70362658D01*
X178640000Y-70362668D01*
X178640000Y-70562668D01*
X178640001Y-83896288D01*
X178596063Y-83940226D01*
X178482795Y-84109744D01*
X178404774Y-84298102D01*
X178365000Y-84498061D01*
X178365000Y-84701939D01*
X178404774Y-84901898D01*
X178482795Y-85090256D01*
X178596063Y-85259774D01*
X178640000Y-85303711D01*
X178640001Y-86737668D01*
X178636324Y-86775000D01*
X178650998Y-86923985D01*
X178694454Y-87067246D01*
X178765026Y-87199276D01*
X178836201Y-87286002D01*
X178860000Y-87315001D01*
X178888998Y-87338799D01*
X179290199Y-87740000D01*
X171648540Y-87740000D01*
X171753809Y-87588545D01*
X171839376Y-87392233D01*
X171885000Y-87183000D01*
X171885000Y-86783000D01*
X170927000Y-86783000D01*
X170927000Y-86803000D01*
X170673000Y-86803000D01*
X170673000Y-86783000D01*
X169715000Y-86783000D01*
X169715000Y-87183000D01*
X169760624Y-87392233D01*
X169846191Y-87588545D01*
X169951460Y-87740000D01*
X162998540Y-87740000D01*
X163103809Y-87588545D01*
X163189376Y-87392233D01*
X163235000Y-87183000D01*
X163235000Y-86783000D01*
X162277000Y-86783000D01*
X162277000Y-86803000D01*
X162023000Y-86803000D01*
X162023000Y-86783000D01*
X161065000Y-86783000D01*
X161065000Y-87183000D01*
X161110624Y-87392233D01*
X161196191Y-87588545D01*
X161301460Y-87740000D01*
X157460000Y-87740000D01*
X157460000Y-86129000D01*
X161065000Y-86129000D01*
X161065000Y-86529000D01*
X162023000Y-86529000D01*
X162023000Y-85338498D01*
X162277000Y-85338498D01*
X162277000Y-86529000D01*
X163235000Y-86529000D01*
X163235000Y-86129000D01*
X163189376Y-85919767D01*
X163103809Y-85723455D01*
X162981587Y-85547609D01*
X162827408Y-85398986D01*
X162647197Y-85283298D01*
X162444001Y-85211592D01*
X162277000Y-85338498D01*
X162023000Y-85338498D01*
X161855999Y-85211592D01*
X161652803Y-85283298D01*
X161472592Y-85398986D01*
X161318413Y-85547609D01*
X161196191Y-85723455D01*
X161110624Y-85919767D01*
X161065000Y-86129000D01*
X157460000Y-86129000D01*
X157460000Y-83403000D01*
X161065000Y-83403000D01*
X161065000Y-84153000D01*
X161110624Y-84362233D01*
X161196191Y-84558545D01*
X161318413Y-84734391D01*
X161472592Y-84883014D01*
X161652803Y-84998702D01*
X161855999Y-85070408D01*
X162023000Y-84943502D01*
X162023000Y-83403000D01*
X161065000Y-83403000D01*
X157460000Y-83403000D01*
X157460000Y-82399000D01*
X161065000Y-82399000D01*
X161065000Y-83149000D01*
X162023000Y-83149000D01*
X162023000Y-81608498D01*
X161855999Y-81481592D01*
X161652803Y-81553298D01*
X161472592Y-81668986D01*
X161318413Y-81817609D01*
X161196191Y-81993455D01*
X161110624Y-82189767D01*
X161065000Y-82399000D01*
X157460000Y-82399000D01*
X157460000Y-71948061D01*
X161165000Y-71948061D01*
X161165000Y-72151939D01*
X161204774Y-72351898D01*
X161282795Y-72540256D01*
X161396063Y-72709774D01*
X161540226Y-72853937D01*
X161709744Y-72967205D01*
X161898102Y-73045226D01*
X162098061Y-73085000D01*
X162160199Y-73085000D01*
X164598996Y-75523799D01*
X164599007Y-75523808D01*
X165290001Y-76214803D01*
X165290000Y-81311000D01*
X165102986Y-81311000D01*
X164912686Y-81348853D01*
X164775000Y-81405884D01*
X164637314Y-81348853D01*
X164447014Y-81311000D01*
X164252986Y-81311000D01*
X164062686Y-81348853D01*
X163924458Y-81406109D01*
X163795616Y-81351411D01*
X163605656Y-81311890D01*
X163411636Y-81310187D01*
X163221011Y-81346368D01*
X163041107Y-81419043D01*
X163025784Y-81427233D01*
X163009088Y-81625483D01*
X163401101Y-82017496D01*
X163365000Y-82198986D01*
X163365000Y-82368890D01*
X163306253Y-82310143D01*
X163320395Y-82296000D01*
X163170225Y-82145830D01*
X163103809Y-81993455D01*
X162981587Y-81817609D01*
X162827408Y-81668986D01*
X162647197Y-81553298D01*
X162444001Y-81481592D01*
X162277000Y-81608498D01*
X162277000Y-83149000D01*
X162823392Y-83149000D01*
X162829480Y-83155088D01*
X162631233Y-83171784D01*
X162555411Y-83350384D01*
X162544464Y-83403000D01*
X162277000Y-83403000D01*
X162277000Y-84943502D01*
X162444001Y-85070408D01*
X162647197Y-84998702D01*
X162827408Y-84883014D01*
X162981587Y-84734391D01*
X163103809Y-84558545D01*
X163107728Y-84549555D01*
X163204384Y-84590589D01*
X163394344Y-84630110D01*
X163588364Y-84631813D01*
X163778989Y-84595632D01*
X163925651Y-84536385D01*
X164062686Y-84593147D01*
X164252986Y-84631000D01*
X164447014Y-84631000D01*
X164637314Y-84593147D01*
X164775000Y-84536116D01*
X164912686Y-84593147D01*
X165102986Y-84631000D01*
X165297014Y-84631000D01*
X165487314Y-84593147D01*
X165625000Y-84536116D01*
X165762686Y-84593147D01*
X165952986Y-84631000D01*
X166147014Y-84631000D01*
X166337314Y-84593147D01*
X166475000Y-84536116D01*
X166612686Y-84593147D01*
X166802986Y-84631000D01*
X166997014Y-84631000D01*
X167144852Y-84601593D01*
X167210000Y-84680975D01*
X167238998Y-84704773D01*
X168245227Y-85711003D01*
X168269025Y-85740001D01*
X168298023Y-85763799D01*
X168384749Y-85834974D01*
X168499038Y-85896063D01*
X168516779Y-85905546D01*
X168660040Y-85949003D01*
X168771693Y-85960000D01*
X168771703Y-85960000D01*
X168809026Y-85963676D01*
X168846349Y-85960000D01*
X169751851Y-85960000D01*
X169715000Y-86129000D01*
X169715000Y-86529000D01*
X170673000Y-86529000D01*
X170673000Y-86509000D01*
X170927000Y-86509000D01*
X170927000Y-86529000D01*
X171885000Y-86529000D01*
X171885000Y-86129000D01*
X171848149Y-85960000D01*
X173162678Y-85960000D01*
X173200000Y-85963676D01*
X173237322Y-85960000D01*
X173237333Y-85960000D01*
X173348986Y-85949003D01*
X173492247Y-85905546D01*
X173624276Y-85834974D01*
X173740001Y-85740001D01*
X173763804Y-85710998D01*
X174711004Y-84763798D01*
X174740001Y-84740001D01*
X174834974Y-84624276D01*
X174905546Y-84492247D01*
X174949003Y-84348986D01*
X174960000Y-84237333D01*
X174960000Y-84237332D01*
X174963677Y-84200000D01*
X174960000Y-84162667D01*
X174960000Y-76039801D01*
X175614802Y-75385000D01*
X175676939Y-75385000D01*
X175876898Y-75345226D01*
X176065256Y-75267205D01*
X176234774Y-75153937D01*
X176378937Y-75009774D01*
X176492205Y-74840256D01*
X176570226Y-74651898D01*
X176610000Y-74451939D01*
X176610000Y-74248061D01*
X176570226Y-74048102D01*
X176492205Y-73859744D01*
X176378937Y-73690226D01*
X176234774Y-73546063D01*
X176065256Y-73432795D01*
X175876898Y-73354774D01*
X175676939Y-73315000D01*
X175473061Y-73315000D01*
X175273102Y-73354774D01*
X175084744Y-73432795D01*
X174915226Y-73546063D01*
X174771063Y-73690226D01*
X174657795Y-73859744D01*
X174579774Y-74048102D01*
X174540000Y-74248061D01*
X174540000Y-74310198D01*
X173688998Y-75161201D01*
X173660000Y-75184999D01*
X173636202Y-75213997D01*
X173636201Y-75213998D01*
X173565026Y-75300724D01*
X173494454Y-75432754D01*
X173450998Y-75576015D01*
X173436324Y-75725000D01*
X173440001Y-75762332D01*
X173440000Y-83885198D01*
X172885199Y-84440000D01*
X171805480Y-84440000D01*
X171839376Y-84362233D01*
X171885000Y-84153000D01*
X171885000Y-83403000D01*
X170927000Y-83403000D01*
X170927000Y-83423000D01*
X170673000Y-83423000D01*
X170673000Y-83403000D01*
X170406463Y-83403000D01*
X170399632Y-83367011D01*
X170326957Y-83187107D01*
X170318767Y-83171784D01*
X170120520Y-83155088D01*
X170126608Y-83149000D01*
X170673000Y-83149000D01*
X170673000Y-81608498D01*
X170927000Y-81608498D01*
X170927000Y-83149000D01*
X171885000Y-83149000D01*
X171885000Y-82399000D01*
X171839376Y-82189767D01*
X171753809Y-81993455D01*
X171631587Y-81817609D01*
X171477408Y-81668986D01*
X171297197Y-81553298D01*
X171094001Y-81481592D01*
X170927000Y-81608498D01*
X170673000Y-81608498D01*
X170505999Y-81481592D01*
X170302803Y-81553298D01*
X170122592Y-81668986D01*
X169968413Y-81817609D01*
X169846191Y-81993455D01*
X169779775Y-82145830D01*
X169629605Y-82296000D01*
X169643748Y-82310143D01*
X169585000Y-82368890D01*
X169585000Y-82198986D01*
X169548899Y-82017496D01*
X169940912Y-81625483D01*
X169924216Y-81427233D01*
X169745616Y-81351411D01*
X169555656Y-81311890D01*
X169361636Y-81310187D01*
X169360000Y-81310498D01*
X169360000Y-80237322D01*
X169363676Y-80199999D01*
X169360000Y-80162676D01*
X169360000Y-80162667D01*
X169349003Y-80051014D01*
X169305546Y-79907753D01*
X169234974Y-79775724D01*
X169221811Y-79759685D01*
X169163799Y-79688996D01*
X169163795Y-79688992D01*
X169140001Y-79659999D01*
X169111009Y-79636206D01*
X168935000Y-79460198D01*
X168935000Y-79398061D01*
X168895226Y-79198102D01*
X168817205Y-79009744D01*
X168703937Y-78840226D01*
X168660000Y-78796289D01*
X168660000Y-75228711D01*
X168703937Y-75184774D01*
X168817205Y-75015256D01*
X168895226Y-74826898D01*
X168935000Y-74626939D01*
X168935000Y-74423061D01*
X168895226Y-74223102D01*
X168817205Y-74034744D01*
X168703937Y-73865226D01*
X168559774Y-73721063D01*
X168390256Y-73607795D01*
X168201898Y-73529774D01*
X168001939Y-73490000D01*
X167798061Y-73490000D01*
X167598102Y-73529774D01*
X167409744Y-73607795D01*
X167240226Y-73721063D01*
X167096063Y-73865226D01*
X166982795Y-74034744D01*
X166904774Y-74223102D01*
X166887043Y-74312241D01*
X165634927Y-73060126D01*
X165634927Y-72997988D01*
X165595153Y-72798029D01*
X165517132Y-72609671D01*
X165403864Y-72440153D01*
X165259701Y-72295990D01*
X165090183Y-72182722D01*
X164901825Y-72104701D01*
X164701866Y-72064927D01*
X164497988Y-72064927D01*
X164298029Y-72104701D01*
X164109671Y-72182722D01*
X163940153Y-72295990D01*
X163795990Y-72440153D01*
X163743505Y-72518703D01*
X163235000Y-72010199D01*
X163235000Y-71948061D01*
X163195226Y-71748102D01*
X163117205Y-71559744D01*
X163003937Y-71390226D01*
X162859774Y-71246063D01*
X162690256Y-71132795D01*
X162501898Y-71054774D01*
X162301939Y-71015000D01*
X162098061Y-71015000D01*
X161898102Y-71054774D01*
X161709744Y-71132795D01*
X161540226Y-71246063D01*
X161396063Y-71390226D01*
X161282795Y-71559744D01*
X161204774Y-71748102D01*
X161165000Y-71948061D01*
X157460000Y-71948061D01*
X157460000Y-35260000D01*
X199940000Y-35260000D01*
X199940001Y-87740000D01*
%TA.AperFunction,Conductor*%
D16*
G36*
X199940001Y-87740000D02*
G01*
X193227429Y-87740000D01*
X193235000Y-87701939D01*
X193235000Y-87498061D01*
X193195226Y-87298102D01*
X193117205Y-87109744D01*
X193003937Y-86940226D01*
X192859774Y-86796063D01*
X192690256Y-86682795D01*
X192501898Y-86604774D01*
X192301939Y-86565000D01*
X192098061Y-86565000D01*
X191898102Y-86604774D01*
X191709744Y-86682795D01*
X191540226Y-86796063D01*
X191396063Y-86940226D01*
X191307353Y-87072990D01*
X187785779Y-87072990D01*
X187815226Y-87001898D01*
X187855000Y-86801939D01*
X187855000Y-86598061D01*
X187815226Y-86398102D01*
X187737205Y-86209744D01*
X187623937Y-86040226D01*
X187479774Y-85896063D01*
X187310256Y-85782795D01*
X187121898Y-85704774D01*
X186921939Y-85665000D01*
X186718061Y-85665000D01*
X186518102Y-85704774D01*
X186329744Y-85782795D01*
X186160226Y-85896063D01*
X186016063Y-86040226D01*
X185902795Y-86209744D01*
X185824774Y-86398102D01*
X185785000Y-86598061D01*
X185785000Y-86801939D01*
X185824774Y-87001898D01*
X185854221Y-87072990D01*
X180772792Y-87072990D01*
X180160000Y-86460199D01*
X180160000Y-85303711D01*
X180203937Y-85259774D01*
X180317205Y-85090256D01*
X180395226Y-84901898D01*
X180435000Y-84701939D01*
X180435000Y-84498061D01*
X180395226Y-84298102D01*
X180317205Y-84109744D01*
X180203937Y-83940226D01*
X180160000Y-83896289D01*
X180160000Y-72698061D01*
X188765000Y-72698061D01*
X188765000Y-72901939D01*
X188804774Y-73101898D01*
X188882795Y-73290256D01*
X188996063Y-73459774D01*
X189040000Y-73503711D01*
X189040001Y-81762668D01*
X189036324Y-81800000D01*
X189040001Y-81837333D01*
X189044531Y-81883321D01*
X189050998Y-81948985D01*
X189094454Y-82092246D01*
X189165026Y-82224276D01*
X189223889Y-82296000D01*
X189260000Y-82340001D01*
X189288998Y-82363799D01*
X189965000Y-83039802D01*
X189965000Y-83101939D01*
X190004774Y-83301898D01*
X190082795Y-83490256D01*
X190196063Y-83659774D01*
X190340226Y-83803937D01*
X190509744Y-83917205D01*
X190698102Y-83995226D01*
X190898061Y-84035000D01*
X191101939Y-84035000D01*
X191301898Y-83995226D01*
X191490256Y-83917205D01*
X191659774Y-83803937D01*
X191803937Y-83659774D01*
X191917205Y-83490256D01*
X191995226Y-83301898D01*
X192035000Y-83101939D01*
X192035000Y-82898061D01*
X191995226Y-82698102D01*
X191917205Y-82509744D01*
X191803937Y-82340226D01*
X191659774Y-82196063D01*
X191490256Y-82082795D01*
X191301898Y-82004774D01*
X191101939Y-81965000D01*
X191039802Y-81965000D01*
X190560000Y-81485199D01*
X190560000Y-73503711D01*
X190603937Y-73459774D01*
X190717205Y-73290256D01*
X190795226Y-73101898D01*
X190835000Y-72901939D01*
X190835000Y-72698061D01*
X191165000Y-72698061D01*
X191165000Y-72901939D01*
X191204774Y-73101898D01*
X191282795Y-73290256D01*
X191396063Y-73459774D01*
X191440000Y-73503711D01*
X191440001Y-76896288D01*
X191396063Y-76940226D01*
X191282795Y-77109744D01*
X191204774Y-77298102D01*
X191165000Y-77498061D01*
X191165000Y-77701939D01*
X191204774Y-77901898D01*
X191282795Y-78090256D01*
X191396063Y-78259774D01*
X191540226Y-78403937D01*
X191709744Y-78517205D01*
X191898102Y-78595226D01*
X192098061Y-78635000D01*
X192301939Y-78635000D01*
X192501898Y-78595226D01*
X192690256Y-78517205D01*
X192859774Y-78403937D01*
X193003937Y-78259774D01*
X193117205Y-78090256D01*
X193195226Y-77901898D01*
X193235000Y-77701939D01*
X193235000Y-77498061D01*
X193195226Y-77298102D01*
X193117205Y-77109744D01*
X193003937Y-76940226D01*
X192960000Y-76896289D01*
X192960000Y-76298061D01*
X193365000Y-76298061D01*
X193365000Y-76501939D01*
X193404774Y-76701898D01*
X193482795Y-76890256D01*
X193596063Y-77059774D01*
X193740226Y-77203937D01*
X193909744Y-77317205D01*
X194098102Y-77395226D01*
X194298061Y-77435000D01*
X194501939Y-77435000D01*
X194701898Y-77395226D01*
X194890256Y-77317205D01*
X195059774Y-77203937D01*
X195203937Y-77059774D01*
X195317205Y-76890256D01*
X195395226Y-76701898D01*
X195435000Y-76501939D01*
X195435000Y-76439802D01*
X195511004Y-76363798D01*
X195540001Y-76340001D01*
X195574420Y-76298061D01*
X195634974Y-76224277D01*
X195705546Y-76092247D01*
X195718669Y-76048986D01*
X195749003Y-75948986D01*
X195760000Y-75837333D01*
X195760000Y-75837324D01*
X195763676Y-75800001D01*
X195760000Y-75762678D01*
X195760000Y-70303711D01*
X195803937Y-70259774D01*
X195917205Y-70090256D01*
X195995226Y-69901898D01*
X196035000Y-69701939D01*
X196035000Y-69498061D01*
X195995226Y-69298102D01*
X195917205Y-69109744D01*
X195803937Y-68940226D01*
X195659774Y-68796063D01*
X195490256Y-68682795D01*
X195301898Y-68604774D01*
X195101939Y-68565000D01*
X194898061Y-68565000D01*
X194698102Y-68604774D01*
X194509744Y-68682795D01*
X194340226Y-68796063D01*
X194196063Y-68940226D01*
X194082795Y-69109744D01*
X194004774Y-69298102D01*
X193965000Y-69498061D01*
X193965000Y-69701939D01*
X194004774Y-69901898D01*
X194082795Y-70090256D01*
X194196063Y-70259774D01*
X194240001Y-70303712D01*
X194240000Y-75376549D01*
X194098102Y-75404774D01*
X193909744Y-75482795D01*
X193740226Y-75596063D01*
X193596063Y-75740226D01*
X193482795Y-75909744D01*
X193404774Y-76098102D01*
X193365000Y-76298061D01*
X192960000Y-76298061D01*
X192960000Y-73503711D01*
X193003937Y-73459774D01*
X193117205Y-73290256D01*
X193195226Y-73101898D01*
X193235000Y-72901939D01*
X193235000Y-72698061D01*
X193195226Y-72498102D01*
X193117205Y-72309744D01*
X193003937Y-72140226D01*
X192859774Y-71996063D01*
X192690256Y-71882795D01*
X192501898Y-71804774D01*
X192301939Y-71765000D01*
X192098061Y-71765000D01*
X191898102Y-71804774D01*
X191709744Y-71882795D01*
X191540226Y-71996063D01*
X191396063Y-72140226D01*
X191282795Y-72309744D01*
X191204774Y-72498102D01*
X191165000Y-72698061D01*
X190835000Y-72698061D01*
X190795226Y-72498102D01*
X190717205Y-72309744D01*
X190603937Y-72140226D01*
X190459774Y-71996063D01*
X190290256Y-71882795D01*
X190101898Y-71804774D01*
X189901939Y-71765000D01*
X189698061Y-71765000D01*
X189498102Y-71804774D01*
X189309744Y-71882795D01*
X189140226Y-71996063D01*
X188996063Y-72140226D01*
X188882795Y-72309744D01*
X188804774Y-72498102D01*
X188765000Y-72698061D01*
X180160000Y-72698061D01*
X180160000Y-65237323D01*
X180163676Y-65200000D01*
X180160000Y-65162677D01*
X180160000Y-65162667D01*
X180149003Y-65051014D01*
X180105546Y-64907753D01*
X180034974Y-64775724D01*
X179940001Y-64659999D01*
X179911004Y-64636202D01*
X176363804Y-61089003D01*
X176340001Y-61059999D01*
X176224276Y-60965026D01*
X176092247Y-60894454D01*
X175948986Y-60850997D01*
X175837333Y-60840000D01*
X175837322Y-60840000D01*
X175800000Y-60836324D01*
X175762678Y-60840000D01*
X172103711Y-60840000D01*
X172059774Y-60796063D01*
X171890256Y-60682795D01*
X171701898Y-60604774D01*
X171501939Y-60565000D01*
X171298061Y-60565000D01*
X171098102Y-60604774D01*
X170909744Y-60682795D01*
X170740226Y-60796063D01*
X170696289Y-60840000D01*
X168014802Y-60840000D01*
X167110000Y-59935199D01*
X167110000Y-59603711D01*
X167153937Y-59559774D01*
X167267205Y-59390256D01*
X167345226Y-59201898D01*
X167385000Y-59001939D01*
X167385000Y-58798061D01*
X167345226Y-58598102D01*
X167267205Y-58409744D01*
X167153937Y-58240226D01*
X167009774Y-58096063D01*
X166840256Y-57982795D01*
X166651898Y-57904774D01*
X166451939Y-57865000D01*
X166248061Y-57865000D01*
X166048102Y-57904774D01*
X165859744Y-57982795D01*
X165690226Y-58096063D01*
X165546063Y-58240226D01*
X165432795Y-58409744D01*
X165354774Y-58598102D01*
X165315000Y-58798061D01*
X165315000Y-59001939D01*
X165354774Y-59201898D01*
X165432795Y-59390256D01*
X165546063Y-59559774D01*
X165590000Y-59603711D01*
X165590000Y-60212677D01*
X165586324Y-60250000D01*
X165590000Y-60287322D01*
X165590000Y-60287332D01*
X165600997Y-60398985D01*
X165644454Y-60542246D01*
X165715026Y-60674276D01*
X165754871Y-60722826D01*
X165809999Y-60790001D01*
X165839003Y-60813804D01*
X167136200Y-62111002D01*
X167159999Y-62140001D01*
X167275724Y-62234974D01*
X167407753Y-62305546D01*
X167551014Y-62349003D01*
X167662667Y-62360000D01*
X167662676Y-62360000D01*
X167699999Y-62363676D01*
X167737322Y-62360000D01*
X170696289Y-62360000D01*
X170740226Y-62403937D01*
X170909744Y-62517205D01*
X171098102Y-62595226D01*
X171298061Y-62635000D01*
X171501939Y-62635000D01*
X171701898Y-62595226D01*
X171890256Y-62517205D01*
X172059774Y-62403937D01*
X172103711Y-62360000D01*
X175485199Y-62360000D01*
X178640000Y-65514802D01*
X178640001Y-70362658D01*
X178640000Y-70362668D01*
X178640000Y-70562668D01*
X178640001Y-83896288D01*
X178596063Y-83940226D01*
X178482795Y-84109744D01*
X178404774Y-84298102D01*
X178365000Y-84498061D01*
X178365000Y-84701939D01*
X178404774Y-84901898D01*
X178482795Y-85090256D01*
X178596063Y-85259774D01*
X178640000Y-85303711D01*
X178640001Y-86737668D01*
X178636324Y-86775000D01*
X178650998Y-86923985D01*
X178694454Y-87067246D01*
X178765026Y-87199276D01*
X178836201Y-87286002D01*
X178860000Y-87315001D01*
X178888998Y-87338799D01*
X179290199Y-87740000D01*
X171648540Y-87740000D01*
X171753809Y-87588545D01*
X171839376Y-87392233D01*
X171885000Y-87183000D01*
X171885000Y-86783000D01*
X170927000Y-86783000D01*
X170927000Y-86803000D01*
X170673000Y-86803000D01*
X170673000Y-86783000D01*
X169715000Y-86783000D01*
X169715000Y-87183000D01*
X169760624Y-87392233D01*
X169846191Y-87588545D01*
X169951460Y-87740000D01*
X162998540Y-87740000D01*
X163103809Y-87588545D01*
X163189376Y-87392233D01*
X163235000Y-87183000D01*
X163235000Y-86783000D01*
X162277000Y-86783000D01*
X162277000Y-86803000D01*
X162023000Y-86803000D01*
X162023000Y-86783000D01*
X161065000Y-86783000D01*
X161065000Y-87183000D01*
X161110624Y-87392233D01*
X161196191Y-87588545D01*
X161301460Y-87740000D01*
X157460000Y-87740000D01*
X157460000Y-86129000D01*
X161065000Y-86129000D01*
X161065000Y-86529000D01*
X162023000Y-86529000D01*
X162023000Y-85338498D01*
X162277000Y-85338498D01*
X162277000Y-86529000D01*
X163235000Y-86529000D01*
X163235000Y-86129000D01*
X163189376Y-85919767D01*
X163103809Y-85723455D01*
X162981587Y-85547609D01*
X162827408Y-85398986D01*
X162647197Y-85283298D01*
X162444001Y-85211592D01*
X162277000Y-85338498D01*
X162023000Y-85338498D01*
X161855999Y-85211592D01*
X161652803Y-85283298D01*
X161472592Y-85398986D01*
X161318413Y-85547609D01*
X161196191Y-85723455D01*
X161110624Y-85919767D01*
X161065000Y-86129000D01*
X157460000Y-86129000D01*
X157460000Y-83403000D01*
X161065000Y-83403000D01*
X161065000Y-84153000D01*
X161110624Y-84362233D01*
X161196191Y-84558545D01*
X161318413Y-84734391D01*
X161472592Y-84883014D01*
X161652803Y-84998702D01*
X161855999Y-85070408D01*
X162023000Y-84943502D01*
X162023000Y-83403000D01*
X161065000Y-83403000D01*
X157460000Y-83403000D01*
X157460000Y-82399000D01*
X161065000Y-82399000D01*
X161065000Y-83149000D01*
X162023000Y-83149000D01*
X162023000Y-81608498D01*
X161855999Y-81481592D01*
X161652803Y-81553298D01*
X161472592Y-81668986D01*
X161318413Y-81817609D01*
X161196191Y-81993455D01*
X161110624Y-82189767D01*
X161065000Y-82399000D01*
X157460000Y-82399000D01*
X157460000Y-71948061D01*
X161165000Y-71948061D01*
X161165000Y-72151939D01*
X161204774Y-72351898D01*
X161282795Y-72540256D01*
X161396063Y-72709774D01*
X161540226Y-72853937D01*
X161709744Y-72967205D01*
X161898102Y-73045226D01*
X162098061Y-73085000D01*
X162160199Y-73085000D01*
X164598996Y-75523799D01*
X164599007Y-75523808D01*
X165290001Y-76214803D01*
X165290000Y-81311000D01*
X165102986Y-81311000D01*
X164912686Y-81348853D01*
X164775000Y-81405884D01*
X164637314Y-81348853D01*
X164447014Y-81311000D01*
X164252986Y-81311000D01*
X164062686Y-81348853D01*
X163924458Y-81406109D01*
X163795616Y-81351411D01*
X163605656Y-81311890D01*
X163411636Y-81310187D01*
X163221011Y-81346368D01*
X163041107Y-81419043D01*
X163025784Y-81427233D01*
X163009088Y-81625483D01*
X163401101Y-82017496D01*
X163365000Y-82198986D01*
X163365000Y-82368890D01*
X163306253Y-82310143D01*
X163320395Y-82296000D01*
X163170225Y-82145830D01*
X163103809Y-81993455D01*
X162981587Y-81817609D01*
X162827408Y-81668986D01*
X162647197Y-81553298D01*
X162444001Y-81481592D01*
X162277000Y-81608498D01*
X162277000Y-83149000D01*
X162823392Y-83149000D01*
X162829480Y-83155088D01*
X162631233Y-83171784D01*
X162555411Y-83350384D01*
X162544464Y-83403000D01*
X162277000Y-83403000D01*
X162277000Y-84943502D01*
X162444001Y-85070408D01*
X162647197Y-84998702D01*
X162827408Y-84883014D01*
X162981587Y-84734391D01*
X163103809Y-84558545D01*
X163107728Y-84549555D01*
X163204384Y-84590589D01*
X163394344Y-84630110D01*
X163588364Y-84631813D01*
X163778989Y-84595632D01*
X163925651Y-84536385D01*
X164062686Y-84593147D01*
X164252986Y-84631000D01*
X164447014Y-84631000D01*
X164637314Y-84593147D01*
X164775000Y-84536116D01*
X164912686Y-84593147D01*
X165102986Y-84631000D01*
X165297014Y-84631000D01*
X165487314Y-84593147D01*
X165625000Y-84536116D01*
X165762686Y-84593147D01*
X165952986Y-84631000D01*
X166147014Y-84631000D01*
X166337314Y-84593147D01*
X166475000Y-84536116D01*
X166612686Y-84593147D01*
X166802986Y-84631000D01*
X166997014Y-84631000D01*
X167144852Y-84601593D01*
X167210000Y-84680975D01*
X167238998Y-84704773D01*
X168245227Y-85711003D01*
X168269025Y-85740001D01*
X168298023Y-85763799D01*
X168384749Y-85834974D01*
X168499038Y-85896063D01*
X168516779Y-85905546D01*
X168660040Y-85949003D01*
X168771693Y-85960000D01*
X168771703Y-85960000D01*
X168809026Y-85963676D01*
X168846349Y-85960000D01*
X169751851Y-85960000D01*
X169715000Y-86129000D01*
X169715000Y-86529000D01*
X170673000Y-86529000D01*
X170673000Y-86509000D01*
X170927000Y-86509000D01*
X170927000Y-86529000D01*
X171885000Y-86529000D01*
X171885000Y-86129000D01*
X171848149Y-85960000D01*
X173162678Y-85960000D01*
X173200000Y-85963676D01*
X173237322Y-85960000D01*
X173237333Y-85960000D01*
X173348986Y-85949003D01*
X173492247Y-85905546D01*
X173624276Y-85834974D01*
X173740001Y-85740001D01*
X173763804Y-85710998D01*
X174711004Y-84763798D01*
X174740001Y-84740001D01*
X174834974Y-84624276D01*
X174905546Y-84492247D01*
X174949003Y-84348986D01*
X174960000Y-84237333D01*
X174960000Y-84237332D01*
X174963677Y-84200000D01*
X174960000Y-84162667D01*
X174960000Y-76039801D01*
X175614802Y-75385000D01*
X175676939Y-75385000D01*
X175876898Y-75345226D01*
X176065256Y-75267205D01*
X176234774Y-75153937D01*
X176378937Y-75009774D01*
X176492205Y-74840256D01*
X176570226Y-74651898D01*
X176610000Y-74451939D01*
X176610000Y-74248061D01*
X176570226Y-74048102D01*
X176492205Y-73859744D01*
X176378937Y-73690226D01*
X176234774Y-73546063D01*
X176065256Y-73432795D01*
X175876898Y-73354774D01*
X175676939Y-73315000D01*
X175473061Y-73315000D01*
X175273102Y-73354774D01*
X175084744Y-73432795D01*
X174915226Y-73546063D01*
X174771063Y-73690226D01*
X174657795Y-73859744D01*
X174579774Y-74048102D01*
X174540000Y-74248061D01*
X174540000Y-74310198D01*
X173688998Y-75161201D01*
X173660000Y-75184999D01*
X173636202Y-75213997D01*
X173636201Y-75213998D01*
X173565026Y-75300724D01*
X173494454Y-75432754D01*
X173450998Y-75576015D01*
X173436324Y-75725000D01*
X173440001Y-75762332D01*
X173440000Y-83885198D01*
X172885199Y-84440000D01*
X171805480Y-84440000D01*
X171839376Y-84362233D01*
X171885000Y-84153000D01*
X171885000Y-83403000D01*
X170927000Y-83403000D01*
X170927000Y-83423000D01*
X170673000Y-83423000D01*
X170673000Y-83403000D01*
X170406463Y-83403000D01*
X170399632Y-83367011D01*
X170326957Y-83187107D01*
X170318767Y-83171784D01*
X170120520Y-83155088D01*
X170126608Y-83149000D01*
X170673000Y-83149000D01*
X170673000Y-81608498D01*
X170927000Y-81608498D01*
X170927000Y-83149000D01*
X171885000Y-83149000D01*
X171885000Y-82399000D01*
X171839376Y-82189767D01*
X171753809Y-81993455D01*
X171631587Y-81817609D01*
X171477408Y-81668986D01*
X171297197Y-81553298D01*
X171094001Y-81481592D01*
X170927000Y-81608498D01*
X170673000Y-81608498D01*
X170505999Y-81481592D01*
X170302803Y-81553298D01*
X170122592Y-81668986D01*
X169968413Y-81817609D01*
X169846191Y-81993455D01*
X169779775Y-82145830D01*
X169629605Y-82296000D01*
X169643748Y-82310143D01*
X169585000Y-82368890D01*
X169585000Y-82198986D01*
X169548899Y-82017496D01*
X169940912Y-81625483D01*
X169924216Y-81427233D01*
X169745616Y-81351411D01*
X169555656Y-81311890D01*
X169361636Y-81310187D01*
X169360000Y-81310498D01*
X169360000Y-80237322D01*
X169363676Y-80199999D01*
X169360000Y-80162676D01*
X169360000Y-80162667D01*
X169349003Y-80051014D01*
X169305546Y-79907753D01*
X169234974Y-79775724D01*
X169221811Y-79759685D01*
X169163799Y-79688996D01*
X169163795Y-79688992D01*
X169140001Y-79659999D01*
X169111009Y-79636206D01*
X168935000Y-79460198D01*
X168935000Y-79398061D01*
X168895226Y-79198102D01*
X168817205Y-79009744D01*
X168703937Y-78840226D01*
X168660000Y-78796289D01*
X168660000Y-75228711D01*
X168703937Y-75184774D01*
X168817205Y-75015256D01*
X168895226Y-74826898D01*
X168935000Y-74626939D01*
X168935000Y-74423061D01*
X168895226Y-74223102D01*
X168817205Y-74034744D01*
X168703937Y-73865226D01*
X168559774Y-73721063D01*
X168390256Y-73607795D01*
X168201898Y-73529774D01*
X168001939Y-73490000D01*
X167798061Y-73490000D01*
X167598102Y-73529774D01*
X167409744Y-73607795D01*
X167240226Y-73721063D01*
X167096063Y-73865226D01*
X166982795Y-74034744D01*
X166904774Y-74223102D01*
X166887043Y-74312241D01*
X165634927Y-73060126D01*
X165634927Y-72997988D01*
X165595153Y-72798029D01*
X165517132Y-72609671D01*
X165403864Y-72440153D01*
X165259701Y-72295990D01*
X165090183Y-72182722D01*
X164901825Y-72104701D01*
X164701866Y-72064927D01*
X164497988Y-72064927D01*
X164298029Y-72104701D01*
X164109671Y-72182722D01*
X163940153Y-72295990D01*
X163795990Y-72440153D01*
X163743505Y-72518703D01*
X163235000Y-72010199D01*
X163235000Y-71948061D01*
X163195226Y-71748102D01*
X163117205Y-71559744D01*
X163003937Y-71390226D01*
X162859774Y-71246063D01*
X162690256Y-71132795D01*
X162501898Y-71054774D01*
X162301939Y-71015000D01*
X162098061Y-71015000D01*
X161898102Y-71054774D01*
X161709744Y-71132795D01*
X161540226Y-71246063D01*
X161396063Y-71390226D01*
X161282795Y-71559744D01*
X161204774Y-71748102D01*
X161165000Y-71948061D01*
X157460000Y-71948061D01*
X157460000Y-35260000D01*
X199940000Y-35260000D01*
X199940001Y-87740000D01*
G37*
%TD.AperFunction*%
%TD*%
M02*
